<svg width="224" height="356" viewBox="0 0 224 356" fill="none" xmlns="http://www.w3.org/2000/svg">
<path fill-rule="evenodd" clip-rule="evenodd" d="M156.706 41.1127C155.826 41.5157 154.22 42.6737 153.137 43.6847C152.054 44.6957 151.064 45.5237 150.937 45.5237C150.81 45.5227 149.372 45.2447 147.741 44.9047C141.836 43.6727 136.096 44.4267 133.289 46.8017C130.672 49.0177 129.82 54.9377 131.574 58.7317C132.029 59.7177 132.775 61.3547 133.23 62.3697C133.686 63.3847 134.61 64.7657 135.283 65.4387C136.298 66.4547 136.506 66.9797 136.506 68.5327C136.506 72.3977 137.555 73.4247 141.706 73.6197L143.906 73.7237L143.77 75.0777C143.414 78.6297 148.39 77.4017 149.071 73.7697C149.38 72.1207 150.103 71.4477 150.112 72.7997C150.122 74.2277 150.619 74.7157 152.705 75.3437C156.674 76.5377 158.936 75.6307 160.264 72.3117C160.995 70.4857 161.763 70.0227 163.033 70.6457C163.513 70.8807 164.311 71.1867 164.806 71.3257C165.898 71.6317 165.906 71.8377 164.952 75.1247C163.453 80.2927 160.93 83.9237 158.838 83.9237C158.539 83.9237 157.217 83.0667 155.9 82.0207C151.301 78.3637 145.969 77.1377 141.599 78.7307C139.733 79.4107 139.141 79.4847 138.673 79.0967C138.351 78.8287 138.04 78.6807 137.983 78.7667C137.312 79.7847 136.932 81.4417 136.798 83.9407C136.671 86.3267 136.405 87.3537 135.53 88.8467C134.606 90.4227 134.466 91.0157 134.684 92.4297C134.828 93.3617 135.004 95.1097 135.077 96.3137C135.225 98.7717 137.244 101.124 139.205 101.124C139.737 101.124 140.94 101.754 141.88 102.524C144.484 104.658 147.732 104.343 148.599 101.874C148.757 101.425 149.016 101.453 150.011 102.024C152.029 103.184 153.381 102.94 155.011 101.124C156.056 99.9597 156.761 99.5237 157.6 99.5237C159.073 99.5237 160.064 98.7907 160.867 97.1067C161.313 96.1737 161.894 95.6697 162.788 95.4397C164.6 94.9737 165.306 93.7587 165.306 91.1047C165.306 89.2437 165.472 88.7067 166.285 87.9427C166.824 87.4377 167.378 86.5057 167.517 85.8737C167.745 84.8337 167.929 84.7227 169.438 84.7137C172.033 84.6997 177.607 83.3377 178.544 82.4897C183.805 77.7287 182.325 66.2437 175.503 58.8827C174.954 58.2907 174.506 57.5687 174.506 57.2767C174.506 56.9857 174.05 55.7067 173.493 54.4357C170.988 48.7217 169.424 46.1677 166.67 43.2877L163.833 40.3237L161.07 40.3517C159.292 40.3697 157.735 40.6417 156.706 41.1127ZM151.506 57.1237C153.574 58.5467 154.914 58.6317 156.809 57.4597L158.207 56.5957L159.929 57.5367C161.226 58.2447 161.908 59.0007 162.691 60.6007C163.263 61.7687 163.876 62.7237 164.054 62.7237C164.974 62.7237 166.026 66.8447 165.365 67.8577C165.026 68.3777 162.804 67.9207 157.849 66.3107C157.157 66.0867 154.457 65.9147 151.849 65.9297C148.145 65.9497 146.536 65.7777 144.506 65.1427C143.076 64.6957 141.321 64.3287 140.606 64.3267C139.09 64.3227 139.127 64.4777 139.949 61.5857C140.998 57.8997 142.48 56.6607 145.487 56.9547C147.339 57.1357 148.094 57.0457 148.706 56.5707C149.724 55.7797 149.483 55.7317 151.506 57.1237ZM172.51 69.6237C174.138 72.2937 173.216 75.9057 170.125 78.9647C168.422 80.6497 166.833 80.9537 166.347 79.6857C165.994 78.7647 166.98 72.3067 167.563 71.7237C167.862 71.4247 168.106 70.8977 168.106 70.5527C168.106 68.3207 171.305 67.6467 172.51 69.6237ZM169.086 73.7107C168.049 76.1927 168.49 77.2547 169.976 75.8577C170.588 75.2827 170.906 74.5287 170.906 73.6537C170.906 71.8537 169.848 71.8867 169.086 73.7107ZM148.306 81.1237C148.442 81.3437 148.877 81.5237 149.272 81.5237C150.376 81.5237 153.582 84.1627 153.788 85.2407C154.169 87.2337 150.302 89.9237 147.057 89.9237C141.766 89.9237 138.412 83.4247 142.57 81.2297C143.693 80.6367 147.957 80.5587 148.306 81.1237ZM142.275 84.6237C142.795 86.8527 146.318 88.8807 148.056 87.9507C148.495 87.7157 149.194 87.5237 149.61 87.5237C150.545 87.5237 152.287 85.7397 151.924 85.1537C151.778 84.9167 150.965 84.7237 150.118 84.7237C149.27 84.7237 147.166 84.4537 145.441 84.1237C143.717 83.7937 142.241 83.5237 142.163 83.5237C142.084 83.5237 142.135 84.0187 142.275 84.6237ZM121.603 129.424C120.777 130.345 119.409 134.299 119.102 136.653C118.967 137.682 118.616 139.244 118.321 140.124C118.026 141.004 117.689 142.264 117.573 142.924C117.457 143.584 117.251 144.41 117.116 144.759C116.945 145.201 117.352 145.713 118.453 146.442C120.564 147.838 120.915 147.362 121.099 142.853C121.179 140.912 121.515 138.154 121.846 136.724C123.228 130.76 123.126 127.724 121.603 129.424ZM70.5507 131.488C70.1687 131.729 70.0827 132.195 70.2747 132.981C70.4287 133.61 70.6537 134.619 70.7757 135.224C71.2487 137.578 73.1017 136.281 72.7037 133.873C72.2967 131.405 71.7097 130.754 70.5507 131.488ZM65.1587 142.196C62.2307 145.587 62.0757 145.924 63.4417 145.924C64.0517 145.924 64.5357 145.576 64.8327 144.925C65.0827 144.375 66.0117 143.14 66.8967 142.18C68.3867 140.564 68.9807 139.124 68.1587 139.124C67.9677 139.124 66.6177 140.507 65.1587 142.196ZM69.2417 142.944C66.9737 145.321 65.6047 147.583 66.1197 148.098C66.3777 148.356 66.7037 148.221 67.0657 147.708C67.3697 147.277 68.4477 145.858 69.4617 144.554C71.0467 142.516 71.7287 141.124 71.1417 141.124C71.0517 141.124 70.1967 141.943 69.2417 142.944ZM72.9057 142.873C72.9057 144.304 71.4167 147.379 70.2967 148.26C69.1637 149.151 69.0037 149.924 69.9517 149.924C70.9007 149.924 73.2527 147.18 73.7077 145.541C74.2947 143.426 74.2117 141.924 73.5057 141.924C73.1407 141.924 72.9057 142.296 72.9057 142.873ZM74.6957 149.864C74.8387 150.711 74.9707 152.016 74.9887 152.764C75.0217 154.099 75.5567 154.863 76.1867 154.474C76.7217 154.143 76.5427 151.633 75.8627 149.932C75.0367 147.868 74.3517 147.828 74.6957 149.864ZM194.806 150.2C194.421 150.3 194.026 150.774 193.928 151.253C193.54 153.142 192.556 159.443 192.325 161.524C190.931 174.064 186.53 181.286 177.615 185.66C175.476 186.711 173.619 187.741 173.49 187.95C173.361 188.159 170.881 189.516 167.98 190.965C165.079 192.414 162.436 193.823 162.106 194.096C161.776 194.368 160.336 195.188 158.906 195.916C150.591 200.152 149.347 201.166 155.706 198.524C157.559 197.754 159.353 197.116 159.691 197.107C160.029 197.098 161.746 196.581 163.506 195.96C166.477 194.91 167.894 194.36 172.437 192.49C173.921 191.88 174.22 191.86 174.531 192.351C174.737 192.677 174.896 192.727 174.9 192.467C174.903 192.216 175.401 191.89 176.006 191.743C177.502 191.379 183.706 188.328 183.706 187.957C183.706 187.793 184.199 187.404 184.802 187.092C185.405 186.779 186.389 186.029 186.988 185.424C187.588 184.819 188.203 184.324 188.355 184.324C188.507 184.324 189.337 183.604 190.199 182.724C191.062 181.844 191.934 181.124 192.137 181.124C192.34 181.124 192.506 180.935 192.506 180.705C192.506 180.474 192.969 179.856 193.535 179.332C195.798 177.235 196.188 175.841 196.505 168.724C196.874 160.445 196.559 149.906 195.946 149.97C195.704 149.996 195.191 150.099 194.806 150.2ZM110.306 154.077C109.164 154.574 107.078 154.892 101.847 155.367C96.2937 155.871 100.017 159.524 106.083 159.524C112.8 159.524 114.034 158.747 112.732 155.336C111.965 153.328 111.994 153.343 110.306 154.077ZM132.106 196.184C131.556 196.267 130.341 196.433 129.406 196.554C126.251 196.961 127.148 198.092 130.364 197.762C133.199 197.472 134.676 196.923 134.294 196.304C134.056 195.92 133.909 195.912 132.106 196.184ZM102.507 201.385C101.737 201.931 100.963 202.636 100.787 202.951C100.611 203.266 100.205 203.524 99.8857 203.524C99.5667 203.524 99.3027 203.749 99.2987 204.024C99.2917 204.55 97.5987 206.324 97.1057 206.324C96.6567 206.324 93.3057 209.835 93.3057 210.305C93.3057 210.535 93.1217 210.724 92.8967 210.724C92.6727 210.724 92.2707 211.219 92.0057 211.824C91.7397 212.429 91.3007 213.064 91.0307 213.235C90.7597 213.406 90.4227 214.158 90.2827 214.907C90.1417 215.656 89.7747 216.365 89.4667 216.484C89.1577 216.602 88.9057 216.975 88.9057 217.311C88.9057 217.648 88.7617 217.924 88.5857 217.924C88.4107 217.924 88.0387 218.554 87.7597 219.324C87.4817 220.094 87.1057 220.724 86.9247 220.724C86.7427 220.724 86.4777 221.349 86.3337 222.113C86.1907 222.877 85.8557 223.642 85.5897 223.813C85.0017 224.191 84.2387 225.347 83.6037 226.824C83.3437 227.429 82.9177 227.924 82.6567 227.924C82.3967 227.924 81.9957 228.464 81.7657 229.124C81.5357 229.784 81.1727 230.324 80.9587 230.324C80.7447 230.324 80.4507 230.864 80.3057 231.524C80.1607 232.184 79.9217 232.725 79.7737 232.727C79.4397 232.731 78.5057 234.701 78.5057 235.404C78.5057 235.69 78.3397 235.924 78.1377 235.924C77.9347 235.924 77.6437 236.509 77.4907 237.224C77.3377 237.939 76.8737 238.846 76.4587 239.24C76.0447 239.633 75.7057 240.218 75.7057 240.54C75.7057 240.861 75.3907 241.471 75.0057 241.895C73.7907 243.234 73.4897 243.69 72.9427 245.024C72.6487 245.739 72.2507 246.324 72.0567 246.324C71.8637 246.324 71.7057 246.582 71.7057 246.897C71.7057 247.212 71.3877 247.571 70.9987 247.694C70.1027 247.979 68.6217 250.836 68.2877 252.923C68.1477 253.803 67.8457 254.637 67.6177 254.778C67.0497 255.129 67.0587 276.324 67.6267 276.675C67.8537 276.815 68.2477 279.809 68.5027 283.327C68.7577 286.845 69.1327 289.784 69.3357 289.857C69.5397 289.931 69.7057 290.959 69.7057 292.143C69.7057 295.049 70.5407 302.427 70.9257 302.924C71.0967 303.144 71.3537 306.024 71.4977 309.324C71.6417 312.624 71.9277 315.384 72.1327 315.457C72.6397 315.639 72.6137 321.124 72.1057 321.124C71.4257 321.124 71.6137 325.403 72.3057 325.669C73.7037 326.205 68.4937 333.124 66.6917 333.124C66.4007 333.124 65.9227 333.364 65.6287 333.658C65.3357 333.951 64.2927 334.32 63.3127 334.477C62.3317 334.633 61.4207 334.938 61.2867 335.154C61.1537 335.37 59.8887 335.757 58.4747 336.013C57.0617 336.27 55.8117 336.615 55.6957 336.78C55.5807 336.945 54.2307 337.279 52.6957 337.523C51.1617 337.767 49.8457 338.137 49.7727 338.345C49.6987 338.554 49.2167 338.724 48.7007 338.724C47.5777 338.724 46.5967 339.62 46.2627 340.952C46.1287 341.487 45.8587 341.924 45.6627 341.924C45.4657 341.924 45.3057 342.914 45.3057 344.124C45.3057 345.334 45.4637 346.324 45.6557 346.324C45.8487 346.324 46.1137 346.864 46.2457 347.524L46.4857 348.724H58.8957C65.8427 348.724 71.3057 348.568 71.3057 348.369C71.3057 348.174 72.1157 347.893 73.1057 347.745C74.0957 347.596 74.9057 347.324 74.9057 347.139C74.9057 346.955 75.8507 346.58 77.0057 346.306C78.1607 346.032 79.1957 345.682 79.3057 345.529C80.1787 344.311 82.1057 344.798 82.1057 346.236C82.1057 347.481 82.2877 347.808 83.2057 348.208C84.6137 348.822 91.7087 348.803 92.4707 348.183C92.8997 347.834 93.0767 347.844 93.2037 348.224C93.3937 348.789 96.5057 348.927 96.5057 348.371C96.5057 348.176 96.8367 347.931 97.2427 347.825C97.8927 347.655 98.0077 347.031 98.2227 342.485C98.3647 339.459 98.6387 337.28 98.8857 337.197C99.4217 337.019 99.4397 334.724 98.9057 334.724C98.6857 334.724 98.5057 334.092 98.5057 333.319C98.5057 332.061 97.9237 330.469 97.2637 329.924C97.1307 329.814 96.8017 329.049 96.5327 328.224C96.2637 327.399 95.9017 326.724 95.7287 326.724C95.5567 326.724 95.3277 325.053 95.2207 323.012C95.0907 320.524 94.7757 318.775 94.2657 317.712C93.4627 316.035 93.2737 302.862 94.0447 302.344C94.4757 302.054 95.3067 295.937 95.3067 293.057C95.3057 291.811 95.4767 290.731 95.6857 290.657C96.4097 290.404 96.3337 276.94 95.6037 276.022C94.7807 274.987 94.7107 268.374 95.5197 268.063C97.4237 267.332 98.8437 262.806 97.2057 262.688C96.9307 262.668 97.2697 262.488 97.9587 262.289C99.3647 261.881 99.6917 261.121 99.7007 258.247C99.7067 255.995 100.626 254.362 103.146 252.124C104.137 251.244 105.583 249.939 106.361 249.224C107.139 248.509 107.857 247.924 107.959 247.924C108.326 247.924 110.106 245.949 110.106 245.542C110.106 245.312 110.357 245.124 110.664 245.124C110.971 245.124 111.646 244.677 112.164 244.131C112.682 243.585 113.337 243.135 113.619 243.131C113.9 243.127 114.228 242.87 114.347 242.56C114.467 242.25 115.046 241.877 115.635 241.731C116.224 241.586 117.191 240.94 117.783 240.295C118.376 239.651 119.006 239.122 119.183 239.119C119.361 239.116 120.655 237.946 122.06 236.519C123.465 235.092 124.841 233.924 125.117 233.924C125.394 233.924 125.724 233.654 125.851 233.324C125.977 232.994 126.317 232.724 126.605 232.724C128.649 232.724 128.532 230.862 126.406 229.57C124.266 228.27 122.087 224.759 118.06 216.124C112.679 204.586 106.392 198.629 102.507 201.385ZM132.5 200.887C129.751 201.387 128.906 201.73 128.906 202.348C128.906 202.823 130.824 202.835 132.346 202.369C132.984 202.174 134.271 201.807 135.206 201.553C138.939 200.54 137.015 200.067 132.5 200.887ZM138.306 203.339C138.086 203.402 137.411 203.563 136.806 203.697C135.018 204.091 135.468 204.861 137.339 204.61C138.237 204.49 139.08 204.283 139.212 204.151C139.531 203.833 138.816 203.192 138.306 203.339ZM168.585 210.024C168.542 210.409 168.355 210.724 168.171 210.724C167.987 210.724 167.323 211.759 166.694 213.024C163.47 219.512 156.133 227.299 152.106 228.507C151.556 228.672 150.386 229.143 149.506 229.554C143.839 232.202 140.651 233.124 137.163 233.124C134.357 233.124 133.706 233.237 133.706 233.724C133.706 234.054 133.884 234.324 134.101 234.324C134.319 234.324 134.612 235.044 134.752 235.924C134.893 236.804 135.13 237.524 135.279 237.524C135.428 237.524 135.775 238.862 136.05 240.498C136.325 242.134 136.723 243.53 136.934 243.6C137.146 243.671 137.507 244.893 137.736 246.317C137.965 247.741 138.306 249 138.493 249.116C138.68 249.231 138.959 250 139.114 250.825C139.268 251.649 139.511 252.324 139.653 252.324C139.951 252.324 140.906 255.216 140.906 256.118C140.906 256.451 141.057 256.724 141.242 256.724C141.427 256.724 141.816 257.714 142.106 258.924C142.396 260.134 142.771 261.124 142.938 261.124C143.105 261.124 143.358 261.649 143.499 262.291C143.64 262.932 143.989 263.547 144.274 263.657C144.56 263.766 144.915 264.771 145.064 265.89C145.212 267.009 145.462 267.925 145.62 267.927C145.968 267.931 146.906 269.882 146.906 270.604C146.906 270.89 147.086 271.124 147.306 271.124C147.526 271.124 147.706 271.404 147.706 271.745C147.706 272.087 148.156 273.029 148.706 273.838C149.256 274.647 149.706 275.628 149.706 276.017C149.706 276.406 149.884 276.724 150.101 276.724C150.318 276.724 150.749 277.309 151.059 278.024C151.369 278.739 152.181 279.92 152.864 280.649C153.547 281.377 154.106 282.123 154.106 282.306C154.106 282.489 154.376 282.742 154.706 282.869C155.036 282.995 155.306 283.335 155.306 283.623C155.306 283.911 155.621 284.43 156.006 284.777C156.391 285.125 157.066 285.914 157.506 286.532C157.946 287.15 158.53 287.883 158.804 288.16C159.079 288.437 159.479 289.127 159.695 289.694C159.91 290.26 160.341 290.724 160.653 290.724C160.964 290.724 161.327 291.129 161.458 291.624C161.59 292.119 162.239 293.133 162.902 293.878C163.564 294.623 164.109 295.433 164.113 295.678C164.117 295.923 164.567 296.548 165.113 297.066C165.659 297.584 166.106 298.24 166.106 298.523C166.106 298.807 166.376 299.142 166.706 299.269C167.036 299.395 167.306 299.775 167.306 300.111C167.306 300.448 167.49 300.724 167.715 300.724C167.939 300.724 168.341 301.219 168.606 301.824C168.872 302.429 169.318 303.068 169.598 303.244C169.877 303.42 170.106 303.818 170.106 304.13C170.106 304.441 170.466 304.889 170.906 305.124C171.346 305.359 171.706 305.739 171.706 305.967C171.706 306.195 171.976 306.651 172.306 306.981C172.636 307.311 172.906 307.919 172.906 308.333C172.906 308.746 173.131 309.228 173.406 309.404C174.061 309.823 174.906 311.352 174.906 312.119C174.906 312.452 175.176 312.724 175.506 312.724C175.836 312.724 176.106 312.975 176.106 313.281C176.106 313.588 176.376 313.942 176.706 314.069C177.036 314.195 177.306 314.477 177.306 314.694C177.306 315.059 178.823 317.555 179.654 318.557C179.852 318.796 180.135 319.543 180.283 320.218C180.431 320.893 180.902 322.132 181.329 322.97C181.756 323.808 182.106 324.71 182.106 324.975C182.106 325.24 182.3 325.522 182.538 325.601C182.776 325.681 183.098 327.237 183.255 329.06C183.43 331.096 183.742 332.499 184.065 332.699C184.424 332.921 184.454 333.109 184.16 333.291C183.922 333.438 183.53 334.291 183.289 335.188C182.859 336.786 182.619 337.196 181.206 338.753C180.821 339.177 180.506 339.704 180.506 339.924C180.506 340.144 180.302 340.324 180.052 340.324C179.802 340.324 179.189 340.729 178.69 341.224C177.389 342.513 176.589 343.124 176.204 343.124C175.851 343.124 174.477 344.094 173.328 345.155C172.952 345.501 172.344 345.901 171.975 346.042C171.607 346.183 171.306 346.56 171.306 346.878C171.306 347.197 171.099 347.526 170.846 347.611C170.084 347.865 170.206 351.281 171.006 352.081C171.391 352.466 171.706 352.928 171.706 353.108C171.706 353.288 172.336 353.553 173.106 353.698C173.876 353.842 174.506 354.106 174.506 354.283C174.506 354.461 176.359 354.834 178.624 355.114C184.014 355.779 192.106 355.29 192.106 354.299C192.106 354.113 192.724 353.844 193.478 353.703C194.233 353.561 194.939 353.216 195.046 352.936C195.153 352.656 195.721 352.306 196.308 352.159C197.345 351.899 197.797 351.613 199.272 350.286C199.662 349.936 200.984 349.531 202.21 349.387C204.981 349.061 205.706 348.791 205.706 348.081C205.706 347.775 205.886 347.524 206.106 347.524C206.335 347.524 206.506 346.324 206.506 344.724C206.506 343.124 206.335 341.924 206.106 341.924C205.886 341.924 205.706 341.204 205.706 340.324C205.706 339.444 205.886 338.724 206.106 338.724C206.326 338.724 206.506 338.454 206.506 338.124C206.506 337.794 206.326 337.524 206.106 337.524C205.886 337.524 205.706 336.96 205.706 336.27C205.706 334.931 204.916 331.856 204.486 331.524C204.344 331.414 204.112 328.996 203.971 326.15C203.83 323.305 203.559 320.875 203.369 320.75C203.179 320.626 202.796 319.309 202.519 317.824C202.242 316.339 201.885 315.124 201.725 315.124C201.565 315.124 201.196 314.134 200.906 312.924C200.616 311.714 200.25 310.724 200.094 310.724C199.937 310.724 199.69 309.824 199.544 308.724C199.398 307.624 199.122 306.724 198.93 306.724C198.738 306.724 198.453 305.794 198.297 304.657C198.044 302.819 196.561 299.316 195.792 298.739C195.634 298.621 195.255 297.984 194.949 297.324C193.607 294.424 193.105 293.524 192.831 293.524C192.67 293.524 192.322 292.804 192.059 291.924C191.795 291.044 191.441 290.324 191.272 290.324C191.103 290.324 190.496 289.334 189.923 288.124C189.351 286.914 188.708 285.924 188.494 285.924C188.281 285.924 188.106 285.598 188.106 285.199C188.106 284.801 187.746 284.088 187.306 283.616C186.866 283.144 186.506 282.648 186.506 282.514C186.506 282.38 186.056 281.681 185.506 280.96C184.956 280.238 184.506 279.53 184.506 279.386C184.506 279.242 183.831 278.434 183.006 277.59C182.181 276.746 181.236 275.649 180.906 275.153C180.576 274.656 179.991 273.879 179.606 273.425C179.221 272.972 178.906 272.368 178.906 272.083C178.906 271.797 178.612 271.399 178.252 271.198C177.79 270.939 177.523 270.014 177.342 268.04C177.084 265.223 176.399 263.924 175.172 263.924C174.785 263.924 174.651 263.657 174.783 263.152C175.106 261.915 174.188 258.406 173.311 257.529C172.704 256.922 172.506 256.195 172.506 254.573C172.506 253.149 172.303 252.254 171.906 251.924C171.543 251.623 171.306 250.747 171.306 249.708C171.306 248.708 171.097 247.906 170.806 247.789C170.406 247.628 170.406 247.581 170.806 247.556C171.403 247.518 171.533 240.074 170.941 239.857C170.74 239.784 170.369 234.419 170.117 227.936C169.864 221.452 169.497 215.954 169.301 215.718C169.105 215.482 168.881 213.946 168.805 212.306C168.728 210.666 168.629 209.639 168.585 210.024Z" fill="#173C5E"/>
<path fill-rule="evenodd" clip-rule="evenodd" d="M142.809 59.6725C141.611 60.1135 141.116 61.0955 141.494 62.2855C141.834 63.3565 145.485 63.6315 146.371 62.6525C147.757 61.1195 145.045 58.8515 142.809 59.6725ZM138.095 74.7435C137.145 76.5185 138.302 78.7945 139.852 78.1995C140.768 77.8485 140.735 75.1855 139.806 74.4805C138.85 73.7545 138.604 73.7925 138.095 74.7435ZM142.318 82.3035C141.943 82.9115 143.235 83.3685 147.431 84.1115C151.653 84.8585 152.31 84.7495 151.065 83.5045C149.866 82.3055 142.908 81.3495 142.318 82.3035ZM132.398 92.3605C132.008 92.5875 131.8 92.9525 131.936 93.1715C132.071 93.3905 131.31 94.4205 130.244 95.4595C129.178 96.4975 128.01 97.9725 127.649 98.7355C126.213 101.77 125.761 102.99 125.504 104.523C124.968 107.72 122.612 112.321 121.507 112.329C120.843 112.334 120.809 112.402 121.306 112.723C121.819 113.054 121.804 113.112 121.206 113.117C120.68 113.121 120.506 113.457 120.506 114.46C120.506 115.195 120.24 116.679 119.914 117.759C119.552 118.96 119.475 119.775 119.714 119.856C119.93 119.93 120.106 120.333 120.106 120.751C120.106 121.17 120.646 122.39 121.306 123.462C122.053 124.676 122.506 125.952 122.506 126.844C122.506 127.631 122.706 128.4 122.951 128.551C123.493 128.885 123.296 131.175 122.164 137.723C121.707 140.363 121.357 143.153 121.385 143.923C121.414 144.693 121.3 145.885 121.132 146.572C120.849 147.727 121.041 148.056 123.713 150.973C125.301 152.706 127.87 156.014 129.422 158.324C132.817 163.378 136.732 167.416 139.687 168.913C142.688 170.434 150.372 173.124 151.717 173.124C152.919 173.124 158.506 175.794 159.026 176.617C159.582 177.499 160.312 177.177 162.191 175.223C165.356 171.933 169.338 168.709 171.962 167.314C176.048 165.141 176.888 159.752 173.762 155.766C173.571 155.522 172.923 153.703 172.323 151.723C171.723 149.743 171.067 147.674 170.865 147.124C169.935 144.585 170.204 142.907 171.506 143.124C175.036 143.712 190.724 143.28 192.506 142.546C193.496 142.137 194.908 141.801 195.643 141.796L196.98 141.786L196.698 138.156C196.403 134.368 196.298 133.923 195.692 133.923C195.491 133.923 195.434 134.464 195.566 135.124C195.698 135.784 195.64 136.324 195.436 136.324C195.022 136.324 194.106 134.03 194.106 132.994C194.106 129.877 188.525 118.718 185.606 115.997C185.221 115.639 184.906 115.186 184.906 114.992C184.906 114.798 183.837 113.624 182.53 112.382C179.521 109.523 179.032 109.124 178.538 109.124C178.044 109.124 175.455 105.303 173.93 102.324C173.31 101.114 172.687 100.033 172.545 99.9235C172.404 99.8135 171.986 99.2485 171.617 98.6685C170.033 96.1755 166.506 95.4095 166.506 97.5585C166.506 98.4135 160.763 103.565 159.006 104.286C158.291 104.58 157.706 104.954 157.706 105.117C157.706 105.743 151.405 107.213 149.648 106.997C144.518 106.365 142.079 105.333 140.51 103.13C140.065 102.505 138.898 101.604 137.918 101.13C135.748 100.079 134.304 97.9825 134.69 96.4445C134.995 95.2315 134.134 91.9175 133.519 91.9355C133.292 91.9425 132.787 92.1335 132.398 92.3605ZM118.296 121.154C117.93 122.308 118.396 122.622 119.097 121.695C119.842 120.71 119.852 120.324 119.133 120.324C118.818 120.324 118.441 120.698 118.296 121.154ZM116.006 123.956C115.181 124.846 114.506 125.664 114.506 125.775C114.506 126.052 112.367 128.895 112.048 129.042C111.906 129.108 111.194 130.323 110.466 131.742C109.738 133.162 109.013 134.324 108.856 134.324C108.698 134.324 108.451 134.863 108.306 135.523C108.161 136.183 107.906 136.723 107.738 136.723C107.571 136.723 107.196 137.444 106.906 138.324C106.616 139.204 106.263 139.923 106.122 139.923C105.797 139.923 104.906 142.363 104.906 143.251C104.906 143.621 104.69 143.923 104.426 143.923C104.084 143.923 104.07 144.047 104.375 144.352C105.531 145.508 110.847 142.422 111.543 140.193C111.692 139.715 111.937 139.234 112.087 139.124C112.354 138.929 113.186 137.214 115.193 132.723C115.734 131.513 116.442 130.073 116.766 129.523C117.09 128.973 117.455 128.209 117.577 127.824C117.699 127.439 117.936 127.124 118.103 127.124C118.614 127.124 118.936 124.642 118.493 124.109C118.265 123.833 118.129 123.386 118.192 123.115C118.443 122.034 117.426 122.425 116.006 123.956ZM141.226 124.803C141.513 125.09 141.72 126.575 141.74 128.503C141.758 130.274 141.931 132.713 142.124 133.923C142.317 135.133 142.656 137.345 142.877 138.839C143.098 140.333 143.377 141.715 143.496 141.908C143.616 142.101 143.429 142.544 143.082 142.891C142.24 143.733 141.007 143.083 140.656 141.611C140.513 141.013 140.252 140.339 140.076 140.113C139.277 139.087 138.592 125.785 139.294 124.938C139.906 124.201 140.576 124.153 141.226 124.803ZM168.554 132.156C168.691 135.218 168.646 137.783 168.454 137.856C168.263 137.93 168.106 138.425 168.106 138.956C168.106 139.534 167.873 139.923 167.526 139.923C166.931 139.923 166.244 136.072 166.455 133.923C166.508 133.373 166.638 131.843 166.742 130.523C167.259 123.999 168.23 124.875 168.554 132.156ZM67.5056 131.923C67.3696 132.143 67.5176 132.324 67.8356 132.324C68.1526 132.324 68.5066 132.684 68.6216 133.124C68.8426 133.968 69.7056 134.244 69.7056 133.471C69.7056 132.573 67.8926 131.297 67.5056 131.923ZM194.977 132.544C195.158 133.413 195.867 133.467 196.03 132.624C196.114 132.186 195.918 131.923 195.506 131.923C195.122 131.923 194.901 132.182 194.977 132.544ZM175.832 145.527C174.22 146.176 173.759 149.161 174.875 151.723C175.067 152.163 175.432 153.545 175.687 154.794C176.635 159.44 178.313 161.923 180.505 161.923C183.95 161.923 183.852 157.126 180.246 149.167C178.522 145.362 177.772 144.745 175.832 145.527ZM174.049 168.43C165.18 173.867 157.546 182.723 161.727 182.723C162.76 182.723 167.767 179.366 168.906 177.91C169.016 177.77 169.402 177.491 169.763 177.29C172.621 175.699 178.217 169.985 177.937 168.943C177.816 168.492 177.714 167.989 177.711 167.824C177.7 167.2 175.448 167.572 174.049 168.43Z" fill="#D3E8F5"/>
<path fill-rule="evenodd" clip-rule="evenodd" d="M143.044 0.175615C142.79 0.279615 142.346 1.16561 142.057 2.14461C141.768 3.12261 141.4 3.92362 141.239 3.92362C141.078 3.92362 140.734 5.00361 140.474 6.32361C140.214 7.64361 139.866 8.72362 139.7 8.72362C139.534 8.72362 139.279 9.75861 139.134 11.0236C138.989 12.2886 138.614 14.4936 138.3 15.9236C137.986 17.3536 137.552 20.1436 137.335 22.1236C136.814 26.8906 135.711 32.3236 135.264 32.3236C135.067 32.3236 134.9 32.8186 134.893 33.4236C134.861 36.1756 132.284 36.2116 129.374 33.5006C128.973 33.1276 128.273 32.7036 127.82 32.5596C127.366 32.4156 126.551 31.8986 126.008 31.4106C125.465 30.9226 124.609 30.2536 124.107 29.9236C122.463 28.8426 120.734 27.3546 119.045 25.5666C116.953 23.3526 116.322 23.5476 115.696 26.5986C115.434 27.8776 115.09 29.1036 114.933 29.3236C114.384 30.0886 113.706 33.0266 113.706 34.6366C113.706 35.5276 113.529 36.3166 113.313 36.3906C111.815 36.8986 113.291 76.9706 114.879 78.8926C115.075 79.1296 115.452 80.8086 115.716 82.6236C115.981 84.4386 116.337 85.9236 116.506 85.9236C116.675 85.9236 116.938 86.9136 117.089 88.1236C117.24 89.3336 117.506 90.3236 117.68 90.3236C117.855 90.3236 118.109 91.1366 118.245 92.1306C118.381 93.1246 118.856 94.7356 119.299 95.7086C119.743 96.6826 120.106 97.8156 120.106 98.2256C120.106 98.6356 120.37 99.3196 120.693 99.7476C121.016 100.175 121.286 101.094 121.293 101.791C121.315 103.97 122.199 103.507 123.601 100.582C125.455 96.7136 130.014 92.1686 132.429 91.7826C133.651 91.5866 134.107 91.3256 134.108 90.8186C134.109 90.4366 134.554 89.4036 135.096 88.5236C135.856 87.2896 136.084 86.3626 136.094 84.4726C136.1 83.1246 136.354 81.4146 136.657 80.6726C137.411 78.8266 137.43 73.3226 136.687 71.8866C136.367 71.2686 136.101 69.8996 136.095 68.8436C136.086 67.2336 135.885 66.7296 134.852 65.7236C132.693 63.6216 130.103 56.8756 130.11 53.3716C130.124 45.7446 138.509 41.6586 148.303 44.5056C150.808 45.2336 150.842 45.2216 153.717 42.5616C158.998 37.6756 167.142 39.9816 170.534 47.3236C170.738 47.7636 171.07 48.3936 171.273 48.7236C172.521 50.7546 174.906 56.0936 174.906 56.8556C174.906 57.3576 175.524 58.3776 176.293 59.1426C177.056 59.9026 177.686 60.7206 177.693 60.9616C177.7 61.2026 178.066 61.7256 178.506 62.1236C178.946 62.5216 179.306 63.0306 179.306 63.2536C179.306 63.4776 179.547 63.9446 179.842 64.2926C182.259 67.1386 183.023 75.7916 181.171 79.3276C179.124 83.2346 178.033 83.8986 172.306 84.7276L167.906 85.3646L167.569 88.8866C166.99 94.9526 167.05 95.0346 176.106 100.548C180.205 103.043 182.534 104.515 183.666 105.324C185.314 106.502 189.331 110.883 189.545 111.736C189.681 112.279 189.94 112.724 190.12 112.724C190.528 112.724 192.505 116.986 192.508 117.872C192.512 119.233 194.434 121.012 195.048 120.224C195.349 119.839 195.799 119.524 196.05 119.524C196.301 119.524 196.506 119.335 196.506 119.105C196.506 118.874 197.766 117.43 199.306 115.896C200.846 114.363 202.109 112.976 202.113 112.816C202.116 112.655 202.833 111.82 203.706 110.96C204.579 110.1 205.398 109.065 205.526 108.66C205.655 108.255 205.932 107.924 206.143 107.924C206.353 107.924 206.697 107.474 206.906 106.924C207.115 106.374 207.456 105.924 207.664 105.924C207.872 105.924 208.158 105.399 208.299 104.757C208.44 104.116 208.814 103.491 209.13 103.37C209.447 103.248 209.706 102.951 209.706 102.71C209.706 102.468 210.156 101.681 210.706 100.96C211.256 100.238 211.706 99.4396 211.706 99.1856C211.706 98.9316 211.866 98.7236 212.063 98.7236C212.259 98.7236 212.54 98.2426 212.687 97.6556C212.835 97.0676 213.304 96.1436 213.731 95.6016C214.157 95.0596 214.506 94.4146 214.505 94.1696C214.503 93.5796 216.222 90.1606 216.606 89.9906C216.771 89.9166 216.906 89.5846 216.906 89.2506C216.906 88.9176 217.16 88.0776 217.472 87.3836C217.783 86.6906 218.248 85.4036 218.506 84.5236C218.764 83.6436 219.222 82.3726 219.524 81.6986C219.826 81.0246 220.193 79.7196 220.34 78.7986C220.488 77.8776 220.745 77.1236 220.912 77.1236C221.079 77.1236 221.342 76.2686 221.498 75.2236C221.654 74.1786 221.924 73.1436 222.099 72.9236C222.68 72.1946 223.398 63.9146 223.112 61.2446L222.833 58.6386L221.662 58.8726C220.546 59.0956 220.121 59.3496 218.572 60.7236C218.2 61.0536 217.402 61.5446 216.801 61.8146C216.199 62.0856 215.706 62.4906 215.706 62.7146C215.706 62.9396 215.526 63.1236 215.306 63.1236C215.086 63.1236 214.559 63.4386 214.135 63.8236C212.646 65.1746 211.961 65.7276 211.283 66.1236C210.619 66.5116 206.715 69.8046 205.236 71.2236C204.834 71.6086 204.335 71.9236 204.126 71.9236C203.917 71.9236 203.602 72.1496 203.426 72.4256C203.034 73.0416 200.538 74.8976 199.678 75.2126C198.852 75.5156 199.401 70.9236 200.31 69.9186C200.638 69.5566 200.906 69.0396 200.906 68.7706C200.906 68.5006 201.25 67.5246 201.67 66.6016C202.09 65.6786 202.56 64.2486 202.714 63.4236C202.869 62.5986 203.141 61.9236 203.319 61.9236C203.497 61.9236 203.769 61.3386 203.924 60.6236C204.08 59.9086 204.365 59.2226 204.558 59.0986C204.751 58.9756 205.131 57.9406 205.402 56.7986C205.673 55.6576 206.018 54.7236 206.169 54.7236C206.319 54.7236 206.566 54.1386 206.717 53.4236C206.869 52.7086 207.333 51.5626 207.749 50.8766C208.165 50.1906 208.506 49.1556 208.506 48.5766C208.506 47.9976 208.657 47.5236 208.842 47.5236C209.027 47.5236 209.416 46.5336 209.706 45.3236C209.996 44.1136 210.367 43.1236 210.531 43.1236C210.929 43.1236 211.706 40.8376 211.706 39.6636C211.706 39.1466 211.874 38.7236 212.079 38.7236C212.284 38.7236 212.569 38.3186 212.711 37.8236C212.853 37.3286 213.205 36.3836 213.492 35.7236C213.779 35.0636 214.14 33.6426 214.293 32.5666L214.572 30.6096L212.881 30.8366C211.952 30.9606 211.082 31.2116 210.948 31.3936C210.815 31.5756 210.166 31.9946 209.506 32.3246C208.846 32.6536 208.068 33.1486 207.777 33.4236C207.487 33.6986 207.074 33.9236 206.861 33.9236C206.505 33.9236 204.173 35.4216 203.706 35.9496C203.596 36.0746 202.471 36.7626 201.206 37.4796C199.941 38.1956 198.906 38.9096 198.906 39.0656C198.906 39.2206 198.411 39.5606 197.806 39.8196C196.828 40.2386 191.884 43.5986 190.623 44.7006C190.357 44.9336 190.034 45.1236 189.905 45.1236C189.775 45.1236 189.22 45.5736 188.67 46.1236C188.12 46.6736 187.543 47.1246 187.388 47.1256C187.233 47.1266 186.45 47.7296 185.648 48.4666C183.042 50.8596 182.747 50.7646 183.054 47.6336C183.2 46.1436 183.43 40.7836 183.566 35.7236C183.701 30.6636 183.964 26.3306 184.149 26.0936C184.339 25.8526 184.301 25.4786 184.062 25.2396C183.761 24.9386 183.764 24.7346 184.071 24.5456C184.633 24.1986 184.646 18.4576 184.087 18.1116C183.797 17.9326 183.803 17.6886 184.107 17.3226C184.625 16.6976 184.607 6.74861 184.086 6.10861C183.9 5.87961 183.694 4.54462 183.627 3.13962C183.481 0.0516155 183.01 -0.218386 181.237 1.76761C180.505 2.58761 179.591 3.53861 179.206 3.87961C178.821 4.22161 178.506 4.64861 178.506 4.82961C178.506 5.00961 178.324 5.37461 178.101 5.64061C177.879 5.90661 177.161 6.84362 176.506 7.72362C175.851 8.60362 175.178 9.50362 175.011 9.72362C174.082 10.9426 172.506 13.5586 172.506 13.8816C172.506 14.0876 172.371 14.3166 172.206 14.3906C171.748 14.5936 169.706 17.7076 169.706 18.2026C169.706 18.4416 169.453 18.7356 169.144 18.8536C168.834 18.9726 168.46 19.6216 168.312 20.2966C168.164 20.9716 167.894 21.5236 167.713 21.5236C167.532 21.5236 167.179 22.0186 166.929 22.6236C165.406 26.3036 165.057 26.4806 163.706 24.2566C163.156 23.3506 162.526 22.4026 162.306 22.1496C162.086 21.8966 161.726 21.4036 161.506 21.0536C160.327 19.1766 157.828 15.6236 157.213 14.9486C156.824 14.5216 156.506 13.9556 156.506 13.6906C156.506 13.4256 156.236 13.1056 155.906 12.9786C155.576 12.8526 155.306 12.5136 155.306 12.2256C155.306 11.9376 154.811 11.1586 154.206 10.4946C153.025 9.19862 152.304 8.23662 150.641 5.73562C147.729 1.35762 145.013 -0.630385 143.044 0.175615ZM17.7358 52.0826C17.0108 53.0506 15.6278 54.5156 14.6618 55.3396C12.5908 57.1046 12.4858 57.9206 14.1068 59.6456C14.7678 60.3486 15.4098 61.2386 15.5338 61.6236C15.6578 62.0086 16.0178 62.3236 16.3328 62.3236C16.6478 62.3236 16.9058 62.5066 16.9058 62.7296C16.9058 63.2236 21.3648 68.8936 22.9588 70.4266C23.5898 71.0336 24.1058 71.6386 24.1058 71.7706C24.1058 71.9026 24.4668 72.3966 24.9078 72.8676C25.3478 73.3386 26.3128 74.3936 27.0508 75.2116C29.4068 77.8256 32.9058 78.0586 32.9058 75.6026C32.9058 74.5136 35.1168 76.5236 37.9908 80.2236C38.5468 80.9386 39.2498 81.5236 39.5528 81.5236C39.8568 81.5236 40.1058 81.7216 40.1058 81.9636C40.1058 82.2056 40.9158 83.2256 41.9058 84.2296C42.8958 85.2336 43.7058 86.2056 43.7058 86.3896C43.7058 86.5736 44.0858 86.7236 44.5508 86.7236C45.4018 86.7236 45.3828 84.0876 44.5268 83.5246C44.3588 83.4136 43.9978 82.3786 43.7238 81.2236C43.4498 80.0686 43.1078 79.1236 42.9638 79.1236C42.8188 79.1236 42.4468 78.5386 42.1358 77.8236C41.8248 77.1086 41.4658 76.4336 41.3378 76.3236C41.2098 76.2136 40.6618 75.2426 40.1198 74.1656C39.5778 73.0896 38.9478 72.0026 38.7198 71.7516C38.2538 71.2376 37.3008 69.6036 36.2528 67.5236C35.8648 66.7536 35.4478 66.0336 35.3268 65.9236C35.2048 65.8136 34.8328 65.1906 34.4998 64.5406C33.3768 62.3466 29.3058 62.4206 29.3058 64.6346C29.3058 65.5176 28.1228 64.4346 27.4378 62.9236C27.1378 62.2636 25.9958 60.3146 24.8998 58.5926C23.8028 56.8706 22.9058 55.3176 22.9058 55.1416C22.9058 54.9656 22.6478 54.6066 22.3318 54.3446C22.0158 54.0826 21.6418 53.3406 21.4998 52.6956C21.3578 52.0516 21.0768 51.5236 20.8738 51.5236C20.6718 51.5236 20.5058 51.2536 20.5058 50.9236C20.5058 49.7386 19.0298 50.3566 17.7358 52.0826ZM60.5058 62.5236C59.7608 63.0736 58.9158 63.5236 58.6278 63.5236C58.3408 63.5236 58.1058 63.6676 58.1058 63.8436C58.1058 64.0186 57.4758 64.3906 56.7058 64.6696C55.9358 64.9476 55.3058 65.3296 55.3058 65.5176C55.3058 65.7056 54.7808 65.9756 54.1388 66.1166C52.0158 66.5826 50.6878 68.3166 51.6688 69.3436C51.8678 69.5526 52.2168 70.3536 52.4438 71.1236C53.0448 73.1626 54.0558 75.9376 54.7238 77.3836C55.0438 78.0776 55.3058 78.7696 55.3058 78.9236C55.3058 79.0776 55.5628 79.7696 55.8778 80.4636C57.0798 83.1116 58.5058 87.0146 58.5058 87.6546C58.5058 88.0226 58.6858 88.3236 58.9058 88.3236C59.1258 88.3236 59.3078 88.5486 59.3098 88.8236C59.3118 89.0986 59.7558 90.2236 60.2968 91.3236C60.8378 92.4236 61.2998 93.5936 61.3228 93.9236C61.4178 95.2816 64.7348 100.124 65.6618 100.257C67.2508 100.486 68.2778 99.9946 69.0558 98.6346C69.7958 97.3396 69.8098 97.3346 70.2168 98.2236C70.4428 98.7186 70.7658 99.1236 70.9348 99.1236C71.1038 99.1236 71.3608 99.6616 71.5048 100.319C71.6488 100.977 71.9338 101.618 72.1368 101.743C72.3398 101.869 72.5058 102.226 72.5058 102.538C72.5058 102.849 73.0458 104.283 73.7058 105.724C74.3658 107.165 74.9058 108.52 74.9058 108.734C74.9058 108.949 75.0858 109.124 75.3058 109.124C75.5258 109.124 75.7058 109.316 75.7058 109.55C75.7058 109.784 76.1558 110.959 76.7058 112.161C77.2558 113.364 77.7058 114.522 77.7058 114.736C77.7058 114.949 77.8778 115.124 78.0878 115.124C78.2978 115.124 78.5878 115.754 78.7318 116.524C78.9298 117.575 79.1958 117.924 79.8018 117.924C80.7058 117.924 80.7428 104.985 79.8408 104.391C79.6178 104.244 79.1998 102.459 78.9128 100.424C78.6248 98.3886 78.2648 96.7236 78.1118 96.7236C77.9598 96.7236 77.5958 95.1856 77.3028 93.3056C77.0108 91.4256 76.6318 89.8016 76.4618 89.6966C76.2918 89.5916 76.0288 88.2496 75.8778 86.7146C75.7258 85.1796 75.4458 83.9236 75.2538 83.9236C75.0628 83.9236 74.9058 83.6606 74.9058 83.3396C74.9058 82.4676 72.1678 81.7616 70.8058 82.2826C70.2008 82.5146 69.7058 82.9566 69.7058 83.2646C69.7058 86.4756 67.6318 83.3646 67.0788 79.3236C66.9278 78.2236 66.6658 77.1436 66.4968 76.9236C66.3268 76.7036 65.9718 75.0836 65.7068 73.3236C65.4428 71.5636 64.9748 69.5566 64.6658 68.8636C64.3578 68.1696 64.1058 67.0696 64.1058 66.4186C64.1058 61.5416 63.1858 60.5466 60.5058 62.5236ZM30.1058 109.24C29.5558 109.517 29.0498 110.131 28.9818 110.605C28.9138 111.078 28.5988 111.681 28.2818 111.944C27.5018 112.592 27.5408 115.701 28.3458 116.929C29.5558 118.776 34.9178 120.089 35.3958 118.655C35.4818 118.397 35.8008 118.802 36.1058 119.555C36.4108 120.308 36.7688 121.014 36.9018 121.124C37.0358 121.234 37.6568 122.211 38.2828 123.294C38.9098 124.378 39.9358 125.767 40.5638 126.381C41.1918 126.995 41.7058 127.641 41.7058 127.816C41.7058 128.65 45.1348 129.585 47.7488 129.464L50.4368 129.34L53.7138 132.332C55.5158 133.978 58.0298 136.359 59.2998 137.624C61.7788 140.094 61.9858 140.193 63.0518 139.413C63.6758 138.956 63.1488 138.396 58.0628 134.113C50.3118 127.587 49.3058 126.686 49.3058 126.277C49.3058 125.803 50.4038 125.824 50.5728 126.302C50.6458 126.511 51.9908 127.726 53.5618 129.002C55.1318 130.279 57.9868 132.674 59.9048 134.324C64.4568 138.239 64.7778 138.459 65.5338 138.169C66.0088 137.986 65.3208 137.218 62.8388 135.162C61.0058 133.643 57.2628 130.539 54.5218 128.264C51.1528 125.468 49.7588 124.086 50.2208 123.997C50.6198 123.92 52.5428 125.248 54.8538 127.195C57.0278 129.026 60.3718 131.784 62.2848 133.324C64.1988 134.864 66.1558 136.457 66.6348 136.864C67.1138 137.271 68.2758 137.969 69.2178 138.414C70.1598 138.859 71.1498 139.535 71.4178 139.916C71.6858 140.297 72.3558 140.736 72.9058 140.892L73.9058 141.174L73.0608 140.449C72.2628 139.764 67.0028 135.485 65.7058 134.466C65.3758 134.206 63.2768 132.493 61.0418 130.659C58.8068 128.825 56.4248 126.901 55.7488 126.384C55.0728 125.868 53.7518 124.75 52.8128 123.901C50.2148 121.551 51.9208 121.966 54.9608 124.424C56.3898 125.579 60.7658 129.134 64.6858 132.324C68.6048 135.514 72.3938 138.574 73.1058 139.124C73.8178 139.674 76.3778 141.744 78.7958 143.724C81.2138 145.704 86.9528 150.375 91.5488 154.104C96.1458 157.832 102.575 163.052 105.837 165.704C118.554 176.04 118.552 176.038 119.054 175.536C120.232 174.358 119.664 172.733 117.404 170.813C116.181 169.774 114.898 168.609 114.554 168.224C114.21 167.839 113.698 167.524 113.417 167.524C113.136 167.524 112.906 167.379 112.906 167.201C112.906 167.023 112.19 166.348 111.315 165.701C110.441 165.054 109.721 164.293 109.715 164.011C109.71 163.73 109.391 163.379 109.006 163.232C108.621 163.085 108.126 162.82 107.906 162.644C106.313 161.37 103.221 159.625 101.805 159.201C100.872 158.922 99.7038 158.285 99.2078 157.787C98.7118 157.288 97.4958 156.351 96.5058 155.703C95.5158 155.056 94.6158 154.435 94.5058 154.323C94.0518 153.861 91.3438 151.924 91.1518 151.924C90.1378 151.924 83.9978 146.847 84.2168 146.19C84.3838 145.69 81.9438 143.124 81.3018 143.124C81.0878 143.124 80.6878 142.764 80.4128 142.324C80.1378 141.884 79.7598 141.524 79.5728 141.524C79.1208 141.524 77.3268 140.121 75.0518 137.987C73.6218 136.646 72.9718 136.294 72.2008 136.442C70.9338 136.684 67.8498 134.541 67.4558 133.143C67.1828 132.177 65.8128 130.722 63.5558 129.001C62.9228 128.519 61.4828 127.21 60.3558 126.094C59.2278 124.977 57.9908 123.948 57.6058 123.806C57.0878 123.616 56.9058 123.103 56.9058 121.829C56.9058 118.655 54.1468 115.924 50.9388 115.924C50.2828 115.924 49.6018 115.68 49.4258 115.382C48.9338 114.55 47.5248 113.942 46.6298 114.176C46.0898 114.317 45.3788 113.98 44.4758 113.155C43.7338 112.478 42.7448 111.924 42.2778 111.924C41.8108 111.924 41.0128 111.564 40.5058 111.124C39.9988 110.684 39.0988 110.324 38.5068 110.324C37.9148 110.324 37.1038 109.964 36.7058 109.524C35.8468 108.575 31.7728 108.4 30.1058 109.24ZM2.37281 124.191C2.22581 124.337 2.10581 125.497 2.10581 126.767C2.10581 128.037 1.9418 129.178 1.7408 129.302C1.5398 129.427 1.2568 130.292 1.1118 131.226C0.965804 132.16 0.758806 133.239 0.649806 133.624C0.521806 134.077 0.672807 134.324 1.07881 134.324C1.42381 134.324 1.70581 134.475 1.70581 134.66C1.70581 134.845 2.7408 135.225 4.0058 135.505C5.2708 135.784 6.48581 136.142 6.70581 136.298C7.30081 136.723 10.2728 137.524 11.2518 137.524C11.7218 137.524 12.1058 137.684 12.1058 137.879C12.1058 138.075 12.7808 138.361 13.6058 138.515C14.4308 138.669 15.2858 138.94 15.5058 139.116C15.7258 139.293 16.9378 139.649 18.1988 139.908C19.4598 140.166 20.5878 140.533 20.7048 140.723C21.0078 141.213 25.0868 141.666 26.3478 141.349C27.3378 141.101 27.3928 140.967 27.2228 139.2L27.0418 137.316L28.5738 137.462C29.4168 137.542 30.1058 137.749 30.1058 137.921C30.1058 138.094 30.7808 138.361 31.6058 138.515C32.4308 138.669 33.2858 138.931 33.5058 139.098C33.7258 139.264 35.4818 139.626 37.4078 139.904C39.3338 140.181 41.0098 140.569 41.1318 140.766C41.4738 141.319 43.7068 141.196 43.6988 140.624C43.6908 140.071 41.9918 138.328 41.4498 138.317C41.2608 138.313 40.7018 137.884 40.2078 137.363C39.7138 136.842 37.3738 135.45 35.0078 134.27C32.6418 133.09 30.6458 131.989 30.5728 131.824C30.4988 131.659 30.2618 131.524 30.0438 131.524C29.8268 131.524 27.8118 130.629 25.5658 129.534C20.3198 126.979 18.3338 127.169 18.5748 130.202C18.6498 131.149 18.6748 131.924 18.6298 131.924C18.5848 131.924 17.7268 131.487 16.7238 130.954C15.7198 130.42 14.2258 129.764 13.4028 129.496C12.5798 129.228 11.8158 128.897 11.7058 128.761C11.5958 128.625 9.7528 127.647 7.6098 126.587C5.4668 125.527 3.6108 124.495 3.4858 124.292C3.2188 123.859 2.74681 123.816 2.37281 124.191ZM74.5148 142.228C74.5278 143.223 75.4748 144.239 79.1058 147.155C80.8658 148.568 82.3958 149.838 82.5058 149.976C82.6158 150.115 84.6858 151.804 87.1058 153.73C89.5258 155.656 91.5958 157.348 91.7058 157.491C91.8778 157.713 96.7468 161.72 99.0368 163.524C99.4558 163.854 101.184 165.294 102.878 166.724C104.571 168.154 107.532 170.584 109.457 172.124C111.382 173.664 113.693 175.517 114.591 176.242C116.121 177.476 117.534 177.809 117.484 176.923C117.471 176.708 115.851 175.213 113.884 173.6C109.703 170.174 98.9138 161.406 91.9768 155.797C89.3048 153.636 87.0258 151.738 86.9128 151.577C86.7988 151.417 86.0758 150.853 85.3058 150.324C84.5358 149.795 83.8158 149.241 83.7058 149.092C83.5958 148.943 81.7958 147.443 79.7058 145.758C77.6158 144.073 75.5908 142.433 75.2058 142.113C74.5848 141.597 74.5068 141.61 74.5148 142.228ZM74.1058 145.891C74.1058 146.312 74.2768 146.717 74.4848 146.791C74.8668 146.925 76.3238 148.118 81.4898 152.527C83.0388 153.848 85.2958 155.735 86.5058 156.719C87.7158 157.703 89.1558 158.905 89.7058 159.39C90.2558 159.874 94.3958 163.379 98.9058 167.179C103.416 170.978 108.636 175.4 110.505 177.005C113.75 179.791 114.963 180.403 115.504 179.527C115.9 178.886 115.267 178.123 112.459 175.859C107.047 171.494 97.4878 163.652 94.9388 161.486C93.4908 160.255 89.8758 157.305 86.9058 154.93C83.9358 152.555 81.2358 150.37 80.9058 150.074C76.0988 145.763 74.1058 144.537 74.1058 145.891ZM114.096 149.35C113.573 150.725 113.512 150.607 115.206 151.488C117.621 152.745 120.685 155.704 123.015 159.029C124.208 160.731 125.659 162.574 126.238 163.124C126.818 163.674 127.295 164.313 127.299 164.545C127.311 165.273 133.815 171.676 135.906 173.019C137.006 173.725 138.086 174.452 138.306 174.634C138.526 174.817 139.606 175.198 140.706 175.482C141.806 175.766 143.066 176.144 143.506 176.322C143.946 176.5 145.386 177.051 146.706 177.547C148.026 178.042 149.861 178.78 150.784 179.186C152.779 180.063 153.846 180.12 154.459 179.381C154.959 178.778 153.661 176.726 152.777 176.722C152.518 176.72 151.828 176.47 151.245 176.165C150.661 175.861 149.491 175.388 148.645 175.116C147.798 174.843 146.926 174.492 146.706 174.335C146.486 174.179 144.956 173.647 143.306 173.153C139.425 171.992 139.183 171.873 136.11 169.598C133.537 167.692 132.356 166.388 128.106 160.758C126.896 159.155 125.591 157.551 125.206 157.195C124.821 156.838 124.506 156.316 124.506 156.035C124.506 155.754 124.322 155.524 124.097 155.524C123.873 155.524 123.487 155.08 123.24 154.538C122.852 153.687 120.451 151.475 117.256 149.024C115.902 147.985 114.563 148.123 114.096 149.35ZM76.6388 152.326C76.6758 153.861 76.7958 155.119 76.9058 155.123C77.0158 155.127 77.5338 155.758 78.0578 156.527C78.5808 157.295 79.2558 157.924 79.5578 157.924C79.8588 157.924 80.1058 158.194 80.1058 158.524C80.1058 158.854 80.2608 159.124 80.4488 159.124C80.6378 159.124 81.7428 160.007 82.9048 161.086C84.0658 162.165 85.4808 163.29 86.0488 163.586C87.2508 164.212 87.5118 164.425 90.7058 167.38C92.0258 168.602 94.0928 170.349 95.2998 171.262C96.5058 172.176 97.9848 173.419 98.5858 174.024C99.1868 174.629 99.8328 175.124 100.02 175.124C100.208 175.124 100.753 175.574 101.231 176.124C101.709 176.674 102.372 177.124 102.703 177.124C103.035 177.124 103.306 177.267 103.306 177.442C103.306 177.801 106.891 180.614 107.506 180.738C107.726 180.782 108.66 181.359 109.581 182.021C111.456 183.368 113.055 183.327 113.422 181.922C113.695 180.881 112.554 179.861 89.5058 160.556C86.9658 158.428 81.3118 153.623 78.8388 151.491L76.5728 149.536L76.6388 152.326Z" fill="#DB1047"/>
<path fill-rule="evenodd" clip-rule="evenodd" d="M159.406 40.2146C160.231 40.3016 161.581 40.3016 162.406 40.2146C163.231 40.1286 162.556 40.0576 160.906 40.0576C159.256 40.0576 158.581 40.1286 159.406 40.2146ZM140.411 43.8066C140.908 43.9026 141.628 43.8986 142.011 43.7986C142.393 43.6986 141.986 43.6196 141.106 43.6246C140.226 43.6286 139.913 43.7106 140.411 43.8066ZM146.306 44.3236C146.746 44.5126 147.466 44.6616 147.906 44.6556C148.549 44.6466 148.51 44.5806 147.706 44.3236C146.338 43.8856 145.287 43.8856 146.306 44.3236ZM130.335 50.9526C130.187 51.5386 130.144 52.0956 130.238 52.1896C130.333 52.2836 130.53 51.8816 130.677 51.2946C130.825 50.7086 130.868 50.1516 130.774 50.0576C130.679 49.9636 130.482 50.3656 130.335 50.9526ZM133.27 63.8566C133.486 64.2596 133.977 64.8446 134.361 65.1566C134.793 65.5076 134.696 65.2276 134.107 64.4236C133.057 62.9886 132.663 62.7216 133.27 63.8566ZM136.23 83.7236C136.232 85.0436 136.307 85.5356 136.396 84.8166C136.485 84.0976 136.483 83.0176 136.392 82.4166C136.301 81.8156 136.228 82.4036 136.23 83.7236ZM168.806 85.0056C169.301 85.1016 170.111 85.1016 170.606 85.0056C171.101 84.9106 170.696 84.8326 169.706 84.8326C168.716 84.8326 168.311 84.9106 168.806 85.0056ZM37.4515 105.322C37.3245 105.65 37.0325 105.802 36.8005 105.659C36.5305 105.492 36.4645 105.724 36.6165 106.304C36.7465 106.802 36.6965 107.623 36.5045 108.127C36.2405 108.822 36.3365 109.209 36.9005 109.72C37.9625 110.68 39.0795 110.346 39.2325 109.021C39.3045 108.394 39.6045 107.924 39.9325 107.924C40.7705 107.924 40.6315 106.45 39.7055 105.524C38.7585 104.577 37.7705 104.488 37.4515 105.322ZM41.4055 106.922C41.1305 107.235 40.9055 108.043 40.9055 108.72C40.9055 109.451 40.6595 110.044 40.2975 110.183C39.7925 110.376 39.8365 110.544 40.5585 111.17C41.8595 112.298 43.0185 112.131 43.6415 110.724C44.4905 108.805 45.1685 109.306 44.9195 111.667C44.7815 112.974 45.3005 114.324 45.9415 114.324C46.6535 114.324 47.7055 113.387 47.7055 112.753C47.7055 112.517 48.1675 112.324 48.7325 112.324C49.6935 112.324 49.7515 112.432 49.6325 114.024C49.4915 115.909 51.0055 116.682 52.3005 115.386C52.6255 115.061 53.0945 114.728 53.3445 114.644C54.4615 114.272 54.0515 112.371 52.6795 111.562C51.9085 111.107 51.2275 110.927 51.0935 111.144C50.6835 111.806 49.7055 111.554 49.7055 110.786C49.7055 109.894 48.4965 108.724 47.5745 108.724C47.2065 108.724 46.9055 108.544 46.9055 108.324C46.9055 107.805 45.4135 107.801 45.2385 108.32C45.1655 108.537 44.5305 108.177 43.8275 107.52C42.3935 106.179 42.1195 106.111 41.4055 106.922ZM52.8125 123.901C53.7515 124.75 55.0725 125.868 55.7485 126.384C56.4245 126.901 58.8065 128.825 61.0415 130.659C63.2765 132.493 65.3755 134.206 65.7055 134.466C69.7625 137.655 72.1905 139.67 73.2375 140.718C73.9345 141.415 74.5055 141.883 74.5055 141.759C74.5055 141.634 74.8205 141.793 75.2055 142.113C75.5905 142.433 77.6155 144.073 79.7055 145.758C81.7955 147.443 83.5955 148.943 83.7055 149.092C83.8155 149.241 84.5355 149.795 85.3055 150.324C86.0755 150.853 86.7985 151.417 86.9125 151.577C87.0255 151.738 89.3045 153.636 91.9765 155.797C98.9135 161.406 109.703 170.174 113.884 173.6C115.851 175.213 117.436 176.711 117.405 176.928C117.283 177.777 116.152 177.502 114.591 176.242C113.693 175.517 111.382 173.664 109.457 172.124C107.532 170.584 104.571 168.154 102.878 166.724C101.184 165.294 99.4555 163.854 99.0365 163.524C96.7465 161.72 91.8775 157.713 91.7055 157.491C91.5955 157.348 89.5255 155.656 87.1055 153.73C84.6855 151.804 82.6155 150.115 82.5055 149.976C82.3955 149.838 80.8655 148.568 79.1055 147.155C77.3455 145.741 75.6165 144.232 75.2625 143.8C74.6335 143.032 74.6155 143.038 74.4185 144.069C74.3075 144.649 74.3845 145.124 74.5905 145.124C74.9035 145.124 78.7365 148.129 80.9055 150.074C81.2355 150.37 83.9355 152.555 86.9055 154.93C89.8755 157.305 93.4905 160.255 94.9385 161.486C97.4875 163.652 107.047 171.494 112.459 175.859C115.267 178.123 115.9 178.886 115.504 179.527C114.963 180.403 113.75 179.791 110.505 177.005C108.636 175.4 103.416 170.978 98.9055 167.179C94.3955 163.379 90.2555 159.874 89.7055 159.39C89.1555 158.905 87.7155 157.703 86.5055 156.719C85.2955 155.735 83.0385 153.848 81.4895 152.527C77.5685 149.18 74.9815 147.021 74.5725 146.752C74.3815 146.627 74.1405 146.259 74.0355 145.934C73.9025 145.522 73.7745 145.616 73.6095 146.247C73.4305 146.934 73.6285 147.312 74.4395 147.825C75.0255 148.197 76.3155 149.251 77.3055 150.169C78.2955 151.086 80.2755 152.789 81.7055 153.951C83.1355 155.114 85.0305 156.709 85.9165 157.495C86.8035 158.281 88.3335 159.593 89.3165 160.41C109.569 177.237 113.687 180.912 113.422 181.922C113.048 183.356 111.455 183.366 109.481 181.949C108.505 181.248 107.683 180.73 107.655 180.799C107.627 180.868 107.56 181.284 107.506 181.724C107.264 183.708 106.429 185.924 105.924 185.924C105.621 185.924 105.297 186.149 105.204 186.424C105.009 186.999 98.1175 186.971 97.7315 186.394C97.0255 185.336 92.7225 184.765 91.2795 185.538C88.7395 186.897 91.8805 193.939 95.9695 196.054C96.6265 196.393 97.3975 196.953 97.6835 197.298C97.9695 197.642 98.5415 197.924 98.9545 197.924C99.3675 197.924 99.7055 198.104 99.7055 198.324C99.7055 198.544 99.9335 198.724 100.212 198.724C100.49 198.724 101.404 199.092 102.243 199.541C103.097 199.999 104.101 200.253 104.526 200.118C107.489 199.177 113.713 206.284 118.368 215.924C123.772 227.116 124.521 228.307 126.924 229.533C127.74 229.949 128.514 230.568 128.644 230.907C128.774 231.246 129.187 231.524 129.56 231.524C129.934 231.524 130.113 231.65 129.958 231.805C128.698 233.065 140.652 233.15 142.928 231.897C143.466 231.601 144.716 231.057 145.706 230.689C154.079 227.571 157.593 225.125 162.608 218.924C163.648 217.638 166.906 212.167 166.906 211.707C166.906 211.554 167.45 210.81 168.115 210.053C168.78 209.296 169.231 208.526 169.117 208.342C169.004 208.158 169.163 207.911 169.471 207.793C169.779 207.675 170.149 207.041 170.293 206.384C170.437 205.728 170.814 205.091 171.13 204.97C171.456 204.845 171.706 204.222 171.706 203.537C171.706 202.87 171.861 202.324 172.051 202.324C172.241 202.324 172.632 201.199 172.919 199.824C173.206 198.449 173.572 197.234 173.733 197.124C173.893 197.014 174.157 195.863 174.319 194.567L174.612 192.211L173.549 192.478C172.963 192.624 171.511 193.19 170.321 193.734C169.131 194.279 168.046 194.724 167.91 194.724C167.774 194.724 166.907 195.068 165.984 195.488C165.061 195.908 163.629 196.378 162.802 196.533C161.974 196.688 161.208 196.959 161.099 197.135C160.991 197.31 160.153 197.581 159.238 197.735C158.323 197.89 156.417 198.536 155.003 199.17C153.589 199.805 152.242 200.324 152.01 200.324C151.778 200.324 150.67 200.933 149.547 201.677C143.306 205.813 136.632 207.648 134.581 205.792C134.166 205.417 133.183 205.124 132.335 205.124C130.823 205.124 128.506 203.341 128.506 202.178C128.506 201.924 128.146 201.492 127.706 201.217C126.734 200.61 126.653 198.906 127.571 198.392C128.158 198.063 128.131 197.986 127.348 197.737C126.36 197.424 125.544 195.729 125.912 194.755C126.956 191.989 129.505 190.47 129.99 192.324C130.43 194.006 134.538 192.37 134.497 190.528C134.492 190.306 134.166 190.543 133.772 191.055C132.759 192.372 130.369 192.173 130.169 190.756C129.626 186.912 134.915 183.866 138.292 186.078C138.889 186.469 140.121 186.724 141.415 186.724C142.676 186.724 143.872 186.965 144.33 187.311C145.477 188.18 146.128 188.056 147.961 186.62C148.872 185.907 150.017 185.054 150.506 184.724C157.914 179.73 159.746 177.072 156.702 175.734C155.714 175.3 154.906 174.826 154.906 174.682C154.906 174.329 151.639 173.524 150.209 173.524C149.58 173.524 148.895 173.37 148.686 173.182C148.477 172.994 147.046 172.431 145.506 171.931C140.38 170.268 137.283 168.546 134.006 165.537C133.401 164.981 132.906 164.391 132.906 164.225C132.906 164.06 132.591 163.582 132.206 163.164C131.821 162.747 131.056 161.746 130.506 160.941C129.956 160.135 129.281 159.23 129.006 158.929C128.731 158.628 128.506 158.188 128.506 157.953C128.506 157.717 128.355 157.524 128.17 157.524C127.986 157.524 127.609 157.029 127.334 156.424C127.058 155.819 126.584 155.054 126.279 154.724C123.428 151.636 122.506 150.545 122.506 150.259C122.506 150.075 122.265 149.924 121.97 149.924C121.676 149.924 121.229 149.474 120.979 148.924C120.728 148.374 120.277 147.924 119.977 147.924C119.676 147.924 119.104 147.564 118.706 147.124C118.308 146.684 117.762 146.324 117.493 146.324C117.224 146.324 116.744 145.933 116.426 145.455C115.968 144.764 115.354 144.55 113.431 144.411C108.89 144.082 108.591 146.677 112.366 153.641C113.325 155.411 113.717 157.157 113.32 157.898C113.122 158.268 112.904 159.597 112.835 160.852C112.748 162.449 112.563 163.078 112.221 162.947C111.952 162.843 111.625 162.931 111.495 163.141C111.365 163.352 110.909 163.524 110.482 163.524C109.248 163.524 109.593 164.426 111.315 165.701C112.19 166.348 112.906 167.023 112.906 167.201C112.906 167.379 113.136 167.524 113.417 167.524C113.698 167.524 114.21 167.839 114.554 168.224C114.898 168.609 116.181 169.774 117.404 170.813C119.664 172.733 120.232 174.358 119.054 175.536C118.552 176.038 118.554 176.04 105.837 165.704C102.575 163.052 96.1455 157.832 91.5485 154.104C86.9525 150.375 81.2135 145.704 78.7955 143.724C76.3775 141.744 73.8175 139.674 73.1055 139.124C72.3935 138.574 68.6045 135.514 64.6855 132.324C60.7655 129.134 56.3895 125.579 54.9605 124.424C51.9205 121.966 50.2145 121.551 52.8125 123.901ZM51.3055 125.561C52.2955 126.443 54.8155 128.55 56.9055 130.244C58.9955 131.938 61.9255 134.358 63.4155 135.624C64.9475 136.924 66.5125 137.924 67.0155 137.924C68.0495 137.923 68.2895 138.157 62.2845 133.324C60.3715 131.784 57.0425 129.039 54.8885 127.224C50.8775 123.846 47.7495 122.394 51.3055 125.561ZM49.3055 126.302C49.3055 126.51 50.2325 127.455 51.3665 128.402C52.4995 129.349 54.1645 130.764 55.0665 131.545C61.5575 137.172 64.1205 139.162 64.5415 138.902C64.8755 138.695 64.7785 138.421 64.2115 137.967C63.7705 137.613 61.8365 135.974 59.9135 134.324C57.9905 132.674 55.1315 130.279 53.5615 129.002C51.9905 127.726 50.6455 126.511 50.5725 126.302C50.3985 125.81 49.3055 125.809 49.3055 126.302ZM68.9055 138.924C68.9055 139.269 69.2665 139.524 69.7545 139.524C70.4635 139.524 70.5215 139.425 70.1055 138.924C69.8315 138.594 69.4495 138.324 69.2565 138.324C69.0635 138.324 68.9055 138.594 68.9055 138.924ZM117.256 149.024C120.451 151.475 122.852 153.687 123.24 154.538C123.487 155.08 123.873 155.524 124.097 155.524C124.322 155.524 124.506 155.754 124.506 156.035C124.506 156.316 124.821 156.838 125.206 157.195C125.591 157.551 126.896 159.155 128.106 160.758C134.537 169.277 136.964 171.256 143.306 173.153C144.956 173.647 146.486 174.179 146.706 174.335C146.926 174.492 147.798 174.843 148.645 175.116C149.491 175.388 150.661 175.861 151.245 176.165C151.828 176.47 152.518 176.72 152.777 176.722C153.661 176.726 154.959 178.778 154.459 179.381C153.846 180.12 152.779 180.063 150.784 179.186C149.861 178.78 148.026 178.042 146.706 177.547C145.386 177.051 143.946 176.5 143.506 176.322C143.066 176.144 141.806 175.766 140.706 175.482C139.606 175.198 138.526 174.817 138.306 174.634C138.086 174.452 137.006 173.725 135.906 173.019C133.815 171.676 127.311 165.273 127.299 164.545C127.295 164.313 126.818 163.674 126.238 163.124C125.659 162.574 124.208 160.731 123.015 159.029C120.685 155.704 117.621 152.745 115.206 151.488C113.512 150.607 113.573 150.725 114.096 149.35C114.563 148.123 115.902 147.985 117.256 149.024ZM129.306 198.314C129.306 198.538 129.859 198.599 130.606 198.457C132.429 198.11 132.487 197.924 130.773 197.924C129.966 197.924 129.306 198.1 129.306 198.314Z" fill="#CB3D45"/>
<path fill-rule="evenodd" clip-rule="evenodd" d="M148.105 57.1354C146.908 57.7834 146.455 57.8294 144.987 57.4554C142.935 56.9314 141.637 57.8274 140.889 60.2824C140.647 61.0744 140.252 62.1284 140.01 62.6224C139.453 63.7624 139.383 63.7144 142.705 64.4394C144.245 64.7754 146.225 65.2454 147.105 65.4844C148.003 65.7284 149.854 65.8134 151.323 65.6774C153.979 65.4324 159.17 66.0234 160.42 66.7134C160.797 66.9214 161.96 67.2564 163.005 67.4584L164.905 67.8264V65.9944C164.905 64.5244 164.677 63.9204 163.754 62.9424C163.121 62.2724 162.432 61.1834 162.223 60.5234C161.996 59.8044 161.159 58.8614 160.136 58.1714L158.428 57.0194L156.912 57.8714C154.828 59.0424 153.337 58.9494 151.368 57.5234C150.457 56.8634 149.665 56.3354 149.608 56.3504C149.552 56.3654 148.875 56.7184 148.105 57.1354ZM146.737 61.2244C147.165 62.5724 145.997 63.3394 143.749 63.1854C141.626 63.0404 140.984 62.3654 141.481 60.7994C142.062 58.9694 146.126 59.2984 146.737 61.2244ZM169.375 69.2494C168.896 69.7584 168.505 70.4784 168.505 70.8494C168.505 71.2204 168.357 71.5234 168.176 71.5234C167.995 71.5234 167.621 72.8284 167.345 74.4234C167.069 76.0184 166.749 77.8024 166.634 78.3874C166.337 79.8954 167.724 80.6484 169.011 79.6774C172.552 77.0064 174.113 70.9954 171.761 69.0894C170.564 68.1184 170.428 68.1274 169.375 69.2494ZM160.588 72.4424C159.047 75.5284 157.527 76.3624 154.345 75.8674C151.045 75.3534 150.573 75.1674 150.286 74.2644C150.044 73.5014 149.902 73.6104 148.992 75.2654C148.43 76.2874 147.72 77.1234 147.414 77.1234C147.108 77.1234 146.969 77.3034 147.105 77.5234C147.241 77.7434 147.749 77.9234 148.234 77.9234C149.961 77.9234 153.228 79.4424 155.888 81.4814C160.262 84.8334 163.028 82.2914 165.073 73.0394C165.619 70.5664 161.781 70.0554 160.588 72.4424ZM171.705 73.2444C171.705 74.5394 169.788 77.1994 168.975 77.0344C167.916 76.8194 168.133 73.7714 169.295 72.5344C170.383 71.3764 171.705 71.7654 171.705 73.2444ZM139.805 74.4804C141.598 75.8414 140.259 79.0534 138.352 77.9664C137.663 77.5744 137.685 77.6404 138.471 78.3214C139.064 78.8354 139.682 79.0504 140.071 78.8794C140.42 78.7264 141.543 78.3024 142.567 77.9364C144.059 77.4044 144.305 77.1934 143.804 76.8774C143.434 76.6434 143.194 75.9614 143.215 75.2034L143.251 73.9234L141.178 73.9364C139.368 73.9474 139.194 74.0164 139.805 74.4804ZM143.034 81.4014C139.852 82.0214 140.897 87.2964 144.525 88.9324C146.901 90.0034 151.351 89.0504 152.792 87.1624C155.161 84.0574 148.771 80.2854 143.034 81.4014ZM147.898 82.3204C150.884 82.8094 152.886 84.5684 152.192 86.0924C151.672 87.2334 147.375 88.9284 145.926 88.5644C143.601 87.9804 140.19 83.1234 142.105 83.1234C142.325 83.1234 142.484 82.9884 142.458 82.8234C142.432 82.6584 142.432 82.3884 142.458 82.2234C142.523 81.8074 145.043 81.8524 147.898 82.3204ZM166.328 88.4124C165.946 88.9584 165.705 90.1594 165.705 91.5234C165.705 94.2354 164.979 95.3984 163.062 95.7584C162.276 95.9054 161.55 96.3144 161.437 96.6744C160.748 98.8644 159.106 100.323 157.33 100.323C156.862 100.323 155.851 100.95 155.084 101.717C153.214 103.587 152.085 103.823 150.296 102.718C149.508 102.23 148.827 101.897 148.784 101.977C148.001 103.421 147.594 103.808 146.369 104.274C144.652 104.928 143.456 104.56 141.295 102.713C139.436 101.124 139.026 101.21 140.327 102.917C142.223 105.403 144.382 106.347 149.647 106.996C151.404 107.212 157.705 105.742 157.705 105.116C157.705 104.953 158.29 104.58 159.005 104.286C160.762 103.565 166.505 98.4134 166.505 97.5584C166.505 97.3874 166.858 96.9274 167.29 96.5364C168.029 95.8684 168.038 95.7534 167.438 94.5944C166.953 93.6564 166.854 92.6684 167.022 90.4434C167.266 87.2274 167.23 87.1234 166.328 88.4124ZM130.639 92.8384C130.382 93.1054 129.122 94.3234 127.839 95.5454C126.387 96.9284 125.076 98.6664 124.369 100.145C123.745 101.453 123.07 102.836 122.869 103.218C122.669 103.6 122.505 104.185 122.505 104.518C122.505 104.851 122.35 105.123 122.161 105.123C121.593 105.123 121.291 110.06 121.834 110.448C122.191 110.703 122.184 110.833 121.805 110.987C121.155 111.251 121.155 112.323 121.806 112.323C122.626 112.323 125.054 107.2 125.503 104.523C125.76 102.988 126.222 101.745 127.648 98.7404C128.009 97.9794 129.115 96.5574 130.105 95.5794C131.095 94.6024 131.925 93.4694 131.95 93.0624C132.002 92.2264 131.337 92.1124 130.639 92.8384ZM171.705 98.6974C171.705 98.9004 171.957 99.3184 172.266 99.6264C172.574 99.9354 173.328 101.163 173.941 102.355C175.464 105.319 178.047 109.123 178.537 109.123C179.031 109.123 179.52 109.522 182.529 112.381C183.836 113.623 184.905 114.798 184.905 114.992C184.905 115.186 185.22 115.639 185.605 115.997C188.524 118.718 194.105 129.877 194.105 132.994C194.105 134.03 195.021 136.323 195.435 136.323C195.639 136.323 195.693 135.764 195.557 135.081C195.36 134.099 195.429 133.885 195.886 134.06C196.268 134.207 196.39 134.09 196.247 133.715C196.127 133.403 195.832 133.188 195.591 133.236C195.35 133.284 195.084 133.008 194.999 132.623C194.904 132.188 195.085 131.923 195.476 131.923C196.179 131.923 196.295 131.069 195.735 130.018C195.531 129.636 195.167 127.544 194.925 125.37C194.566 122.133 194.306 121.203 193.496 120.239C192.951 119.591 192.505 118.85 192.505 118.592C192.504 117.308 189.701 112.271 187.348 109.324C185.975 107.605 178.416 101.923 177.501 101.923C177.398 101.923 176.051 101.114 174.509 100.126C172.967 99.1374 171.705 98.4944 171.705 98.6974ZM118.905 119.902C118.905 120.097 119.11 120.325 119.359 120.408C120.221 120.695 118.811 122.342 117.911 122.101C117.178 121.904 117.169 121.925 117.813 122.328C118.203 122.573 118.413 122.949 118.279 123.165C118.145 123.381 118.232 123.794 118.472 124.083C118.931 124.636 118.628 127.123 118.102 127.123C117.935 127.123 117.698 127.438 117.576 127.823C117.454 128.208 117.089 128.973 116.765 129.523C116.441 130.073 115.733 131.513 115.192 132.723C113.185 137.214 112.353 138.928 112.086 139.123C111.936 139.233 111.691 139.714 111.542 140.192C110.858 142.384 105.672 145.427 104.374 144.398C103.86 143.99 94.8474 144.666 94.5054 145.138C94.3954 145.29 93.2704 145.542 92.0054 145.698C90.7404 145.853 89.7054 146.13 89.7054 146.312C89.7054 146.494 88.9864 146.616 88.1074 146.583C87.2294 146.55 86.5094 146.388 86.5074 146.223C86.5064 146.058 86.0554 145.923 85.5054 145.923C83.3474 145.923 84.4634 146.923 93.4544 153.047C97.6004 155.871 98.2774 156.208 98.7834 155.702C99.1014 155.384 99.7544 155.111 100.234 155.096C100.713 155.081 101.645 154.997 102.305 154.91C102.965 154.822 105.011 154.582 106.852 154.376C111.333 153.874 111.649 153.524 110.328 150.536C107.793 144.805 109.784 142.663 116.053 144.373C116.436 144.478 116.814 143.68 117.306 141.723C117.694 140.183 118.216 138.113 118.465 137.123C118.715 136.133 119.001 134.982 119.101 134.564C120.105 130.358 121.703 127.939 122.892 128.827C123.402 129.207 123.421 129.19 123.005 128.724C122.73 128.415 122.505 127.544 122.505 126.787C122.505 125.959 122.028 124.636 121.305 123.461C120.645 122.389 120.105 121.173 120.105 120.76C120.105 120.347 119.835 119.905 119.505 119.778C119.175 119.652 118.905 119.707 118.905 119.902ZM139.293 124.937C138.591 125.784 139.276 139.086 140.075 140.112C140.251 140.338 140.512 141.013 140.655 141.611C141.006 143.083 142.239 143.732 143.081 142.89C143.428 142.543 143.615 142.1 143.495 141.907C143.376 141.714 143.097 140.333 142.876 138.839C142.655 137.345 142.316 135.133 142.123 133.923C141.93 132.713 141.757 130.274 141.739 128.503C141.698 124.634 140.724 123.213 139.293 124.937ZM167.133 127.195C167.022 127.705 166.846 129.203 166.741 130.523C166.637 131.843 166.507 133.373 166.454 133.923C166.243 136.072 166.93 139.923 167.525 139.923C167.872 139.923 168.105 139.534 168.105 138.956C168.105 138.425 168.262 137.93 168.453 137.856C169.007 137.644 168.396 126.617 167.82 126.427C167.553 126.338 167.244 126.684 167.133 127.195ZM68.3034 131.126C68.1664 131.348 68.3234 131.798 68.6514 132.126C69.4114 132.886 69.7054 132.881 69.7054 132.11C69.7054 131.773 70.1104 131.334 70.6054 131.135C71.3904 130.82 71.3164 130.77 70.0294 130.748C69.2174 130.734 68.4404 130.904 68.3034 131.126ZM67.7054 132.848C67.7054 133.402 70.0414 135.32 70.3464 135.015C70.7514 134.611 69.9974 133.59 69.4484 133.8C69.0704 133.945 68.7774 133.721 68.6344 133.175C68.3914 132.245 67.7054 132.003 67.7054 132.848ZM64.1054 139.246C61.2434 140.331 59.7344 142.752 61.3124 143.727C61.5354 143.865 61.5974 144.174 61.4504 144.412C61.2904 144.672 61.3684 144.732 61.6434 144.561C61.9254 144.387 62.1164 144.558 62.1334 144.999C62.1574 145.605 62.2054 145.621 62.4334 145.098C62.7014 144.483 65.4624 141.091 67.1874 139.259L68.0694 138.323L67.1874 138.368C66.7024 138.392 65.3154 138.788 64.1054 139.246ZM68.8994 140.109C68.8964 140.337 68.1564 141.333 67.2554 142.323C64.9104 144.899 64.2074 146.024 64.8134 146.226C65.0844 146.316 65.3054 146.688 65.3054 147.053C65.3054 147.418 66.0374 146.596 66.9324 145.227C67.8264 143.858 69.1674 142.235 69.9124 141.622C70.6564 141.008 71.1394 140.319 70.9854 140.09C70.6234 139.552 68.9074 139.567 68.8994 140.109ZM71.8114 141.762C72.0174 141.968 70.4754 144.073 67.6624 147.426C66.6214 148.668 66.7864 150.641 67.9504 150.857C68.1454 150.893 68.2604 151.058 68.2054 151.223C68.1504 151.388 68.8094 151.523 69.6704 151.523C71.1774 151.523 71.2444 151.58 71.4984 153.084C71.7864 154.784 72.3704 155.128 74.9054 155.092C76.1444 155.075 76.2014 155.031 75.4054 154.711C74.4954 154.345 74.3954 153.818 74.3284 149.023C74.3124 147.889 73.9524 147.6 73.4884 148.35C73.3434 148.585 72.9874 148.687 72.6984 148.576C72.4084 148.464 72.0764 148.622 71.9604 148.925C71.4864 150.159 69.7214 150.911 68.9984 150.187C68.3854 149.574 68.4404 149.421 69.7744 148.025C72.0384 145.657 73.5784 141.523 72.1964 141.523C71.8534 141.523 71.6794 141.631 71.8114 141.762ZM193.649 142.128C191.359 143.373 176.289 144 171.105 143.067C170.222 142.908 170.097 145.027 170.864 147.123C171.066 147.673 171.722 149.743 172.322 151.723C172.922 153.703 173.57 155.522 173.761 155.766C176.887 159.752 176.047 165.141 171.961 167.314C169.329 168.713 165.353 171.934 162.169 175.246C160.901 176.565 160.089 177.107 159.581 176.975C159.053 176.836 158.906 176.949 159.068 177.371C159.394 178.221 156.697 180.771 151.305 184.713C150.095 185.597 148.571 186.771 147.919 187.322C146.7 188.351 144.975 188.633 144.263 187.921C144.041 187.699 142.87 187.452 141.66 187.371C140.45 187.29 138.856 186.911 138.117 186.529C134.95 184.892 131.941 185.984 130.896 189.15C129.978 191.932 131.934 192.877 133.505 190.41C134.471 188.893 134.905 188.795 134.905 190.092C134.905 192.833 130.217 195.125 129.582 192.695C129.086 190.799 126.505 192.993 126.505 195.31C126.505 196.949 126.794 197.212 127.851 196.533C129.188 195.676 134.645 195.549 134.812 196.372C135.003 197.312 131.924 198.807 129.516 198.945C127.344 199.069 126.867 199.576 127.875 200.69C128.557 201.443 129.07 201.411 133.105 200.359C135.719 199.678 136.905 199.794 136.905 200.733C136.905 201.681 136.139 202.018 132.405 202.712C130.92 202.988 129.705 203.365 129.705 203.549C129.705 203.849 132.175 204.715 133.045 204.721C133.231 204.722 134.022 205.026 134.802 205.396C136.554 206.227 141.224 205.688 144.105 204.321C146.644 203.117 151.331 200.082 151.064 199.815C150.941 199.693 152.34 198.842 154.173 197.924C157.895 196.061 161.715 193.948 162.553 193.289C162.857 193.05 165.202 191.83 167.766 190.577C170.329 189.324 172.637 188.046 172.893 187.737C173.15 187.428 175.271 186.246 177.606 185.111C183.959 182.023 186.765 178.918 189.705 171.723C190.52 169.728 191.888 162.243 192.922 154.123C193.344 150.802 194.116 149.523 195.695 149.523C196.226 149.523 196.458 149.073 196.651 147.667C197.426 142.009 196.618 140.516 193.649 142.128ZM178.205 145.68C180.523 147.439 183.853 158.443 182.71 160.565C180.724 164.253 176.99 161.185 175.686 154.794C175.431 153.545 175.066 152.163 174.874 151.723C174.31 150.429 174.124 147.435 174.557 146.626C175.265 145.303 177.087 144.831 178.205 145.68ZM177.71 167.823C177.713 167.988 177.815 168.492 177.936 168.943C178.216 169.985 172.62 175.698 169.762 177.289C169.401 177.49 169.015 177.77 168.905 177.91C167.766 179.366 162.759 182.723 161.726 182.723C158.508 182.723 161.277 178.566 168.705 172.247C172.922 168.66 177.683 166.321 177.71 167.823ZM139.571 203.35C139.899 204.206 139.289 204.721 137.454 205.134C135.659 205.539 134.881 205.084 135.552 204.021C136.309 202.82 139.183 202.34 139.571 203.35Z" fill="#98A2C3"/>
<path fill-rule="evenodd" clip-rule="evenodd" d="M149.068 56.3857C148.895 56.6657 148.958 56.7387 149.228 56.5717C149.474 56.4197 150.429 56.8417 151.35 57.5097C153.339 58.9507 154.823 59.0467 156.915 57.8707L158.433 57.0177L160.245 58.2407C161.242 58.9137 161.975 59.2467 161.872 58.9807C161.77 58.7147 160.904 58.0687 159.947 57.5457L158.207 56.5957L156.809 57.4597C154.914 58.6317 153.574 58.5467 151.506 57.1237C149.538 55.7697 149.462 55.7467 149.068 56.3857ZM141.787 58.0587C140.693 59.2037 139.463 62.2147 139.907 62.6587C140.092 62.8427 140.131 62.7477 140.887 60.2827C141.633 57.8517 142.941 56.9337 144.94 57.4407C146.335 57.7947 148.52 57.5457 148.502 57.0337C148.471 56.1007 142.836 56.9607 141.787 58.0587ZM162.32 60.8237C162.467 61.3187 163.118 62.2637 163.766 62.9237C164.465 63.6357 164.838 63.8387 164.682 63.4237C164.538 63.0387 164.25 62.7237 164.043 62.7237C163.835 62.7237 163.402 62.0937 163.08 61.3237C162.43 59.7667 161.902 59.4197 162.32 60.8237ZM139.312 63.6237C139.308 64.1337 139.605 64.3107 140.406 64.2777C141.249 64.2417 141.319 64.1847 140.706 64.0307C140.266 63.9207 139.774 63.6267 139.612 63.3777C139.426 63.0897 139.316 63.1797 139.312 63.6237ZM143.106 64.6627C144.343 65.1917 146.416 65.6007 145.706 65.1747C145.376 64.9777 144.476 64.7037 143.706 64.5677C142.762 64.4007 142.566 64.4317 143.106 64.6627ZM164.906 66.0447C164.906 67.7427 164.862 67.8067 163.806 67.6667L162.706 67.5197L163.852 67.9707C165.253 68.5207 165.74 67.9767 165.62 65.9957C165.497 63.9847 164.906 64.0247 164.906 66.0447ZM152.006 65.8127C152.721 65.9017 153.891 65.9017 154.606 65.8127C155.321 65.7247 154.736 65.6517 153.306 65.6517C151.876 65.6517 151.291 65.7247 152.006 65.8127ZM157.374 66.1117C157.522 66.2667 158.309 66.5437 159.123 66.7277C159.938 66.9117 160.447 66.9147 160.255 66.7347C159.824 66.3307 157.002 65.7207 157.374 66.1117ZM168.906 69.1237C168.466 69.5637 168.127 70.3287 168.152 70.8237C168.194 71.6377 168.217 71.6467 168.392 70.9237C168.499 70.4837 168.959 69.7187 169.416 69.2237C170.443 68.1097 170.005 68.0247 168.906 69.1237ZM172.706 72.5237C172.706 73.9117 172.841 74.9637 173.006 74.8617C173.391 74.6237 173.387 71.0697 173 70.4617C172.838 70.2077 172.706 71.1357 172.706 72.5237ZM161.017 70.8237C160.804 71.0987 160.512 71.6837 160.367 72.1237C160.108 72.9117 160.113 72.9117 160.705 72.1477C161.036 71.7197 161.306 71.2057 161.306 71.0037C161.306 70.8017 161.771 70.7537 162.34 70.8967C163.01 71.0647 163.283 71.0097 163.116 70.7397C162.761 70.1657 161.486 70.2167 161.017 70.8237ZM164.63 71.6237C165.348 72.1527 164.616 76.5567 163.598 77.8337C163.375 78.1137 163.293 78.4437 163.417 78.5677C163.759 78.9107 164.318 77.6047 165.118 74.5897C165.739 72.2497 165.761 71.8037 165.275 71.4957C164.407 70.9467 163.86 71.0547 164.63 71.6237ZM167.172 72.0967C167.051 72.4117 166.848 73.8067 166.721 75.1967C166.436 78.3187 167.095 77.1497 167.515 73.7887C167.786 71.6177 167.637 70.8827 167.172 72.0967ZM169.296 72.5347C168.134 73.7717 167.917 76.8197 168.976 77.0347C169.789 77.1997 171.706 74.5397 171.706 73.2447C171.706 71.7657 170.384 71.3767 169.296 72.5347ZM149.369 72.8497C149.114 73.4687 148.906 74.2257 148.906 74.5317C148.906 75.4917 146.937 77.1237 145.788 77.1177C144.126 77.1077 143.618 76.5947 143.77 75.0777L143.906 73.7237L141.043 73.5237C139.469 73.4137 138.264 73.4587 138.367 73.6237C138.469 73.7887 139.611 73.9237 140.903 73.9237H143.252L143.217 75.1837C143.194 75.9777 143.454 76.6427 143.92 76.9837C144.634 77.5057 144.633 77.5237 143.882 77.5327C143.455 77.5377 142.314 77.9007 141.347 78.3397C139.737 79.0697 139.507 79.0847 138.647 78.5217C138.129 78.1827 137.706 78.0457 137.706 78.2187C137.706 79.3227 139.408 79.5427 141.6 78.7227C143.812 77.8957 145.262 77.8677 149.506 78.5727C150.42 78.7247 150.563 78.6727 150.106 78.3537C149.776 78.1237 149.022 77.9327 148.43 77.9297C147.838 77.9267 147.242 77.7437 147.106 77.5237C146.97 77.3037 147.111 77.1237 147.419 77.1237C148.137 77.1237 150.215 73.3317 149.997 72.4177C149.869 71.8787 149.728 71.9757 149.369 72.8497ZM170.906 73.6537C170.906 74.5287 170.588 75.2827 169.976 75.8577C168.49 77.2547 168.049 76.1927 169.086 73.7107C169.848 71.8867 170.906 71.8537 170.906 73.6537ZM158.94 74.4767L157.975 75.7237L159.119 74.6357C159.749 74.0377 160.183 73.4767 160.085 73.3887C159.986 73.3007 159.471 73.7907 158.94 74.4767ZM171.153 77.2967C169.699 79.2037 169.833 79.5777 171.306 77.7237C171.966 76.8927 172.506 76.1487 172.506 76.0687C172.506 75.6827 172.111 76.0417 171.153 77.2967ZM166.152 78.3907C166.077 79.4767 166.547 80.3237 167.225 80.3237C167.799 80.3237 167.798 80.2757 167.216 79.8237C166.863 79.5487 166.489 78.9637 166.386 78.5237C166.249 77.9397 166.186 77.9037 166.152 78.3907ZM152.124 79.4557C152.904 79.8237 154.614 80.9777 155.924 82.0207C158.568 84.1267 158.891 84.2137 160.507 83.2597C161.656 82.5807 163.576 79.6597 163.152 79.2357C163.022 79.1067 162.659 79.6167 162.344 80.3707C160.934 83.7467 159.27 84.0727 156.048 81.6037C153.184 79.4097 151.998 78.7087 151.232 78.7557C150.943 78.7737 151.344 79.0887 152.124 79.4557ZM142.647 81.1207C142.174 81.3117 141.645 81.7057 141.47 81.9957C141.256 82.3517 141.393 82.3277 141.891 81.9237C142.395 81.5137 143.546 81.3237 145.528 81.3237C147.123 81.3237 148.345 81.1887 148.243 81.0237C147.992 80.6157 143.714 80.6907 142.647 81.1207ZM150.924 82.8257C153.961 84.6387 154.105 87.1647 151.24 88.3507C150.602 88.6157 150.161 88.9117 150.259 89.0097C151.054 89.8047 154.049 86.6057 153.788 85.2407C153.591 84.2097 150.395 81.5237 149.366 81.5237C149.023 81.5237 149.723 82.1097 150.924 82.8257ZM140.773 82.9907C140.389 83.3737 140.456 84.8247 140.888 85.5087C141.147 85.9187 141.251 85.5897 141.235 84.4087C141.21 82.6257 141.192 82.5707 140.773 82.9907ZM141.706 84.0927C141.706 86.6027 145.517 89.1467 148.112 88.3687C149.032 88.0937 149.682 87.7667 149.558 87.6417C149.433 87.5177 148.799 87.6367 148.148 87.9057C145.517 88.9967 140.355 84.8807 142.583 83.4677C142.975 83.2187 142.931 83.1347 142.406 83.1297C141.93 83.1257 141.706 83.4337 141.706 84.0927ZM151.924 85.1537C152.07 85.3897 151.766 86.0437 151.248 86.6077C150.361 87.5727 150.356 87.6067 151.159 87.1887C152.33 86.5807 153.025 84.7237 152.082 84.7237C151.849 84.7237 151.778 84.9167 151.924 85.1537ZM141.32 86.5537C141.254 88.5267 147.39 90.7967 149.306 89.5077C149.727 89.2257 149.298 89.1807 147.869 89.3577C145.544 89.6457 143.7 88.9337 142.22 87.1757C141.733 86.5977 141.328 86.3177 141.32 86.5537ZM166.176 88.0497C165.502 88.7667 165.306 89.4677 165.306 91.1607C165.306 93.7557 164.587 94.9777 162.788 95.4397C161.894 95.6697 161.313 96.1737 160.867 97.1067C160.064 98.7907 159.073 99.5237 157.6 99.5237C156.761 99.5237 156.056 99.9597 155.011 101.124C153.436 102.879 151.743 103.241 150.282 102.137C149.855 101.814 149.236 101.545 148.906 101.541C148.576 101.536 149.082 101.997 150.03 102.565C152.128 103.822 153.153 103.65 155.085 101.718C155.852 100.951 156.863 100.324 157.331 100.324C159.107 100.324 160.749 98.8647 161.438 96.6747C161.551 96.3147 162.277 95.9057 163.063 95.7587C164.989 95.3967 165.706 94.2377 165.706 91.4887C165.706 89.8107 165.919 88.9607 166.535 88.1777C167.559 86.8767 167.348 86.8017 166.176 88.0497ZM135.904 99.4607C136.34 99.9757 137.059 100.583 137.502 100.81C138.351 101.245 138.227 101.111 136.309 99.5177C135.154 98.5587 135.14 98.5567 135.904 99.4607ZM139.816 101.708C140.427 102.026 141.209 102.57 141.554 102.915C142.714 104.075 144.551 104.799 145.649 104.529C146.974 104.204 148.506 103.231 148.506 102.715C148.506 102.5 148.146 102.684 147.706 103.124C146.372 104.458 143.934 104.207 141.88 102.524C140.94 101.754 139.842 101.125 139.439 101.126C138.901 101.128 139.001 101.283 139.816 101.708ZM120.3 130.824C119.368 133.401 118.973 134.724 119.134 134.724C119.343 134.724 120.002 133.159 120.521 131.424C120.843 130.347 120.656 129.838 120.3 130.824ZM69.8389 131.754C69.7059 132.1 69.8389 133.115 70.1339 134.008C70.4289 134.901 70.7349 135.438 70.8139 135.2C70.8929 134.963 70.7659 134.41 70.5319 133.972C69.9579 132.9 69.9939 131.636 70.6059 131.389C70.9979 131.231 70.9949 131.18 70.5929 131.156C70.3119 131.138 69.9719 131.407 69.8389 131.754ZM118.56 136.624C117.072 142.527 116.629 144.724 116.927 144.724C117.115 144.724 117.384 144.049 117.524 143.224C117.663 142.399 118.019 141.004 118.314 140.124C118.9 138.377 119.429 135.124 119.127 135.124C119.023 135.124 118.768 135.799 118.56 136.624ZM121.528 138.146C121.378 138.949 121.344 139.696 121.454 139.806C121.564 139.916 121.778 139.349 121.928 138.546C122.079 137.743 122.112 136.997 122.002 136.887C121.892 136.777 121.679 137.343 121.528 138.146ZM65.9759 140.624C65.2079 141.669 64.1119 142.96 63.5419 143.494C62.9719 144.027 62.5059 144.637 62.5059 144.85C62.5059 145.063 63.2679 144.356 64.1989 143.28C65.1299 142.204 66.4619 140.739 67.1589 140.024C67.8559 139.309 68.1889 138.724 67.8999 138.724C67.6109 138.724 66.7449 139.579 65.9759 140.624ZM68.5059 140.054C68.5059 140.346 68.0379 141.021 67.4669 141.554C66.8949 142.088 66.0639 143.064 65.6199 143.724C65.1759 144.384 65.7309 143.934 66.8539 142.724C68.6279 140.812 69.3739 139.524 68.7059 139.524C68.5959 139.524 68.5059 139.763 68.5059 140.054ZM69.0609 142.507C68.1209 143.487 67.1519 144.702 66.9069 145.207C66.4749 146.098 66.4799 146.101 67.0969 145.324C67.4459 144.884 68.5589 143.669 69.5689 142.624C70.5799 141.579 71.2629 140.724 71.0879 140.724C70.9119 140.724 69.9999 141.526 69.0609 142.507ZM71.3059 141.832C71.3059 142.027 70.3029 143.478 69.0769 145.056C67.8509 146.633 66.9979 147.924 67.1809 147.924C67.3639 147.924 67.7249 147.586 67.9829 147.173C68.2409 146.76 69.2699 145.418 70.2689 144.19C71.2689 142.963 71.9109 141.851 71.6959 141.718C71.4819 141.585 71.3059 141.637 71.3059 141.832ZM72.7389 142.024C72.6609 142.299 72.3839 143.307 72.1239 144.263C71.8479 145.277 70.9739 146.736 70.0279 147.762C68.6789 149.226 68.4899 149.623 68.9049 150.123C69.5859 150.944 69.8839 150.887 71.1839 149.69C72.1669 148.784 72.1839 148.735 71.3169 149.29C69.3379 150.559 68.4939 149.678 70.3159 148.245C71.4319 147.367 72.4439 145.323 72.9009 143.024C73.1769 141.631 73.0589 140.896 72.7389 142.024ZM74.3619 150.924C74.6139 154.298 74.7309 154.726 75.3929 154.718C75.7429 154.714 75.7669 154.618 75.4679 154.418C75.2269 154.256 75.0009 153.314 74.9649 152.324C74.9279 151.334 74.7309 149.984 74.5259 149.324C74.2499 148.436 74.2069 148.851 74.3619 150.924ZM194.148 150.224C193.49 150.767 193.26 151.505 193.117 153.524L192.933 156.124L193.342 154.124C193.566 153.024 193.827 151.746 193.921 151.284C194.027 150.761 194.585 150.286 195.399 150.025C196.37 149.713 196.486 149.595 195.85 149.565C195.38 149.542 194.613 149.839 194.148 150.224ZM106.906 154.341C105.476 154.512 103.316 154.765 102.106 154.902C99.1189 155.241 98.5059 155.467 98.5059 156.227C98.5059 156.824 98.5469 156.823 99.0059 156.222C99.3279 155.8 100.341 155.493 101.847 155.361C106.853 154.92 109.13 154.608 109.706 154.285C110.036 154.1 110.126 153.967 109.906 153.989C109.686 154.011 108.336 154.169 106.906 154.341ZM192.131 159.606C191.333 165.208 191.247 166.213 191.643 165.324C192.041 164.43 193.018 156.703 192.765 156.45C192.676 156.361 192.391 157.781 192.131 159.606ZM190.514 168.624C190.266 169.889 189.91 171.284 189.722 171.724C186.509 179.226 183.989 182.01 177.607 185.112C175.272 186.247 173.151 187.429 172.894 187.738C172.638 188.047 170.33 189.325 167.767 190.577C165.203 191.829 162.836 193.074 162.506 193.344C162.176 193.614 160.959 194.324 159.803 194.923C158.646 195.522 157.593 196.183 157.464 196.392C157.196 196.825 161.193 194.847 162.106 194.095C162.436 193.823 165.079 192.414 167.98 190.965C170.881 189.516 173.361 188.159 173.49 187.95C173.619 187.741 175.476 186.711 177.615 185.66C185.089 181.993 189.808 175.819 191.096 168.024C191.517 165.475 191.031 165.976 190.514 168.624ZM130.216 195.89C129.066 196.03 127.912 196.358 127.65 196.62C127.282 196.988 127.484 197.017 128.54 196.749C132.71 195.69 135.67 196.036 133.418 197.32C132.353 197.926 132.348 197.942 133.306 197.694C134.643 197.347 135.061 196.906 134.772 196.151C134.518 195.49 133.835 195.451 130.216 195.89ZM153.786 198.107C150.9 199.623 150.047 200.287 152.106 199.415C153.884 198.661 157.235 196.726 156.706 196.758C156.486 196.772 155.172 197.378 153.786 198.107ZM132.986 200.319C132.26 200.491 131.54 200.758 131.386 200.913C131.11 201.191 132.956 200.937 135.706 200.319L137.106 200.004L135.706 200.005C134.936 200.006 133.712 200.147 132.986 200.319ZM133.989 201.828C132.715 202.156 131.756 202.507 131.858 202.609C132.148 202.9 136.466 201.913 136.723 201.497C136.994 201.058 136.979 201.059 133.989 201.828ZM136.944 203.073C135.763 203.403 134.96 204.538 135.515 205.093C135.961 205.539 138.764 205.026 139.408 204.382C140.534 203.256 139.069 202.478 136.944 203.073ZM139.212 204.151C139.08 204.283 138.237 204.49 137.339 204.61C135.468 204.861 135.018 204.091 136.806 203.697C137.411 203.563 138.086 203.402 138.306 203.339C138.816 203.192 139.531 203.833 139.212 204.151Z" fill="#649CC4"/>
<path fill-rule="evenodd" clip-rule="evenodd" d="M156.306 40.9187C154.858 41.5987 153.706 42.4937 153.706 42.9377C153.706 43.1167 154.111 42.8877 154.606 42.4287C155.101 41.9697 156.136 41.3227 156.906 40.9917C157.676 40.6597 158.126 40.3817 157.906 40.3717C157.686 40.3627 156.966 40.6087 156.306 40.9187ZM165.064 41.6237C165.885 42.3387 167.13 43.5627 167.831 44.3447C168.532 45.1257 168.842 45.3957 168.52 44.9447C167.491 43.5027 164.35 40.3237 163.954 40.3237C163.744 40.3237 164.244 40.9087 165.064 41.6237ZM138.37 44.2237C138.269 44.3887 140.142 44.5237 142.534 44.5237C144.925 44.5237 146.572 44.4017 146.194 44.2517C145.246 43.8777 138.596 43.8537 138.37 44.2237ZM151.895 44.4757C151.461 44.7787 150.746 45.1187 150.306 45.2297L149.506 45.4307L150.306 45.4687C150.746 45.4887 151.556 45.1537 152.106 44.7237C153.247 43.8307 153.086 43.6427 151.895 44.4757ZM133.706 46.1237C132.961 46.6737 132.468 47.1237 132.611 47.1237C132.753 47.1237 133.534 46.6737 134.344 46.1237C135.155 45.5737 135.647 45.1237 135.44 45.1237C135.232 45.1237 134.451 45.5737 133.706 46.1237ZM170.306 47.9237C170.647 48.5837 171.017 49.1237 171.127 49.1237C171.237 49.1237 171.047 48.5837 170.706 47.9237C170.365 47.2637 169.995 46.7237 169.885 46.7237C169.775 46.7237 169.965 47.2637 170.306 47.9237ZM130.274 52.5517C130.127 53.3377 130.164 54.5287 130.356 55.1997C130.644 56.2017 130.706 55.9467 130.706 53.7717C130.706 50.7377 130.646 50.5687 130.274 52.5517ZM172.519 52.0497C172.512 52.2287 172.956 53.3587 173.506 54.5607C174.056 55.7637 174.506 57.0017 174.506 57.3117C174.506 57.6227 174.66 57.9717 174.848 58.0877C175.448 58.4587 174.848 56.3827 173.67 54.0147C173.044 52.7547 172.525 51.8707 172.519 52.0497ZM131.379 58.9987C132.085 60.6587 132.6 61.1117 132.077 59.6137C131.83 58.9037 131.464 58.2207 131.264 58.0977C131.064 57.9737 131.115 58.3797 131.379 58.9987ZM135.378 66.1667C135.748 66.5837 136.121 67.7347 136.208 68.7247L136.366 70.5237L136.436 68.4377C136.496 66.6427 136.38 66.2857 135.606 65.8797C134.744 65.4267 134.734 65.4387 135.378 66.1667ZM181.506 73.4657C181.506 76.1607 181.623 77.9507 181.766 77.4437C182.096 76.2767 182.091 71.2967 181.759 69.7457C181.62 69.0977 181.506 70.7717 181.506 73.4657ZM136.424 84.0407C136.282 86.2477 135.977 87.4007 135.171 88.7757C134.585 89.7757 134.121 90.9377 134.14 91.3587C134.164 91.8907 134.275 91.7897 134.504 91.0297C134.686 90.4277 135.239 89.2797 135.733 88.4797C136.553 87.1527 137.437 81.1237 136.811 81.1237C136.701 81.1237 136.527 82.4367 136.424 84.0407ZM173.706 84.1537L171.506 84.6937L173.459 84.4767C174.533 84.3567 175.793 84.1047 176.259 83.9167C177.498 83.4157 176.232 83.5337 173.706 84.1537ZM73.3057 141.475C73.3057 141.722 73.5087 141.924 73.7577 141.924C74.0587 141.924 74.1397 142.543 74.0007 143.778C73.8727 144.917 73.9267 145.418 74.1427 145.078C74.7027 144.194 74.5607 142.067 73.9057 141.524C73.4907 141.18 73.3057 141.165 73.3057 141.475ZM116.506 145.26C116.506 145.639 116.821 146.06 117.206 146.196C117.591 146.332 118.31 146.807 118.804 147.252C119.299 147.697 119.804 147.959 119.927 147.836C120.051 147.712 119.557 147.204 118.829 146.706C118.101 146.207 117.281 145.523 117.006 145.186C116.562 144.64 116.506 144.648 116.506 145.26ZM75.3187 148.378C75.3117 148.518 75.5687 149.238 75.8897 149.978C76.3207 150.971 76.4787 151.108 76.4897 150.5C76.5037 149.786 75.3527 147.701 75.3187 148.378ZM112.436 154.706C112.804 155.575 113.162 156.128 113.23 155.933C113.356 155.573 112.219 153.124 111.925 153.124C111.837 153.124 112.067 153.836 112.436 154.706ZM171.906 192.702C171.026 193.119 170.419 193.474 170.557 193.492C170.946 193.542 173.706 192.338 173.706 192.119C173.706 191.851 173.705 191.851 171.906 192.702ZM168.376 194.105C166.644 194.723 165.775 195.384 167.306 194.92C169.086 194.381 170.106 193.949 170.106 193.734C170.106 193.474 170.206 193.452 168.376 194.105ZM163.972 195.798C162.909 196.124 162.109 196.46 162.195 196.546C162.425 196.776 165.443 195.91 165.886 195.487C166.331 195.062 166.437 195.045 163.972 195.798ZM159.386 197.119C158.66 197.291 157.94 197.566 157.786 197.731C157.383 198.162 160.631 197.534 161.086 197.093C161.526 196.666 161.281 196.67 159.386 197.119ZM154.506 198.983C153.736 199.328 152.656 199.755 152.106 199.933C151.548 200.113 151.393 200.27 151.755 200.29C152.111 200.309 153.371 199.884 154.555 199.347C155.738 198.81 156.526 198.367 156.306 198.363C156.086 198.359 155.276 198.638 154.506 198.983ZM104.506 200.085C104.506 200.173 105.091 200.441 105.806 200.679C106.995 201.076 107.04 201.062 106.33 200.519C105.614 199.971 104.506 199.707 104.506 200.085ZM109.28 202.978C111.325 204.8 116.054 211.482 116.93 213.788C117.149 214.364 117.435 214.728 117.566 214.598C117.826 214.338 116.539 212.006 113.831 207.828C112.063 205.1 109.371 202.203 107.906 201.451C107.466 201.225 108.084 201.913 109.28 202.978ZM167.631 210.622C167.299 211.008 166.91 211.684 166.766 212.124L166.504 212.924L167.091 212.124C167.414 211.684 167.883 211.087 168.133 210.798C168.382 210.508 168.507 210.192 168.411 210.095C168.314 209.998 167.963 210.235 167.631 210.622ZM164.836 215.515C163.287 218.272 159.602 222.599 156.706 225.061C154.821 226.663 153.688 227.289 148.607 229.533C147.453 230.043 146.586 230.538 146.682 230.633C146.777 230.728 147.811 230.359 148.98 229.813C150.15 229.267 151.556 228.682 152.106 228.513C155.771 227.391 164.452 218.475 166.1 214.141C166.738 212.46 166.258 212.983 164.836 215.515ZM118.161 216.311C118.394 216.979 118.74 217.621 118.929 217.738C119.119 217.856 119.083 217.405 118.851 216.737C118.618 216.069 118.272 215.427 118.083 215.31C117.893 215.192 117.929 215.643 118.161 216.311ZM119.517 219.174C119.862 220.275 122.097 224.28 122.102 223.806C122.104 223.631 121.656 222.642 121.106 221.609C120.556 220.576 120.106 219.515 120.106 219.251C120.106 218.987 119.907 218.648 119.663 218.498C119.359 218.309 119.313 218.521 119.517 219.174ZM124.07 227.457C124.286 227.86 124.777 228.445 125.161 228.757C125.593 229.108 125.496 228.828 124.907 228.024C123.857 226.589 123.463 226.322 124.07 227.457ZM126.706 229.691C127.146 230.024 127.731 230.49 128.006 230.726C128.328 231.003 128.506 231.011 128.506 230.75C128.506 230.527 127.921 230.061 127.206 229.715C126.113 229.185 126.033 229.182 126.706 229.691ZM144.706 231.009C144.266 231.115 143.726 231.384 143.506 231.608C143.236 231.882 143.431 231.919 144.106 231.721C146.177 231.113 146.661 230.539 144.706 231.009ZM137.706 232.724L134.306 232.975L137.706 233.043C139.576 233.081 141.376 232.937 141.706 232.724C142.239 232.379 142.239 232.344 141.706 232.405C141.376 232.442 139.576 232.586 137.706 232.724Z" fill="#824558"/>
<path fill-rule="evenodd" clip-rule="evenodd" d="M137.42 76.5235C137.423 77.6235 137.501 78.0265 137.593 77.4185C137.685 76.8095 137.683 75.9095 137.588 75.4185C137.493 74.9265 137.417 75.4235 137.42 76.5235ZM167.007 90.5235C167.011 91.4035 167.093 91.7165 167.189 91.2185C167.285 90.7215 167.281 90.0015 167.181 89.6185C167.081 89.2365 167.002 89.6435 167.007 90.5235ZM181.706 104.435C181.706 104.511 182.291 105.002 183.006 105.525C183.81 106.114 184.09 106.211 183.739 105.779C183.206 105.123 181.706 104.131 181.706 104.435ZM109.968 144.655C109.272 145.425 109.073 148.137 109.646 149.041C109.83 149.33 109.895 148.603 109.795 147.396C109.636 145.475 109.721 145.159 110.55 144.578C111.064 144.218 111.292 143.924 111.057 143.924C110.822 143.924 110.332 144.253 109.968 144.655ZM113.739 144.068C113.831 144.147 114.446 144.331 115.106 144.479C115.982 144.675 116.144 144.638 115.706 144.341C115.166 143.976 113.338 143.722 113.739 144.068ZM134.306 165.124C135.165 166.004 135.958 166.724 136.068 166.724C136.178 166.724 135.565 166.004 134.706 165.124C133.847 164.244 133.054 163.524 132.944 163.524C132.834 163.524 133.447 164.244 134.306 165.124ZM156.193 180.624C155.236 181.559 155.22 181.605 156.087 180.93C157.794 179.6 157.875 179.524 157.592 179.524C157.442 179.524 156.812 180.019 156.193 180.624ZM150.753 184.722C148.851 186.161 148.45 186.571 149.506 185.998C150.423 185.5 152.807 183.554 152.506 183.55C152.396 183.548 151.607 184.075 150.753 184.722ZM133.158 185.84C133.05 186.014 133.624 186.094 134.434 186.017C136.908 185.783 137.199 185.619 135.23 185.57C134.198 185.545 133.265 185.666 133.158 185.84ZM134.408 190.124C134.513 190.674 134.668 191.124 134.753 191.124C134.837 191.124 134.906 190.674 134.906 190.124C134.906 189.574 134.751 189.124 134.561 189.124C134.372 189.124 134.303 189.574 134.408 190.124ZM127.468 192.424L126.706 193.324L127.591 192.575C128.08 192.162 128.761 191.936 129.112 192.071C129.48 192.212 129.645 192.148 129.503 191.919C129.099 191.266 128.276 191.47 127.468 192.424ZM127.506 198.725C127.422 198.86 128.063 199.012 128.93 199.063C129.797 199.115 130.506 199.079 130.506 198.984C130.506 198.702 127.671 198.457 127.506 198.725ZM131.506 204.723C131.946 204.912 132.666 205.061 133.106 205.055C133.749 205.046 133.71 204.98 132.906 204.723C131.538 204.285 130.487 204.285 131.506 204.723ZM134.855 205.624C135.22 206.089 135.891 206.302 136.855 206.259L138.306 206.195L136.908 206.027C136.138 205.935 135.238 205.648 134.908 205.391C134.384 204.984 134.377 205.014 134.855 205.624Z" fill="#C58B9D"/>
<path fill-rule="evenodd" clip-rule="evenodd" d="M130.33 92.5366C129.331 93.2916 129.701 93.2866 131.16 92.5256C131.79 92.1976 132.036 91.9335 131.706 91.9385C131.376 91.9445 130.757 92.2136 130.33 92.5366ZM127.306 95.3236C126.334 96.3136 125.629 97.1236 125.739 97.1236C125.849 97.1236 126.734 96.3136 127.706 95.3236C128.678 94.3336 129.383 93.5236 129.273 93.5236C129.163 93.5236 128.278 94.3336 127.306 95.3236ZM173.28 99.0476C173.815 99.4826 174.805 100.143 175.48 100.515L176.706 101.191L175.732 100.4C175.197 99.9646 174.207 99.3045 173.532 98.9325L172.306 98.2566L173.28 99.0476ZM122.971 101.741C122.301 103.212 122.429 103.526 123.153 102.189C123.492 101.564 123.694 100.978 123.602 100.887C123.511 100.795 123.227 101.18 122.971 101.741ZM185.706 107.249C185.706 107.318 186.291 107.903 187.006 108.549L188.306 109.724L187.131 108.424C186.036 107.212 185.706 106.94 185.706 107.249ZM111.806 144.2C112.191 144.3 112.821 144.3 113.206 144.2C113.591 144.099 113.276 144.017 112.506 144.017C111.736 144.017 111.421 144.099 111.806 144.2ZM123.195 151.154C123.684 151.663 124.184 151.979 124.307 151.856C124.43 151.733 124.03 151.316 123.418 150.93L122.306 150.228L123.195 151.154ZM128.115 157.252C128.812 158.313 129.469 159.095 129.573 158.99C129.678 158.886 129.49 158.468 129.156 158.062C127.232 155.724 126.98 155.528 128.115 157.252ZM149.266 173.244C149.452 173.43 150.212 173.52 150.955 173.443C152.273 173.307 152.264 173.299 150.616 173.104C149.687 172.995 149.079 173.057 149.266 173.244ZM158.412 176.944C158.546 177.647 158.311 178.301 157.657 179.044L156.706 180.124L157.806 179.154C158.855 178.229 159.394 175.924 158.561 175.924C158.372 175.924 158.305 176.383 158.412 176.944ZM147.8 186.736C147.081 187.389 146.643 187.924 146.825 187.924C147.007 187.924 147.674 187.384 148.306 186.724C149.776 185.189 149.492 185.196 147.8 186.736ZM141.506 187.087C142.826 187.219 144.176 187.475 144.506 187.655C144.836 187.836 144.757 187.7 144.33 187.354C143.805 186.928 142.832 186.744 141.33 186.785L139.106 186.846L141.506 187.087ZM133.027 191.652C132.879 191.892 132.992 191.918 133.312 191.72C133.697 191.482 133.772 191.575 133.587 192.058C133.243 192.954 133.58 192.906 134.07 191.991C134.496 191.195 133.507 190.875 133.027 191.652ZM129.655 192.404C130.008 193.366 131.886 193.904 132.554 193.236C132.756 193.034 132.308 192.954 131.506 193.048C130.438 193.173 130.106 193.065 130.106 192.591C130.106 192.25 129.928 191.861 129.711 191.727C129.46 191.572 129.439 191.818 129.655 192.404ZM126.18 194.121C125.712 195.149 126.063 196.803 126.854 197.292C127.073 197.427 126.984 197.001 126.657 196.345C126.194 195.419 126.163 194.965 126.516 194.304C126.766 193.838 126.895 193.38 126.803 193.288C126.711 193.196 126.431 193.571 126.18 194.121ZM147.106 202.959L145.906 203.99L147.206 203.13C147.921 202.657 148.506 202.192 148.506 202.097C148.506 201.797 148.337 201.902 147.106 202.959ZM139.106 205.924C138.017 206.201 137.999 206.231 138.906 206.249C139.456 206.259 140.266 206.113 140.706 205.924C141.692 205.5 140.772 205.5 139.106 205.924Z" fill="#E46C7C"/>
</svg>
