<svg id="svg" xmlns="http://www.w3.org/2000/svg" xmlns:xlink="http://www.w3.org/1999/xlink" width="400" height="400" viewBox="0, 0, 400,400" version="1.1"><g id="svgg"><path id="path0" d="M284.750 53.232 C 283.837 53.819,283.411 54.058,283.352 54.017 C 283.316 53.992,283.241 54.034,283.185 54.111 C 283.053 54.291,282.748 54.473,280.833 55.509 C 279.962 55.981,279.119 56.483,278.958 56.626 C 278.798 56.768,278.666 56.817,278.664 56.734 C 278.663 56.651,278.606 56.668,278.539 56.771 C 278.472 56.874,277.817 57.278,277.083 57.670 C 276.350 58.062,275.632 58.484,275.487 58.608 C 275.342 58.732,275.146 58.833,275.051 58.833 C 274.956 58.833,274.681 58.989,274.439 59.179 C 274.198 59.369,274.000 59.470,274.000 59.403 C 274.000 59.336,273.869 59.399,273.708 59.543 C 273.333 59.878,271.500 60.882,271.500 60.752 C 271.500 60.698,271.295 60.844,271.043 61.077 C 270.792 61.309,270.502 61.500,270.399 61.500 C 270.296 61.500,270.014 61.655,269.772 61.845 C 269.531 62.035,269.332 62.129,269.331 62.054 C 269.329 61.978,269.273 61.999,269.206 62.100 C 269.088 62.277,267.949 62.957,266.917 63.468 C 266.642 63.604,266.285 63.829,266.125 63.967 C 265.965 64.105,265.833 64.165,265.833 64.101 C 265.833 64.036,265.571 64.183,265.250 64.428 C 264.929 64.673,264.667 64.824,264.667 64.763 C 264.667 64.703,264.573 64.734,264.458 64.832 C 264.060 65.174,262.283 66.172,262.207 66.096 C 262.166 66.054,261.951 66.201,261.731 66.421 C 261.479 66.672,261.227 66.782,261.054 66.716 C 260.887 66.652,260.820 66.677,260.884 66.781 C 260.974 66.926,260.204 67.419,260.019 67.335 C 259.983 67.318,259.908 67.375,259.852 67.461 C 259.748 67.620,258.587 68.333,257.833 68.700 C 257.604 68.812,257.239 69.037,257.022 69.199 C 256.805 69.362,256.561 69.455,256.480 69.405 C 256.400 69.355,256.333 69.376,256.333 69.452 C 256.333 69.528,256.052 69.735,255.708 69.911 C 255.365 70.087,254.840 70.408,254.542 70.624 C 254.244 70.840,254.000 70.970,254.000 70.913 C 254.000 70.856,253.802 70.965,253.561 71.155 C 253.319 71.345,253.050 71.500,252.962 71.500 C 252.874 71.500,252.613 71.649,252.382 71.831 C 252.150 72.013,251.895 72.121,251.814 72.071 C 251.733 72.021,251.667 72.043,251.667 72.119 C 251.667 72.195,251.385 72.402,251.042 72.578 C 250.698 72.754,250.173 73.075,249.875 73.291 C 249.577 73.507,249.333 73.631,249.333 73.566 C 249.333 73.501,249.202 73.562,249.042 73.701 C 248.881 73.840,248.225 74.239,247.583 74.587 C 246.942 74.935,246.285 75.332,246.125 75.469 C 245.965 75.606,245.833 75.665,245.833 75.601 C 245.833 75.536,245.571 75.683,245.250 75.928 C 244.929 76.173,244.667 76.315,244.667 76.244 C 244.667 76.173,244.535 76.229,244.375 76.368 C 244.215 76.507,243.558 76.905,242.917 77.254 C 242.275 77.602,241.619 77.999,241.458 78.136 C 241.298 78.273,241.167 78.324,241.167 78.250 C 241.167 78.176,241.035 78.228,240.875 78.367 C 240.715 78.505,239.814 79.050,238.873 79.578 C 237.933 80.105,237.122 80.605,237.070 80.688 C 237.019 80.771,236.907 80.796,236.822 80.743 C 236.736 80.690,236.667 80.731,236.667 80.833 C 236.667 80.936,236.597 80.977,236.512 80.924 C 236.426 80.871,236.312 80.900,236.258 80.988 C 236.203 81.076,235.600 81.456,234.917 81.833 C 234.234 82.210,233.630 82.591,233.576 82.679 C 233.521 82.767,233.407 82.796,233.322 82.743 C 233.236 82.690,233.167 82.726,233.167 82.823 C 233.167 82.921,233.079 83.000,232.971 83.000 C 232.864 83.000,232.658 83.107,232.513 83.237 C 232.368 83.367,232.137 83.498,232.000 83.529 C 231.862 83.559,231.713 83.626,231.667 83.679 C 231.621 83.731,231.004 84.092,230.296 84.480 C 229.587 84.868,228.963 85.258,228.909 85.346 C 228.855 85.433,228.740 85.462,228.655 85.410 C 228.570 85.357,228.500 85.401,228.500 85.508 C 228.500 85.615,228.394 85.662,228.264 85.612 C 228.134 85.562,227.990 85.619,227.944 85.738 C 227.898 85.858,227.123 86.348,226.222 86.829 C 225.321 87.309,224.482 87.784,224.358 87.885 C 224.234 87.986,224.017 88.086,223.875 88.107 C 223.733 88.127,223.571 88.218,223.515 88.309 C 223.459 88.399,222.889 88.753,222.248 89.094 C 221.608 89.435,220.965 89.816,220.820 89.941 C 220.675 90.065,220.479 90.167,220.384 90.167 C 220.289 90.167,220.014 90.322,219.772 90.512 C 219.531 90.702,219.332 90.796,219.331 90.720 C 219.329 90.645,219.273 90.664,219.206 90.762 C 219.138 90.860,218.483 91.265,217.750 91.662 C 217.017 92.059,216.285 92.496,216.125 92.634 C 215.965 92.772,215.833 92.832,215.833 92.767 C 215.833 92.703,215.571 92.850,215.250 93.095 C 214.929 93.339,214.667 93.490,214.667 93.430 C 214.667 93.370,214.573 93.401,214.458 93.499 C 214.041 93.857,212.281 94.837,212.200 94.756 C 212.155 94.710,211.983 94.827,211.819 95.016 C 211.655 95.205,211.420 95.375,211.297 95.393 C 211.174 95.411,210.813 95.611,210.495 95.837 C 210.177 96.063,209.917 96.216,209.917 96.177 C 209.917 96.107,209.604 96.286,208.295 97.109 C 207.953 97.324,207.628 97.500,207.572 97.500 C 207.515 97.500,207.280 97.649,207.048 97.831 C 206.817 98.013,206.561 98.121,206.480 98.071 C 206.400 98.021,206.333 98.043,206.333 98.120 C 206.333 98.197,205.846 98.518,205.250 98.833 C 204.654 99.148,204.167 99.477,204.167 99.564 C 204.167 99.651,204.119 99.675,204.061 99.617 C 204.003 99.558,203.768 99.658,203.539 99.839 C 203.309 100.019,203.050 100.167,202.962 100.167 C 202.874 100.167,202.613 100.316,202.382 100.498 C 202.150 100.680,201.895 100.788,201.814 100.738 C 201.733 100.688,201.667 100.709,201.667 100.786 C 201.667 100.862,201.385 101.068,201.042 101.244 C 200.698 101.420,200.173 101.741,199.875 101.957 C 199.577 102.173,199.333 102.304,199.333 102.246 C 199.333 102.189,199.137 102.297,198.897 102.486 C 198.657 102.674,198.395 102.788,198.314 102.738 C 198.233 102.688,198.167 102.715,198.167 102.797 C 198.167 102.880,197.773 103.157,197.292 103.414 C 196.810 103.672,196.285 103.995,196.125 104.133 C 195.965 104.272,195.833 104.332,195.833 104.267 C 195.833 104.203,195.571 104.350,195.250 104.595 C 194.929 104.839,194.667 104.982,194.667 104.911 C 194.667 104.840,194.535 104.896,194.375 105.037 C 194.215 105.177,193.483 105.616,192.750 106.011 C 192.017 106.407,191.362 106.810,191.294 106.907 C 191.227 107.004,191.171 107.023,191.169 106.950 C 191.168 106.876,190.923 107.002,190.625 107.230 C 190.327 107.457,190.046 107.634,190.000 107.624 C 189.954 107.613,189.729 107.722,189.500 107.865 C 188.475 108.507,186.740 109.464,186.642 109.441 C 186.583 109.428,186.396 109.537,186.226 109.684 C 186.056 109.831,185.147 110.383,184.207 110.911 C 183.266 111.439,182.455 111.938,182.404 112.021 C 182.352 112.104,182.240 112.129,182.155 112.076 C 182.070 112.023,182.000 112.064,182.000 112.167 C 182.000 112.269,181.930 112.310,181.845 112.257 C 181.760 112.204,181.645 112.233,181.591 112.321 C 181.537 112.409,180.933 112.790,180.250 113.167 C 179.567 113.544,178.963 113.924,178.909 114.012 C 178.855 114.100,178.740 114.129,178.655 114.076 C 178.570 114.023,178.500 114.060,178.500 114.157 C 178.500 114.254,178.397 114.333,178.270 114.333 C 178.144 114.333,177.948 114.445,177.835 114.581 C 177.722 114.718,177.569 114.793,177.495 114.747 C 177.422 114.702,177.337 114.726,177.306 114.800 C 177.275 114.875,176.597 115.290,175.798 115.723 C 175.000 116.156,174.301 116.584,174.245 116.674 C 174.189 116.765,174.074 116.796,173.988 116.743 C 173.903 116.690,173.833 116.713,173.833 116.794 C 173.833 116.875,173.177 117.294,172.375 117.726 C 171.573 118.158,170.767 118.601,170.583 118.710 C 169.645 119.270,169.411 119.392,169.352 119.350 C 169.316 119.325,169.241 119.376,169.185 119.463 C 169.054 119.666,166.833 120.883,166.833 120.752 C 166.833 120.698,166.628 120.844,166.377 121.077 C 166.126 121.309,165.836 121.500,165.733 121.500 C 165.629 121.500,165.347 121.655,165.106 121.845 C 164.864 122.035,164.666 122.129,164.664 122.054 C 164.663 121.978,164.606 121.999,164.539 122.100 C 164.425 122.271,163.526 122.813,162.167 123.530 C 161.542 123.860,161.186 124.073,160.459 124.553 C 160.207 124.720,160.000 124.810,160.000 124.755 C 160.000 124.699,159.906 124.734,159.792 124.832 C 159.394 125.174,157.616 126.172,157.541 126.096 C 157.499 126.054,157.280 126.205,157.055 126.430 C 156.830 126.655,156.575 126.796,156.489 126.743 C 156.403 126.690,156.333 126.714,156.333 126.797 C 156.333 126.921,155.630 127.351,155.333 127.409 C 155.243 127.427,154.589 127.830,153.658 128.443 C 153.332 128.658,153.006 128.833,152.934 128.833 C 152.862 128.833,152.613 128.982,152.382 129.164 C 152.150 129.346,151.895 129.455,151.814 129.405 C 151.733 129.355,151.667 129.376,151.667 129.452 C 151.667 129.528,151.385 129.735,151.042 129.911 C 150.698 130.087,150.173 130.408,149.875 130.624 C 149.577 130.840,149.333 130.970,149.333 130.913 C 149.333 130.856,149.136 130.965,148.894 131.155 C 148.653 131.345,148.383 131.500,148.295 131.500 C 148.208 131.500,147.947 131.649,147.715 131.831 C 147.484 132.013,147.228 132.121,147.147 132.071 C 147.066 132.021,147.000 132.043,147.000 132.119 C 147.000 132.195,146.719 132.402,146.375 132.578 C 146.031 132.754,145.506 133.075,145.208 133.291 C 144.910 133.507,144.667 133.631,144.667 133.566 C 144.667 133.501,144.535 133.562,144.375 133.701 C 144.215 133.840,143.558 134.239,142.917 134.587 C 142.275 134.935,141.619 135.332,141.458 135.469 C 141.298 135.606,141.167 135.665,141.167 135.601 C 141.167 135.536,140.904 135.683,140.583 135.928 C 140.262 136.173,140.000 136.315,140.000 136.244 C 140.000 136.173,139.869 136.229,139.708 136.368 C 139.548 136.507,138.892 136.905,138.250 137.254 C 137.608 137.602,136.952 137.999,136.792 138.136 C 136.631 138.273,136.500 138.324,136.500 138.250 C 136.500 138.176,136.369 138.228,136.208 138.367 C 136.048 138.505,135.147 139.050,134.207 139.578 C 133.266 140.105,132.455 140.605,132.404 140.688 C 132.352 140.771,132.240 140.796,132.155 140.743 C 132.070 140.690,132.000 140.731,132.000 140.833 C 132.000 140.936,131.930 140.977,131.845 140.924 C 131.760 140.871,131.645 140.900,131.591 140.988 C 131.537 141.076,130.927 141.471,130.236 141.866 C 129.545 142.260,128.733 142.733,128.431 142.917 C 128.129 143.100,127.721 143.346,127.524 143.464 C 127.328 143.582,127.166 143.620,127.164 143.548 C 127.163 143.476,127.106 143.496,127.039 143.593 C 126.972 143.690,126.392 144.057,125.750 144.408 C 125.108 144.759,124.452 145.160,124.292 145.299 C 124.131 145.438,124.000 145.493,124.000 145.422 C 124.000 145.351,123.887 145.386,123.750 145.500 C 123.612 145.614,123.498 145.642,123.495 145.562 C 123.492 145.482,123.417 145.541,123.328 145.693 C 123.239 145.846,122.435 146.359,121.542 146.835 C 120.648 147.311,119.798 147.805,119.653 147.934 C 119.508 148.062,119.339 148.117,119.278 148.056 C 119.217 147.995,119.167 148.036,119.167 148.149 C 119.167 148.261,119.092 148.307,119.000 148.250 C 118.908 148.193,118.833 148.213,118.833 148.293 C 118.833 148.374,118.290 148.726,117.625 149.075 C 116.960 149.425,116.285 149.825,116.125 149.965 C 115.965 150.104,115.833 150.160,115.833 150.089 C 115.833 150.018,115.571 150.161,115.250 150.405 C 114.929 150.650,114.666 150.790,114.664 150.717 C 114.663 150.643,114.606 150.665,114.539 150.764 C 114.472 150.864,113.779 151.298,113.000 151.729 C 111.462 152.580,111.155 152.760,110.459 153.220 C 110.207 153.386,110.000 153.477,110.000 153.421 C 110.000 153.366,109.906 153.401,109.792 153.499 C 109.403 153.832,107.617 154.839,107.544 154.766 C 107.504 154.726,107.284 154.856,107.056 155.055 C 106.827 155.254,106.590 155.417,106.528 155.417 C 106.467 155.417,106.154 155.604,105.833 155.833 C 105.513 156.062,105.250 156.216,105.250 156.177 C 105.250 156.106,104.927 156.292,103.610 157.122 C 103.258 157.344,102.934 157.490,102.891 157.447 C 102.848 157.404,102.634 157.547,102.416 157.766 C 102.158 158.024,101.918 158.125,101.732 158.053 C 101.564 157.989,101.487 158.010,101.546 158.106 C 101.601 158.195,101.370 158.410,101.031 158.583 C 100.693 158.756,100.173 159.075,99.875 159.291 C 99.577 159.507,99.333 159.637,99.333 159.580 C 99.333 159.523,99.136 159.631,98.894 159.821 C 98.653 160.011,98.383 160.167,98.295 160.167 C 98.208 160.167,97.947 160.316,97.715 160.498 C 97.484 160.680,97.228 160.788,97.147 160.738 C 97.066 160.688,97.000 160.709,97.000 160.786 C 97.000 160.862,96.719 161.068,96.375 161.244 C 96.031 161.420,95.506 161.741,95.208 161.957 C 94.910 162.173,94.667 162.297,94.667 162.233 C 94.667 162.168,94.535 162.229,94.375 162.368 C 94.215 162.507,93.558 162.905,92.917 163.254 C 92.275 163.602,91.619 163.999,91.458 164.136 C 91.298 164.273,91.167 164.332,91.167 164.267 C 91.167 164.203,90.904 164.350,90.583 164.595 C 90.263 164.839,90.000 164.982,90.000 164.911 C 90.000 164.840,89.869 164.895,89.708 165.034 C 89.548 165.173,88.892 165.572,88.250 165.920 C 87.608 166.269,86.952 166.666,86.792 166.803 C 86.631 166.940,86.500 166.999,86.500 166.934 C 86.500 166.869,86.225 167.026,85.888 167.283 C 85.551 167.540,85.270 167.717,85.263 167.677 C 85.256 167.637,85.063 167.722,84.833 167.865 C 83.809 168.507,82.074 169.464,81.976 169.441 C 81.917 169.428,81.729 169.537,81.559 169.684 C 81.389 169.831,80.481 170.383,79.540 170.911 C 78.600 171.439,77.788 171.938,77.737 172.021 C 77.686 172.104,77.574 172.129,77.488 172.076 C 77.403 172.023,77.333 172.064,77.333 172.167 C 77.333 172.269,77.264 172.310,77.178 172.257 C 77.093 172.204,76.979 172.233,76.924 172.321 C 76.870 172.409,76.266 172.790,75.583 173.167 C 74.900 173.544,74.297 173.924,74.242 174.012 C 74.188 174.100,74.074 174.129,73.988 174.076 C 73.903 174.023,73.833 174.060,73.833 174.157 C 73.833 174.254,73.730 174.333,73.604 174.333 C 73.477 174.333,73.281 174.445,73.168 174.581 C 73.055 174.718,72.896 174.789,72.814 174.738 C 72.733 174.688,72.667 174.731,72.667 174.833 C 72.667 174.936,72.598 174.977,72.514 174.925 C 72.430 174.874,72.337 174.893,72.306 174.968 C 72.275 175.044,71.671 175.423,70.962 175.812 C 70.254 176.201,69.630 176.591,69.576 176.679 C 69.521 176.767,69.407 176.796,69.322 176.743 C 69.236 176.690,69.167 176.713,69.167 176.794 C 69.167 176.875,68.510 177.294,67.708 177.726 C 66.906 178.158,66.100 178.601,65.917 178.710 C 65.187 179.146,64.910 179.287,64.769 179.296 C 64.687 179.301,64.575 179.376,64.519 179.463 C 64.387 179.666,62.167 180.883,62.167 180.752 C 62.167 180.698,61.961 180.844,61.710 181.077 C 61.459 181.309,61.169 181.500,61.066 181.500 C 60.963 181.500,60.683 181.653,60.445 181.841 C 60.207 182.028,59.990 182.164,59.964 182.143 C 59.918 182.106,59.589 182.296,58.295 183.109 C 57.953 183.324,57.607 183.500,57.526 183.500 C 57.445 183.500,57.181 183.655,56.939 183.845 C 56.698 184.035,56.500 184.144,56.500 184.087 C 56.500 184.030,56.237 184.183,55.917 184.428 C 55.596 184.673,55.333 184.824,55.333 184.763 C 55.333 184.703,55.240 184.734,55.125 184.832 C 54.708 185.191,52.948 186.170,52.867 186.089 C 52.821 186.043,52.650 186.161,52.486 186.350 C 52.322 186.538,52.087 186.708,51.964 186.726 C 51.840 186.744,51.517 186.917,51.245 187.111 C 50.973 187.305,50.675 187.482,50.583 187.505 C 50.399 187.551,49.892 187.850,48.991 188.443 C 48.665 188.658,48.340 188.833,48.267 188.833 C 48.195 188.833,47.947 188.982,47.715 189.164 C 47.484 189.346,47.228 189.455,47.147 189.405 C 47.066 189.355,47.000 189.376,47.000 189.452 C 47.000 189.528,46.719 189.735,46.375 189.911 C 46.031 190.087,45.506 190.408,45.208 190.624 C 44.910 190.840,44.667 190.970,44.667 190.913 C 44.667 190.856,44.469 190.965,44.228 191.155 C 43.986 191.345,43.717 191.500,43.629 191.500 C 43.541 191.500,43.280 191.649,43.048 191.831 C 42.817 192.013,42.561 192.121,42.480 192.071 C 42.400 192.021,42.333 192.043,42.333 192.119 C 42.333 192.195,42.052 192.403,41.708 192.580 C 41.365 192.758,40.858 193.056,40.583 193.243 C 40.308 193.430,40.046 193.585,40.000 193.587 C 39.923 193.592,39.645 193.749,38.750 194.294 C 38.567 194.405,38.117 194.656,37.750 194.851 C 37.383 195.046,36.952 195.321,36.792 195.462 C 36.631 195.603,36.500 195.665,36.500 195.601 C 36.500 195.536,36.237 195.683,35.917 195.928 C 35.596 196.173,35.333 196.315,35.333 196.244 C 35.333 196.173,35.202 196.229,35.042 196.368 C 34.881 196.507,34.225 196.905,33.583 197.254 C 32.942 197.602,32.278 198.006,32.108 198.152 C 31.937 198.297,31.750 198.408,31.691 198.398 C 31.587 198.381,31.278 198.537,30.583 198.960 C 30.400 199.072,29.955 199.322,29.595 199.517 L 28.941 199.870 29.345 200.182 C 29.568 200.353,29.818 200.494,29.901 200.496 C 29.984 200.498,30.303 200.691,30.609 200.925 C 30.916 201.159,31.167 201.311,31.167 201.264 C 31.167 201.216,31.421 201.343,31.731 201.547 C 32.325 201.936,33.358 202.544,33.500 202.587 C 33.924 202.716,34.146 202.898,34.057 203.043 C 33.996 203.141,34.028 203.169,34.129 203.106 C 34.229 203.045,34.358 203.072,34.417 203.167 C 34.475 203.261,34.593 203.296,34.678 203.243 C 34.764 203.190,34.833 203.221,34.833 203.312 C 34.833 203.403,34.978 203.523,35.154 203.579 C 35.330 203.635,35.743 203.863,36.071 204.086 C 36.398 204.308,36.667 204.450,36.667 204.400 C 36.667 204.351,36.910 204.484,37.208 204.697 C 37.506 204.909,37.787 205.088,37.833 205.094 C 38.051 205.123,38.998 205.766,38.999 205.885 C 39.000 205.959,39.074 205.974,39.165 205.918 C 39.256 205.861,39.514 205.999,39.739 206.223 C 39.963 206.448,40.177 206.600,40.215 206.563 C 40.285 206.493,42.082 207.511,42.458 207.834 C 42.573 207.933,42.667 207.961,42.667 207.897 C 42.667 207.834,42.798 207.894,42.958 208.032 C 43.119 208.169,43.700 208.530,44.250 208.833 C 44.800 209.137,45.381 209.498,45.542 209.635 C 45.702 209.773,45.834 209.817,45.836 209.734 C 45.837 209.651,45.894 209.667,45.961 209.770 C 46.028 209.872,46.458 210.156,46.917 210.401 C 47.375 210.645,48.050 211.025,48.417 211.245 C 48.783 211.465,49.383 211.810,49.750 212.011 C 50.117 212.213,50.472 212.462,50.539 212.564 C 50.606 212.666,50.663 212.688,50.664 212.613 C 50.666 212.538,50.864 212.631,51.106 212.821 C 51.347 213.011,51.613 213.167,51.696 213.167 C 51.779 213.167,52.050 213.306,52.298 213.476 C 53.196 214.091,53.752 214.407,53.875 214.370 C 53.944 214.350,54.000 214.413,54.000 214.510 C 54.000 214.607,54.070 214.643,54.155 214.590 C 54.240 214.538,54.355 214.567,54.409 214.654 C 54.463 214.742,55.067 215.123,55.750 215.500 C 56.433 215.877,57.037 216.258,57.091 216.346 C 57.145 216.433,57.260 216.462,57.345 216.410 C 57.430 216.357,57.500 216.384,57.500 216.470 C 57.500 216.556,57.725 216.719,58.000 216.833 C 58.275 216.947,58.500 217.119,58.500 217.215 C 58.500 217.310,58.548 217.341,58.606 217.283 C 58.665 217.224,58.946 217.343,59.231 217.546 C 59.517 217.750,59.800 217.916,59.862 217.916 C 59.923 217.917,60.167 218.085,60.403 218.291 C 60.640 218.496,60.833 218.626,60.833 218.579 C 60.833 218.445,63.226 219.777,64.833 220.808 C 65.063 220.955,65.287 221.077,65.333 221.079 C 65.379 221.082,65.642 221.237,65.917 221.424 C 66.192 221.611,66.698 221.909,67.042 222.087 C 67.385 222.264,67.667 222.480,67.667 222.566 C 67.667 222.652,67.717 222.672,67.778 222.611 C 67.839 222.549,68.008 222.601,68.153 222.725 C 68.298 222.850,68.829 223.166,69.333 223.427 C 69.837 223.689,70.475 224.056,70.750 224.243 C 71.025 224.430,71.287 224.585,71.333 224.587 C 71.426 224.593,72.180 225.053,72.868 225.524 C 73.117 225.694,73.388 225.833,73.471 225.833 C 73.554 225.833,73.836 226.002,74.098 226.208 C 74.361 226.415,74.594 226.567,74.618 226.547 C 74.704 226.474,75.665 227.089,75.666 227.218 C 75.666 227.292,75.741 227.307,75.832 227.251 C 75.923 227.195,76.181 227.332,76.405 227.557 C 76.630 227.781,76.844 227.934,76.882 227.896 C 76.952 227.826,78.749 228.845,79.125 229.168 C 79.240 229.266,79.333 229.294,79.333 229.231 C 79.333 229.167,79.465 229.227,79.625 229.365 C 79.785 229.502,80.367 229.863,80.917 230.167 C 81.467 230.470,82.048 230.831,82.208 230.968 C 82.369 231.106,82.500 231.158,82.500 231.083 C 82.500 231.009,82.631 231.064,82.792 231.205 C 82.952 231.346,83.383 231.623,83.750 231.820 C 84.117 232.018,84.717 232.359,85.083 232.578 C 85.450 232.798,86.050 233.143,86.417 233.345 C 86.783 233.546,87.129 233.783,87.185 233.870 C 87.241 233.957,87.316 234.008,87.352 233.983 C 87.412 233.941,87.775 234.131,88.583 234.630 C 88.767 234.743,89.235 235.000,89.625 235.201 C 90.015 235.402,90.333 235.631,90.333 235.710 C 90.333 235.789,90.408 235.807,90.500 235.750 C 90.592 235.693,90.667 235.726,90.667 235.823 C 90.667 235.921,90.738 236.000,90.824 236.000 C 90.973 236.000,92.580 236.886,93.500 237.475 C 93.729 237.621,93.954 237.745,94.000 237.750 C 94.151 237.766,95.081 238.405,95.206 238.579 C 95.273 238.673,95.329 238.685,95.331 238.605 C 95.332 238.526,95.596 238.661,95.917 238.905 C 96.238 239.150,96.500 239.297,96.500 239.233 C 96.500 239.168,96.631 239.231,96.792 239.372 C 96.952 239.514,97.533 239.865,98.083 240.153 C 99.028 240.648,100.575 241.548,101.500 242.141 C 101.729 242.288,101.954 242.410,102.000 242.413 C 102.046 242.415,102.308 242.570,102.583 242.757 C 102.858 242.944,103.360 243.240,103.698 243.414 C 104.036 243.589,104.268 243.805,104.212 243.894 C 104.154 243.988,104.227 244.012,104.385 243.952 C 104.534 243.895,104.753 243.943,104.870 244.059 C 104.987 244.175,105.308 244.385,105.583 244.525 C 106.711 245.099,107.757 245.728,107.872 245.900 C 107.940 246.001,107.996 246.015,107.997 245.933 C 107.999 245.850,108.131 245.894,108.292 246.032 C 108.452 246.169,109.033 246.530,109.583 246.833 C 110.133 247.137,110.722 247.505,110.892 247.651 C 111.063 247.797,111.230 247.901,111.264 247.881 C 111.378 247.816,112.331 248.414,112.332 248.552 C 112.333 248.626,112.408 248.640,112.499 248.584 C 112.590 248.528,112.847 248.666,113.072 248.890 C 113.296 249.114,113.515 249.263,113.558 249.220 C 113.601 249.177,113.924 249.323,114.276 249.545 C 115.462 250.291,115.750 250.453,115.858 250.435 C 115.917 250.425,116.104 250.536,116.274 250.682 C 116.444 250.829,117.033 251.197,117.583 251.500 C 118.133 251.803,118.715 252.164,118.875 252.302 C 119.035 252.439,119.167 252.491,119.167 252.417 C 119.167 252.342,119.298 252.397,119.458 252.538 C 119.619 252.679,120.050 252.956,120.417 253.153 C 120.783 253.351,121.383 253.692,121.750 253.912 C 122.117 254.131,122.717 254.476,123.083 254.678 C 123.450 254.880,123.805 255.128,123.872 255.231 C 123.940 255.333,123.996 255.357,123.997 255.283 C 123.999 255.210,124.263 255.350,124.583 255.595 C 124.904 255.839,125.167 255.995,125.167 255.941 C 125.167 255.888,125.435 256.025,125.763 256.248 C 126.090 256.470,126.503 256.698,126.679 256.754 C 126.856 256.810,127.000 256.930,127.000 257.021 C 127.000 257.112,127.075 257.140,127.167 257.083 C 127.258 257.027,127.333 257.064,127.333 257.167 C 127.333 257.269,127.403 257.310,127.488 257.257 C 127.574 257.204,127.687 257.231,127.740 257.317 C 127.793 257.403,128.342 257.752,128.960 258.093 C 129.578 258.434,130.222 258.834,130.392 258.982 C 130.563 259.129,130.750 259.242,130.809 259.232 C 130.953 259.208,131.718 259.698,131.872 259.913 C 131.940 260.007,131.996 260.022,131.997 259.947 C 131.999 259.872,132.207 259.947,132.459 260.114 C 133.251 260.636,133.553 260.815,134.667 261.417 C 135.262 261.739,135.900 262.094,136.083 262.205 C 136.267 262.317,136.679 262.567,137.000 262.761 C 137.321 262.955,137.808 263.255,138.083 263.427 C 138.358 263.600,138.621 263.743,138.667 263.746 C 138.712 263.748,138.975 263.904,139.250 264.091 C 139.525 264.278,140.027 264.573,140.365 264.748 C 140.703 264.922,140.934 265.138,140.879 265.227 C 140.821 265.321,140.894 265.346,141.051 265.285 C 141.201 265.228,141.420 265.276,141.537 265.392 C 141.654 265.508,141.975 265.718,142.250 265.858 C 143.377 266.433,144.424 267.062,144.539 267.234 C 144.606 267.334,144.663 267.349,144.664 267.266 C 144.666 267.183,144.798 267.227,144.958 267.365 C 145.119 267.502,145.700 267.863,146.250 268.167 C 146.800 268.470,147.389 268.838,147.559 268.984 C 147.729 269.130,147.879 269.217,147.892 269.177 C 147.925 269.080,148.883 269.695,149.039 269.913 C 149.106 270.007,149.163 270.024,149.164 269.952 C 149.166 269.880,149.298 269.901,149.458 269.999 C 149.619 270.097,150.050 270.362,150.417 270.589 C 150.783 270.816,151.383 271.162,151.750 271.357 C 152.117 271.552,152.472 271.795,152.539 271.897 C 152.606 272.000,152.663 272.015,152.664 271.933 C 152.666 271.850,152.798 271.894,152.958 272.032 C 153.119 272.169,153.700 272.530,154.250 272.833 C 154.800 273.137,155.381 273.498,155.542 273.635 C 155.702 273.773,155.833 273.824,155.833 273.750 C 155.833 273.676,155.965 273.730,156.125 273.871 C 156.285 274.012,156.717 274.287,157.083 274.482 C 157.450 274.677,157.900 274.928,158.083 275.039 C 158.267 275.151,158.679 275.400,159.000 275.594 C 159.321 275.788,159.808 276.088,160.083 276.261 C 160.358 276.433,160.621 276.579,160.667 276.585 C 160.751 276.595,161.300 276.901,161.917 277.281 C 162.100 277.394,162.569 277.654,162.958 277.860 C 163.348 278.065,163.667 278.298,163.667 278.376 C 163.667 278.455,163.742 278.473,163.833 278.417 C 163.925 278.360,164.000 278.398,164.000 278.500 C 164.000 278.602,164.070 278.643,164.155 278.590 C 164.240 278.538,164.354 278.565,164.407 278.650 C 164.460 278.736,165.009 279.085,165.626 279.426 C 166.244 279.767,166.881 280.160,167.042 280.299 C 167.202 280.438,167.333 280.499,167.333 280.434 C 167.333 280.369,167.584 280.508,167.891 280.742 C 168.197 280.975,168.504 281.167,168.573 281.167 C 168.642 281.167,168.935 281.335,169.224 281.541 C 169.513 281.748,169.800 281.916,169.862 281.916 C 169.923 281.917,170.167 282.085,170.403 282.291 C 170.640 282.496,170.833 282.626,170.833 282.579 C 170.833 282.424,172.993 283.627,173.185 283.889 C 173.241 283.966,173.336 284.021,173.395 284.012 C 173.455 284.002,173.690 284.108,173.918 284.247 C 174.147 284.386,174.520 284.614,174.748 284.753 C 174.976 284.892,175.220 285.010,175.290 285.015 C 175.360 285.020,175.642 285.189,175.917 285.391 C 176.192 285.593,176.698 285.905,177.042 286.084 C 177.385 286.263,177.667 286.472,177.667 286.548 C 177.667 286.624,177.736 286.644,177.820 286.592 C 177.904 286.540,178.073 286.596,178.195 286.717 C 178.317 286.838,178.642 287.051,178.917 287.191 C 180.044 287.766,181.091 288.395,181.206 288.567 C 181.273 288.668,181.329 288.682,181.331 288.599 C 181.332 288.516,181.465 288.561,181.625 288.698 C 181.785 288.836,182.367 289.197,182.917 289.500 C 183.467 289.803,184.056 290.171,184.226 290.318 C 184.396 290.464,184.565 290.563,184.603 290.539 C 184.667 290.497,185.492 290.980,185.667 291.163 C 185.713 291.211,185.862 291.275,186.000 291.305 C 186.137 291.335,186.368 291.466,186.513 291.596 C 186.658 291.727,186.828 291.833,186.892 291.833 C 186.955 291.833,187.287 292.009,187.629 292.224 C 188.879 293.010,189.165 293.171,189.231 293.128 C 189.268 293.103,189.437 293.203,189.608 293.349 C 189.778 293.495,190.367 293.863,190.917 294.167 C 191.467 294.470,192.048 294.831,192.208 294.968 C 192.369 295.106,192.500 295.158,192.500 295.083 C 192.500 295.009,192.631 295.061,192.792 295.199 C 192.952 295.337,193.646 295.767,194.333 296.154 C 196.205 297.208,196.894 297.622,197.125 297.827 C 197.240 297.930,197.333 297.968,197.333 297.912 C 197.333 297.856,197.540 297.947,197.792 298.114 C 198.618 298.659,198.907 298.830,199.625 299.201 C 200.015 299.402,200.333 299.631,200.333 299.710 C 200.333 299.789,200.400 299.812,200.480 299.762 C 200.561 299.712,200.805 299.807,201.022 299.973 C 201.239 300.139,201.867 300.525,202.417 300.830 C 202.967 301.135,203.548 301.498,203.708 301.635 C 203.869 301.773,204.000 301.832,204.000 301.767 C 204.000 301.703,204.251 301.841,204.557 302.075 C 204.864 302.309,205.171 302.500,205.240 302.500 C 205.309 302.500,205.602 302.669,205.891 302.875 C 206.180 303.081,206.467 303.250,206.528 303.250 C 206.590 303.250,206.833 303.418,207.070 303.624 C 207.306 303.830,207.500 303.960,207.500 303.914 C 207.500 303.770,209.674 304.980,209.852 305.223 C 209.908 305.299,209.983 305.341,210.019 305.316 C 210.054 305.291,210.271 305.385,210.500 305.525 C 210.729 305.665,211.104 305.893,211.333 306.033 C 211.563 306.172,211.825 306.302,211.917 306.322 C 212.008 306.341,212.308 306.523,212.583 306.725 C 212.858 306.927,213.365 307.238,213.708 307.417 C 214.052 307.596,214.333 307.805,214.333 307.881 C 214.333 307.957,214.403 307.976,214.489 307.923 C 214.575 307.870,214.819 307.997,215.031 308.205 C 215.243 308.413,215.492 308.583,215.583 308.583 C 215.801 308.583,217.400 309.531,217.473 309.703 C 217.503 309.776,217.597 309.793,217.681 309.741 C 217.765 309.689,217.833 309.731,217.833 309.833 C 217.833 309.936,217.903 309.977,217.988 309.924 C 218.074 309.871,218.187 309.898,218.240 309.984 C 218.293 310.069,218.842 310.419,219.460 310.760 C 220.078 311.101,220.715 311.493,220.875 311.632 C 221.035 311.771,221.167 311.824,221.167 311.750 C 221.167 311.676,221.298 311.730,221.458 311.871 C 221.619 312.012,222.050 312.288,222.417 312.485 C 222.783 312.681,223.383 313.027,223.750 313.255 C 224.117 313.482,224.717 313.828,225.083 314.023 C 225.450 314.218,225.805 314.462,225.872 314.564 C 225.940 314.666,225.996 314.682,225.997 314.599 C 225.999 314.516,226.131 314.562,226.292 314.701 C 226.452 314.840,227.108 315.241,227.750 315.592 C 228.392 315.943,228.972 316.310,229.039 316.407 C 229.115 316.516,229.164 316.520,229.167 316.417 C 229.170 316.315,229.219 316.319,229.294 316.427 C 229.362 316.525,230.054 316.958,230.833 317.390 C 232.500 318.314,232.741 318.458,233.458 318.966 C 233.756 319.178,234.000 319.304,234.000 319.247 C 234.000 319.190,234.207 319.280,234.459 319.447 C 235.241 319.963,235.555 320.149,236.417 320.604 C 236.875 320.846,237.305 321.128,237.372 321.230 C 237.440 321.333,237.496 321.349,237.497 321.266 C 237.499 321.183,237.631 321.227,237.792 321.365 C 237.952 321.502,238.533 321.863,239.083 322.167 C 239.633 322.470,240.215 322.831,240.375 322.968 C 240.535 323.106,240.667 323.165,240.667 323.101 C 240.667 323.036,240.917 323.174,241.224 323.408 C 241.531 323.642,241.838 323.833,241.907 323.833 C 241.976 323.833,242.268 324.002,242.558 324.208 C 242.847 324.414,243.134 324.583,243.195 324.583 C 243.256 324.583,243.487 324.733,243.707 324.917 C 243.927 325.100,244.214 325.274,244.345 325.303 C 244.476 325.332,244.771 325.480,245.000 325.632 C 245.229 325.783,245.472 325.891,245.540 325.871 C 245.609 325.851,245.753 325.976,245.862 326.150 C 245.971 326.324,246.159 326.429,246.280 326.382 C 246.401 326.336,246.500 326.385,246.500 326.492 C 246.500 326.599,246.575 326.640,246.667 326.583 C 246.758 326.527,246.833 326.555,246.833 326.646 C 246.833 326.736,246.978 326.857,247.154 326.913 C 247.330 326.969,247.743 327.196,248.071 327.419 C 248.398 327.641,248.667 327.783,248.667 327.734 C 248.667 327.684,248.910 327.818,249.208 328.030 C 249.506 328.242,249.787 328.421,249.833 328.427 C 250.051 328.457,250.998 329.099,250.999 329.218 C 251.000 329.292,251.074 329.307,251.165 329.251 C 251.256 329.195,251.514 329.332,251.739 329.557 C 251.963 329.781,252.177 329.934,252.215 329.896 C 252.285 329.826,254.082 330.845,254.458 331.168 C 254.573 331.266,254.667 331.294,254.667 331.231 C 254.667 331.167,254.798 331.227,254.958 331.365 C 255.119 331.502,255.700 331.863,256.250 332.167 C 256.800 332.470,257.381 332.831,257.542 332.968 C 257.702 333.106,257.834 333.150,257.836 333.067 C 257.837 332.985,257.894 333.001,257.961 333.103 C 258.028 333.206,258.458 333.489,258.917 333.732 C 259.375 333.975,260.050 334.360,260.417 334.588 C 260.783 334.816,261.383 335.162,261.750 335.357 C 262.117 335.552,262.472 335.795,262.539 335.897 C 262.606 336.000,262.663 336.022,262.664 335.946 C 262.666 335.871,262.864 335.965,263.106 336.155 C 263.347 336.345,263.613 336.500,263.696 336.500 C 263.779 336.500,264.050 336.639,264.298 336.809 C 265.196 337.424,265.752 337.740,265.875 337.704 C 265.944 337.683,266.000 337.746,266.000 337.843 C 266.000 337.940,266.070 337.977,266.155 337.924 C 266.240 337.871,266.355 337.900,266.409 337.988 C 266.463 338.076,267.067 338.456,267.750 338.833 C 268.433 339.210,269.037 339.591,269.091 339.679 C 269.145 339.767,269.260 339.796,269.345 339.743 C 269.430 339.690,269.500 339.717,269.500 339.803 C 269.500 339.889,269.725 340.053,270.000 340.167 C 270.275 340.281,270.500 340.452,270.500 340.548 C 270.500 340.644,270.548 340.674,270.606 340.616 C 270.665 340.558,270.920 340.658,271.174 340.838 C 271.427 341.019,271.699 341.167,271.777 341.167 C 271.856 341.167,272.143 341.373,272.414 341.625 C 272.686 341.877,272.932 342.057,272.961 342.024 C 273.060 341.915,274.000 342.373,274.000 342.530 C 274.000 342.616,274.070 342.643,274.155 342.590 C 274.240 342.538,274.354 342.565,274.407 342.650 C 274.460 342.736,275.009 343.085,275.626 343.426 C 276.244 343.767,276.881 344.160,277.042 344.299 C 277.202 344.438,277.333 344.491,277.333 344.417 C 277.333 344.342,277.465 344.398,277.625 344.541 C 277.785 344.684,278.292 345.007,278.750 345.259 C 279.208 345.511,279.638 345.800,279.706 345.900 C 279.773 346.001,279.829 346.029,279.831 345.963 C 279.832 345.897,280.087 346.010,280.398 346.213 C 280.991 346.603,282.025 347.210,282.167 347.253 C 282.598 347.385,282.813 347.567,282.722 347.726 C 282.662 347.831,282.675 347.861,282.750 347.793 C 282.825 347.725,282.987 347.753,283.110 347.855 C 283.233 347.957,283.333 347.989,283.333 347.925 C 283.333 347.861,283.531 347.965,283.772 348.155 C 284.014 348.345,284.286 348.500,284.377 348.500 C 284.485 348.500,284.523 343.158,284.486 332.958 C 284.427 316.780,284.491 292.760,284.873 186.917 C 284.998 152.175,285.105 120.375,285.111 116.250 C 285.117 112.125,285.151 96.206,285.188 80.875 C 285.224 65.544,285.216 53.004,285.169 53.009 C 285.122 53.014,284.933 53.114,284.750 53.232 M205.639 147.485 C 206.311 147.586,206.924 147.630,207.002 147.582 C 207.080 147.534,207.189 147.568,207.245 147.658 C 207.301 147.749,207.568 147.778,207.840 147.724 C 208.146 147.662,208.333 147.694,208.333 147.807 C 208.333 147.908,208.437 147.950,208.564 147.901 C 208.690 147.852,209.229 147.926,209.760 148.065 C 210.291 148.203,210.782 148.282,210.851 148.239 C 210.920 148.196,211.022 148.234,211.077 148.323 C 211.132 148.412,211.280 148.446,211.405 148.398 C 211.530 148.350,211.683 148.392,211.745 148.491 C 211.806 148.591,211.917 148.634,211.992 148.588 C 212.067 148.542,212.564 148.648,213.098 148.824 C 213.631 149.000,214.128 149.107,214.201 149.062 C 214.274 149.017,214.333 149.064,214.333 149.167 C 214.333 149.269,214.400 149.312,214.482 149.261 C 214.564 149.210,214.932 149.275,215.301 149.405 C 215.669 149.535,216.014 149.597,216.068 149.543 C 216.122 149.489,216.167 149.532,216.167 149.639 C 216.167 149.746,216.223 149.815,216.292 149.792 C 216.492 149.726,218.404 150.398,218.539 150.583 C 218.606 150.675,218.663 150.692,218.664 150.622 C 218.666 150.551,218.967 150.646,219.333 150.833 C 219.700 151.020,220.000 151.139,220.000 151.096 C 220.000 150.935,224.627 153.111,225.042 153.468 C 225.202 153.606,225.333 153.664,225.333 153.598 C 225.333 153.532,225.551 153.632,225.817 153.822 C 226.084 154.012,226.384 154.167,226.484 154.167 C 226.584 154.167,226.667 154.237,226.667 154.322 C 226.667 154.408,226.813 154.524,226.992 154.581 C 227.417 154.716,229.900 156.332,229.972 156.521 C 230.003 156.601,230.127 156.667,230.248 156.667 C 230.443 156.667,231.047 157.108,232.306 158.171 C 232.520 158.352,232.766 158.500,232.853 158.500 C 232.939 158.500,233.054 158.612,233.106 158.750 C 233.159 158.887,233.278 159.000,233.370 159.000 C 233.461 159.000,233.869 159.337,234.276 159.750 C 234.683 160.162,235.076 160.500,235.150 160.500 C 235.223 160.500,235.654 160.894,236.107 161.375 C 236.560 161.856,237.058 162.362,237.214 162.500 C 237.803 163.019,239.784 165.115,240.421 165.893 C 240.785 166.339,241.215 166.824,241.375 166.972 C 241.535 167.120,241.667 167.329,241.667 167.436 C 241.667 167.543,241.784 167.676,241.927 167.731 C 242.071 167.786,242.145 167.900,242.093 167.985 C 242.041 168.069,242.065 168.163,242.147 168.194 C 242.347 168.270,243.500 169.797,243.500 169.988 C 243.500 170.071,243.562 170.164,243.638 170.194 C 243.783 170.253,245.040 172.142,245.678 173.259 C 247.236 175.990,248.035 177.574,248.048 177.958 C 248.052 178.073,248.103 178.167,248.161 178.167 C 248.284 178.167,248.751 179.357,248.700 179.542 C 248.682 179.610,248.736 179.667,248.820 179.667 C 248.944 179.667,249.604 181.319,249.535 181.455 C 249.524 181.476,249.698 181.907,249.922 182.413 C 250.146 182.919,250.296 183.333,250.255 183.333 C 250.215 183.333,250.364 183.817,250.586 184.407 C 250.808 184.998,251.026 185.679,251.070 185.920 C 251.113 186.161,251.233 186.614,251.336 186.926 C 251.439 187.238,251.476 187.570,251.419 187.663 C 251.361 187.757,251.401 187.833,251.508 187.833 C 251.615 187.833,251.660 187.943,251.608 188.078 C 251.557 188.213,251.588 188.368,251.677 188.423 C 251.766 188.478,251.804 188.580,251.761 188.649 C 251.718 188.718,251.795 189.203,251.931 189.726 C 252.068 190.249,252.138 190.745,252.087 190.827 C 252.036 190.910,252.076 191.027,252.175 191.089 C 252.275 191.150,252.312 191.315,252.258 191.455 C 252.205 191.594,252.244 191.809,252.345 191.930 C 252.446 192.052,252.490 192.214,252.443 192.291 C 252.396 192.367,252.466 193.139,252.599 194.006 C 252.733 194.874,252.799 195.828,252.746 196.128 C 252.693 196.427,252.709 196.765,252.781 196.878 C 252.960 197.159,252.965 203.169,252.786 203.279 C 252.707 203.328,252.687 203.641,252.741 203.975 C 252.795 204.310,252.731 205.287,252.600 206.148 C 252.469 207.008,252.398 207.807,252.442 207.922 C 252.486 208.038,252.446 208.180,252.352 208.238 C 252.258 208.297,252.224 208.455,252.276 208.591 C 252.328 208.727,252.288 208.937,252.187 209.059 C 252.086 209.181,252.044 209.322,252.095 209.372 C 252.145 209.423,252.073 209.898,251.935 210.428 C 251.796 210.958,251.718 211.448,251.761 211.518 C 251.804 211.587,251.766 211.689,251.677 211.744 C 251.588 211.799,251.557 211.954,251.608 212.089 C 251.660 212.223,251.615 212.333,251.508 212.333 C 251.401 212.333,251.357 212.403,251.410 212.489 C 251.463 212.575,251.393 212.968,251.255 213.364 C 251.118 213.760,251.004 214.252,251.002 214.458 C 251.001 214.665,250.921 214.833,250.823 214.833 C 250.726 214.833,250.688 214.900,250.739 214.982 C 250.829 215.128,250.597 215.913,249.959 217.618 C 249.780 218.096,249.633 218.546,249.632 218.618 C 249.631 218.691,249.489 219.028,249.315 219.368 C 249.142 219.708,249.000 220.102,249.000 220.243 C 249.000 220.385,248.912 220.500,248.806 220.500 C 248.699 220.500,248.655 220.544,248.709 220.598 C 248.825 220.714,247.819 223.009,247.047 224.389 C 246.748 224.923,246.386 225.607,246.243 225.908 C 246.100 226.209,245.856 226.599,245.700 226.776 C 245.544 226.952,245.392 227.206,245.362 227.340 C 245.289 227.663,244.765 228.501,244.377 228.917 C 244.205 229.100,244.041 229.325,244.011 229.417 C 243.857 229.898,243.777 230.000,243.556 230.000 C 243.423 230.000,243.358 230.072,243.412 230.159 C 243.511 230.320,242.099 232.369,241.818 232.472 C 241.735 232.503,241.667 232.603,241.667 232.695 C 241.667 232.852,241.193 233.420,240.125 234.543 C 239.873 234.809,239.667 235.065,239.667 235.114 C 239.667 235.232,235.236 239.667,235.118 239.667 C 235.067 239.667,234.809 239.873,234.543 240.125 C 233.420 241.193,232.852 241.667,232.695 241.667 C 232.603 241.667,232.503 241.735,232.472 241.818 C 232.369 242.099,230.320 243.511,230.159 243.412 C 230.072 243.358,230.000 243.423,230.000 243.556 C 230.000 243.751,229.560 244.067,229.372 244.007 C 229.347 243.999,229.125 244.180,228.878 244.409 C 228.632 244.637,228.014 245.053,227.507 245.333 C 226.999 245.612,226.171 246.071,225.667 246.353 C 223.258 247.698,220.751 248.862,220.596 248.707 C 220.543 248.654,220.500 248.699,220.500 248.806 C 220.500 248.912,220.385 249.000,220.243 249.000 C 220.102 249.000,219.690 249.152,219.327 249.337 C 218.964 249.522,218.667 249.639,218.667 249.596 C 218.667 249.553,218.254 249.701,217.750 249.924 C 217.246 250.147,216.833 250.294,216.833 250.250 C 216.833 250.207,216.453 250.321,215.988 250.505 C 215.523 250.688,215.073 250.795,214.988 250.743 C 214.903 250.690,214.833 250.726,214.833 250.823 C 214.833 250.921,214.655 251.000,214.437 251.000 C 214.219 251.000,213.760 251.117,213.418 251.260 C 213.075 251.404,212.691 251.481,212.564 251.432 C 212.437 251.384,212.333 251.424,212.333 251.523 C 212.333 251.622,212.223 251.660,212.089 251.608 C 211.954 251.557,211.799 251.588,211.744 251.677 C 211.689 251.766,211.587 251.804,211.518 251.761 C 211.448 251.718,210.964 251.795,210.441 251.931 C 209.917 252.068,209.422 252.138,209.340 252.087 C 209.257 252.036,209.143 252.070,209.087 252.161 C 209.030 252.253,208.818 252.324,208.617 252.319 C 208.240 252.309,208.056 252.330,205.721 252.656 C 204.971 252.760,204.169 252.798,203.938 252.741 C 203.708 252.683,203.421 252.697,203.301 252.773 C 203.005 252.960,196.833 252.965,196.833 252.778 C 196.833 252.696,196.584 252.676,196.278 252.734 C 195.973 252.791,195.144 252.757,194.437 252.659 C 193.730 252.561,192.911 252.464,192.617 252.444 C 192.324 252.425,191.996 252.354,191.890 252.287 C 191.784 252.220,191.585 252.208,191.449 252.261 C 191.312 252.313,191.150 252.275,191.089 252.175 C 191.027 252.076,190.910 252.036,190.827 252.087 C 190.745 252.138,190.249 252.068,189.726 251.931 C 189.203 251.795,188.718 251.718,188.649 251.761 C 188.580 251.804,188.475 251.761,188.417 251.667 C 188.358 251.572,188.250 251.532,188.176 251.578 C 188.102 251.623,187.639 251.542,187.148 251.396 C 186.656 251.250,186.080 251.099,185.868 251.060 C 185.655 251.022,184.998 250.808,184.407 250.586 C 183.817 250.364,183.333 250.215,183.333 250.255 C 183.333 250.296,182.902 250.138,182.375 249.905 C 181.848 249.672,181.397 249.488,181.373 249.497 C 181.211 249.554,180.000 249.084,180.000 248.964 C 180.000 248.881,179.925 248.860,179.833 248.917 C 179.742 248.973,179.667 248.940,179.667 248.843 C 179.667 248.746,179.610 248.682,179.542 248.700 C 179.357 248.751,178.167 248.284,178.167 248.161 C 178.167 248.103,178.073 248.052,177.958 248.048 C 177.574 248.035,175.990 247.236,173.259 245.678 C 172.142 245.040,170.253 243.783,170.194 243.638 C 170.164 243.562,170.071 243.500,169.988 243.500 C 169.797 243.500,168.270 242.347,168.194 242.147 C 168.163 242.065,168.069 242.041,167.985 242.093 C 167.900 242.145,167.786 242.071,167.731 241.927 C 167.676 241.784,167.543 241.667,167.436 241.667 C 167.329 241.667,167.120 241.535,166.972 241.375 C 166.824 241.215,166.339 240.785,165.893 240.419 C 165.200 239.851,163.335 238.097,162.634 237.353 C 162.514 237.226,161.985 236.708,161.458 236.202 C 160.931 235.695,160.500 235.221,160.500 235.148 C 160.500 235.075,160.162 234.683,159.750 234.276 C 159.337 233.869,159.000 233.453,159.000 233.352 C 159.000 233.250,158.923 233.167,158.828 233.167 C 158.734 233.167,158.611 233.050,158.556 232.906 C 158.501 232.763,158.318 232.482,158.150 232.281 C 157.090 231.022,156.667 230.442,156.667 230.248 C 156.667 230.127,156.601 230.003,156.521 229.972 C 156.332 229.900,154.716 227.417,154.581 226.992 C 154.524 226.813,154.408 226.667,154.322 226.667 C 154.237 226.667,154.167 226.584,154.167 226.484 C 154.167 226.384,154.012 226.084,153.822 225.817 C 153.632 225.551,153.525 225.333,153.583 225.333 C 153.642 225.333,153.550 225.127,153.379 224.875 C 152.878 224.134,150.942 220.000,151.096 220.000 C 151.139 220.000,151.020 219.700,150.833 219.333 C 150.646 218.967,150.551 218.666,150.622 218.664 C 150.692 218.663,150.675 218.606,150.583 218.539 C 150.398 218.404,149.726 216.492,149.792 216.292 C 149.815 216.223,149.746 216.167,149.639 216.167 C 149.532 216.167,149.489 216.122,149.543 216.068 C 149.597 216.014,149.535 215.669,149.405 215.301 C 149.275 214.932,149.210 214.564,149.261 214.482 C 149.312 214.400,149.269 214.333,149.167 214.333 C 149.064 214.333,149.017 214.274,149.062 214.201 C 149.107 214.128,149.000 213.631,148.824 213.098 C 148.648 212.564,148.542 212.067,148.588 211.992 C 148.634 211.917,148.591 211.806,148.491 211.745 C 148.392 211.683,148.350 211.530,148.398 211.405 C 148.446 211.280,148.412 211.132,148.323 211.077 C 148.234 211.022,148.194 210.924,148.234 210.860 C 148.274 210.795,148.198 210.272,148.065 209.697 C 147.932 209.122,147.864 208.585,147.914 208.504 C 147.964 208.423,147.923 208.306,147.823 208.243 C 147.722 208.181,147.684 207.956,147.737 207.742 C 147.791 207.528,147.758 207.306,147.665 207.249 C 147.571 207.191,147.530 207.087,147.572 207.018 C 147.615 206.948,147.548 205.997,147.423 204.904 C 147.159 202.584,147.198 196.192,147.487 194.450 C 147.591 193.826,147.635 193.250,147.585 193.170 C 147.535 193.089,147.575 192.973,147.674 192.912 C 147.778 192.848,147.808 192.598,147.747 192.317 C 147.682 192.023,147.709 191.833,147.815 191.833 C 147.911 191.833,147.950 191.730,147.901 191.603 C 147.852 191.476,147.926 190.938,148.065 190.407 C 148.203 189.876,148.282 189.385,148.239 189.316 C 148.196 189.246,148.230 189.147,148.315 189.095 C 148.400 189.042,148.430 188.850,148.382 188.667 C 148.331 188.473,148.377 188.333,148.490 188.333 C 148.598 188.333,148.645 188.267,148.595 188.186 C 148.545 188.105,148.608 187.693,148.736 187.269 C 148.863 186.846,148.928 186.500,148.880 186.500 C 148.832 186.500,148.886 186.387,149.000 186.250 C 149.114 186.112,149.165 186.000,149.113 186.000 C 149.061 186.000,149.158 185.594,149.329 185.097 C 149.499 184.601,149.595 184.151,149.542 184.097 C 149.488 184.044,149.544 184.000,149.667 184.000 C 149.789 184.000,149.843 183.954,149.787 183.898 C 149.732 183.843,149.841 183.411,150.031 182.940 C 150.221 182.469,150.379 181.990,150.382 181.875 C 150.386 181.760,150.451 181.667,150.528 181.667 C 150.604 181.667,150.651 181.610,150.633 181.542 C 150.579 181.347,151.005 180.165,151.442 179.293 C 151.660 178.858,151.824 178.483,151.807 178.459 C 151.740 178.367,153.562 174.742,153.734 174.628 C 153.834 174.560,153.855 174.504,153.780 174.503 C 153.704 174.501,153.798 174.302,153.988 174.061 C 154.178 173.819,154.333 173.563,154.333 173.492 C 154.333 173.356,155.355 171.732,155.665 171.375 C 155.765 171.260,155.801 171.167,155.745 171.167 C 155.689 171.167,155.742 171.063,155.863 170.935 C 156.290 170.486,156.592 170.082,156.606 169.940 C 156.620 169.792,157.710 168.336,158.179 167.837 C 158.324 167.683,158.490 167.432,158.549 167.279 C 158.608 167.126,158.734 167.000,158.828 167.000 C 158.923 167.000,159.000 166.888,159.000 166.751 C 159.000 166.615,159.150 166.409,159.333 166.295 C 159.517 166.180,159.667 166.023,159.667 165.946 C 159.667 165.868,160.269 165.201,161.006 164.464 C 161.742 163.726,162.420 162.983,162.512 162.811 C 162.603 162.640,162.754 162.500,162.846 162.500 C 162.939 162.500,163.639 161.862,164.403 161.083 C 165.166 160.304,165.873 159.667,165.973 159.667 C 166.073 159.667,166.235 159.517,166.333 159.333 C 166.431 159.150,166.622 159.000,166.756 159.000 C 166.890 159.000,167.000 158.923,167.000 158.828 C 167.000 158.734,167.126 158.608,167.279 158.549 C 167.432 158.490,167.683 158.324,167.837 158.179 C 168.354 157.693,169.795 156.620,169.940 156.613 C 170.019 156.610,170.169 156.527,170.273 156.429 C 170.705 156.022,171.167 155.676,171.167 155.758 C 171.167 155.807,171.260 155.765,171.375 155.665 C 171.759 155.332,173.333 154.351,173.333 154.446 C 173.333 154.497,173.596 154.339,173.917 154.095 C 174.237 153.850,174.501 153.710,174.503 153.783 C 174.504 153.857,174.560 153.834,174.628 153.734 C 174.743 153.561,178.108 151.867,178.376 151.847 C 178.446 151.842,178.858 151.660,179.293 151.442 C 180.165 151.005,181.347 150.579,181.542 150.633 C 181.610 150.651,181.667 150.579,181.667 150.472 C 181.667 150.365,181.712 150.323,181.768 150.379 C 181.823 150.435,182.281 150.298,182.786 150.075 C 183.290 149.852,183.769 149.711,183.851 149.761 C 183.933 149.812,184.000 149.761,184.000 149.649 C 184.000 149.536,184.044 149.488,184.097 149.542 C 184.151 149.595,184.601 149.499,185.097 149.329 C 185.594 149.158,186.000 149.061,186.000 149.113 C 186.000 149.165,186.112 149.114,186.250 149.000 C 186.387 148.886,186.500 148.832,186.500 148.880 C 186.500 148.928,186.846 148.863,187.269 148.736 C 187.693 148.608,188.105 148.545,188.186 148.595 C 188.267 148.645,188.333 148.598,188.333 148.490 C 188.333 148.377,188.473 148.331,188.667 148.382 C 188.850 148.430,189.042 148.400,189.095 148.315 C 189.147 148.230,189.246 148.196,189.316 148.239 C 189.385 148.282,189.876 148.203,190.407 148.065 C 190.938 147.926,191.476 147.852,191.603 147.901 C 191.730 147.950,191.833 147.909,191.833 147.810 C 191.833 147.701,192.000 147.672,192.258 147.737 C 192.491 147.796,192.761 147.795,192.858 147.735 C 192.955 147.675,193.345 147.596,193.726 147.560 C 194.106 147.524,194.979 147.434,195.667 147.358 C 197.372 147.172,204.135 147.258,205.639 147.485 " stroke="none" fill="#fc0444" fill-rule="evenodd"></path><path id="path1" d="M285.242 78.083 C 285.242 81.475,285.264 82.839,285.291 81.114 C 285.319 79.389,285.319 76.614,285.291 74.947 C 285.264 73.281,285.242 74.692,285.242 78.083 M285.221 107.583 C 285.222 108.225,285.252 108.467,285.288 108.121 C 285.324 107.775,285.324 107.250,285.287 106.955 C 285.250 106.659,285.221 106.942,285.221 107.583 M285.245 118.833 C 285.245 124.287,285.266 126.519,285.292 123.792 C 285.317 121.065,285.317 116.602,285.292 113.875 C 285.266 111.148,285.245 113.379,285.245 118.833 M197.542 147.286 C 197.794 147.324,198.206 147.324,198.458 147.286 C 198.710 147.248,198.504 147.217,198.000 147.217 C 197.496 147.217,197.290 147.248,197.542 147.286 M201.708 147.286 C 201.960 147.324,202.373 147.324,202.625 147.286 C 202.877 147.248,202.671 147.217,202.167 147.217 C 201.662 147.217,201.456 147.248,201.708 147.286 M195.375 147.448 C 195.535 147.490,195.798 147.490,195.958 147.448 C 196.119 147.406,195.987 147.372,195.667 147.372 C 195.346 147.372,195.215 147.406,195.375 147.448 M204.208 147.448 C 204.369 147.490,204.631 147.490,204.792 147.448 C 204.952 147.406,204.821 147.372,204.500 147.372 C 204.179 147.372,204.048 147.406,204.208 147.448 M217.000 150.083 C 217.229 150.214,217.492 150.322,217.583 150.322 C 217.675 150.322,217.563 150.214,217.333 150.083 C 217.104 149.952,216.842 149.845,216.750 149.845 C 216.658 149.845,216.771 149.952,217.000 150.083 M285.079 161.583 C 285.079 167.725,285.100 170.213,285.125 167.113 C 285.150 164.012,285.150 158.987,285.125 155.946 C 285.099 152.905,285.079 155.442,285.079 161.583 M178.750 151.676 C 178.383 151.849,178.181 151.993,178.300 151.996 C 178.543 152.001,179.500 151.535,179.500 151.412 C 179.500 151.315,179.549 151.298,178.750 151.676 M220.667 151.408 C 220.667 151.454,220.892 151.608,221.167 151.750 C 221.442 151.892,221.667 151.971,221.667 151.925 C 221.667 151.879,221.442 151.726,221.167 151.583 C 220.892 151.441,220.667 151.362,220.667 151.408 M222.667 152.413 C 222.667 152.476,223.041 152.665,224.708 153.438 C 225.520 153.814,225.196 153.532,224.292 153.075 C 223.270 152.558,222.667 152.312,222.667 152.413 M176.083 152.930 C 175.203 153.455,175.470 153.446,176.465 152.917 C 176.895 152.688,177.135 152.507,176.999 152.516 C 176.862 152.524,176.450 152.711,176.083 152.930 M173.583 154.333 C 173.308 154.515,173.158 154.663,173.250 154.662 C 173.417 154.659,174.323 154.010,174.167 154.005 C 174.121 154.003,173.858 154.151,173.583 154.333 M171.799 155.385 C 171.368 155.670,171.040 155.929,171.071 155.960 C 171.102 155.991,171.401 155.831,171.736 155.604 C 172.071 155.377,172.436 155.158,172.547 155.118 C 172.659 155.078,172.713 155.005,172.667 154.956 C 172.621 154.907,172.230 155.100,171.799 155.385 M168.500 157.667 C 168.271 157.846,168.165 157.994,168.266 157.996 C 168.366 157.998,168.584 157.850,168.750 157.667 C 169.130 157.247,169.037 157.247,168.500 157.667 M231.167 157.391 C 231.167 157.436,231.485 157.721,231.875 158.024 C 232.265 158.328,232.477 158.444,232.348 158.281 C 232.091 157.957,231.167 157.261,231.167 157.391 M164.240 161.190 C 163.752 161.710,163.752 161.711,164.194 161.430 C 164.439 161.274,164.680 161.039,164.731 160.907 C 164.864 160.560,164.788 160.604,164.240 161.190 M235.333 160.766 C 235.333 160.850,235.571 161.142,235.860 161.415 C 236.218 161.752,236.330 161.805,236.209 161.580 C 235.989 161.168,235.333 160.559,235.333 160.766 M161.083 164.333 C 160.820 164.608,160.653 164.833,160.713 164.833 C 160.773 164.833,161.052 164.608,161.333 164.333 C 161.615 164.058,161.781 163.833,161.704 163.833 C 161.626 163.833,161.347 164.058,161.083 164.333 M238.861 164.400 C 239.167 164.711,239.449 164.935,239.488 164.898 C 239.585 164.805,238.642 163.833,238.455 163.833 C 238.372 163.833,238.555 164.088,238.861 164.400 M157.586 168.620 L 157.293 169.083 157.679 168.713 C 157.891 168.509,158.023 168.301,157.972 168.249 C 157.920 168.198,157.747 168.365,157.586 168.620 M242.493 168.792 C 242.802 169.181,243.086 169.500,243.123 169.500 C 243.240 169.500,242.526 168.562,242.223 168.319 C 242.062 168.189,242.183 168.402,242.493 168.792 M155.538 171.562 C 155.334 171.860,155.167 172.166,155.167 172.242 C 155.167 172.318,155.358 172.098,155.592 171.754 C 155.825 171.409,155.992 171.103,155.963 171.074 C 155.933 171.044,155.742 171.264,155.538 171.562 M245.334 172.951 C 245.333 173.129,245.548 173.499,246.294 174.604 C 246.583 175.033,246.046 173.917,245.653 173.272 C 245.478 172.985,245.334 172.840,245.334 172.951 M154.272 173.708 L 153.972 174.250 154.316 173.833 C 154.620 173.464,154.756 173.167,154.619 173.167 C 154.593 173.167,154.437 173.410,154.272 173.708 M152.870 176.217 C 152.666 176.602,152.499 176.991,152.500 177.082 C 152.500 177.173,152.693 176.885,152.929 176.442 C 153.165 175.998,153.331 175.609,153.299 175.577 C 153.267 175.544,153.073 175.833,152.870 176.217 M247.261 176.616 C 248.064 178.158,248.313 178.360,247.582 176.876 C 247.258 176.220,246.921 175.637,246.832 175.582 C 246.743 175.527,246.936 175.993,247.261 176.616 M151.637 178.841 C 151.484 179.203,151.388 179.500,151.425 179.500 C 151.547 179.500,152.021 178.480,151.968 178.330 C 151.940 178.249,151.791 178.479,151.637 178.841 M248.417 179.000 C 248.559 179.275,248.713 179.500,248.759 179.500 C 248.804 179.500,248.726 179.275,248.583 179.000 C 248.441 178.725,248.287 178.500,248.241 178.500 C 248.196 178.500,248.274 178.725,248.417 179.000 M284.912 204.583 C 284.912 211.367,284.933 214.117,284.958 210.696 C 284.983 207.275,284.983 201.725,284.958 198.363 C 284.933 195.001,284.912 197.800,284.912 204.583 M147.372 195.667 C 147.372 195.987,147.406 196.119,147.448 195.958 C 147.490 195.798,147.490 195.535,147.448 195.375 C 147.406 195.215,147.372 195.346,147.372 195.667 M252.720 198.000 C 252.720 198.596,252.750 198.840,252.787 198.542 C 252.824 198.244,252.824 197.756,252.787 197.458 C 252.750 197.160,252.720 197.404,252.720 198.000 M147.214 197.917 C 147.216 198.375,147.248 198.543,147.286 198.289 C 147.325 198.036,147.324 197.661,147.284 197.456 C 147.244 197.251,147.213 197.458,147.214 197.917 M252.718 202.083 C 252.719 202.633,252.750 202.838,252.787 202.539 C 252.825 202.239,252.824 201.789,252.786 201.539 C 252.748 201.288,252.717 201.533,252.718 202.083 M147.214 202.250 C 147.216 202.708,147.248 202.876,147.286 202.623 C 147.325 202.369,147.324 201.994,147.284 201.789 C 147.244 201.584,147.213 201.792,147.214 202.250 M147.372 204.500 C 147.372 204.821,147.406 204.952,147.448 204.792 C 147.490 204.631,147.490 204.369,147.448 204.208 C 147.406 204.048,147.372 204.179,147.372 204.500 M149.845 216.750 C 149.845 216.842,149.952 217.104,150.083 217.333 C 150.214 217.563,150.322 217.675,150.322 217.583 C 150.322 217.492,150.214 217.229,150.083 217.000 C 149.952 216.771,149.845 216.658,149.845 216.750 M151.583 221.167 C 151.726 221.442,151.879 221.667,151.925 221.667 C 151.971 221.667,151.892 221.442,151.750 221.167 C 151.608 220.892,151.454 220.667,151.408 220.667 C 151.362 220.667,151.441 220.892,151.583 221.167 M248.417 221.167 C 248.274 221.442,248.196 221.667,248.241 221.667 C 248.287 221.667,248.441 221.442,248.583 221.167 C 248.726 220.892,248.804 220.667,248.759 220.667 C 248.713 220.667,248.559 220.892,248.417 221.167 M152.487 223.042 C 152.712 223.621,153.510 225.167,153.584 225.167 C 153.621 225.167,153.555 224.960,153.438 224.708 C 152.665 223.041,152.476 222.667,152.413 222.667 C 152.374 222.667,152.407 222.835,152.487 223.042 M247.180 223.693 C 246.594 224.865,246.513 225.171,246.999 224.374 C 247.360 223.781,247.853 222.667,247.755 222.667 C 247.721 222.667,247.462 223.129,247.180 223.693 M157.648 231.640 C 157.833 231.900,158.118 232.219,158.281 232.348 C 158.444 232.477,158.328 232.265,158.024 231.875 C 157.406 231.082,157.126 230.907,157.648 231.640 M284.746 246.167 C 284.746 252.904,284.766 255.660,284.792 252.292 C 284.817 248.923,284.817 243.410,284.792 240.042 C 284.766 236.673,284.746 239.429,284.746 246.167 M238.831 235.752 C 238.521 236.072,238.307 236.333,238.354 236.333 C 238.519 236.333,239.557 235.335,239.476 235.254 C 239.431 235.209,239.141 235.433,238.831 235.752 M160.931 235.682 C 161.104 235.874,161.396 236.111,161.580 236.209 C 161.805 236.330,161.752 236.218,161.415 235.860 C 160.871 235.283,160.420 235.117,160.931 235.682 M163.833 238.455 C 163.833 238.642,164.805 239.585,164.898 239.488 C 164.935 239.449,164.711 239.167,164.400 238.861 C 164.088 238.555,163.833 238.372,163.833 238.455 M235.667 238.917 C 235.356 239.237,235.153 239.500,235.216 239.500 C 235.329 239.500,236.333 238.505,236.333 238.392 C 236.333 238.260,236.205 238.361,235.667 238.917 M165.454 240.012 C 165.657 240.225,165.866 240.356,165.917 240.305 C 165.968 240.254,165.802 240.080,165.547 239.919 L 165.083 239.626 165.454 240.012 M234.429 240.022 C 234.253 240.193,234.187 240.333,234.284 240.333 C 234.476 240.333,234.921 239.860,234.815 239.767 C 234.779 239.736,234.606 239.850,234.429 240.022 M168.319 242.223 C 168.562 242.526,169.500 243.240,169.500 243.123 C 169.500 243.086,169.181 242.802,168.792 242.493 C 168.402 242.183,168.189 242.062,168.319 242.223 M231.449 242.422 C 231.192 242.648,231.048 242.833,231.128 242.833 C 231.209 242.833,231.451 242.646,231.667 242.417 C 232.165 241.886,232.055 241.889,231.449 242.422 M173.000 245.455 C 173.137 245.507,173.429 245.689,173.647 245.858 C 173.866 246.028,174.120 246.167,174.212 246.167 C 174.304 246.167,174.104 245.979,173.766 245.750 C 173.428 245.521,173.061 245.339,172.951 245.346 C 172.840 245.354,172.862 245.402,173.000 245.455 M175.582 246.832 C 175.637 246.921,176.220 247.258,176.876 247.582 C 177.533 247.905,177.998 248.098,177.910 248.011 C 177.657 247.759,175.471 246.652,175.582 246.832 M223.707 247.156 C 223.225 247.408,222.779 247.666,222.716 247.729 C 222.534 247.911,223.774 247.365,224.374 246.999 C 225.159 246.520,224.732 246.621,223.707 247.156 M178.500 248.241 C 178.500 248.287,178.725 248.441,179.000 248.583 C 179.275 248.726,179.500 248.804,179.500 248.759 C 179.500 248.713,179.275 248.559,179.000 248.417 C 178.725 248.274,178.500 248.196,178.500 248.241 M197.458 252.787 C 197.756 252.824,198.244 252.824,198.542 252.787 C 198.840 252.750,198.596 252.720,198.000 252.720 C 197.404 252.720,197.160 252.750,197.458 252.787 M201.625 252.787 C 201.923 252.824,202.410 252.824,202.708 252.787 C 203.006 252.750,202.762 252.720,202.167 252.720 C 201.571 252.720,201.327 252.750,201.625 252.787 M284.575 286.583 C 284.575 289.975,284.598 291.339,284.625 289.614 C 284.652 287.889,284.652 285.114,284.625 283.447 C 284.598 281.781,284.575 283.192,284.575 286.583 M284.555 316.250 C 284.555 316.892,284.586 317.134,284.622 316.788 C 284.658 316.442,284.657 315.917,284.620 315.621 C 284.583 315.325,284.554 315.608,284.555 316.250 M284.578 327.333 C 284.578 332.787,284.599 335.019,284.625 332.292 C 284.651 329.565,284.651 325.102,284.625 322.375 C 284.599 319.648,284.578 321.879,284.578 327.333 " stroke="none" fill="#c80c3c" fill-rule="evenodd"></path><path id="path2" d="M285.238 68.333 C 285.238 70.396,285.262 71.240,285.291 70.208 C 285.320 69.177,285.320 67.490,285.291 66.458 C 285.262 65.427,285.238 66.271,285.238 68.333 M285.234 86.667 C 285.234 88.087,285.259 88.669,285.291 87.958 C 285.322 87.248,285.322 86.085,285.291 85.375 C 285.259 84.665,285.234 85.246,285.234 86.667 M285.224 105.250 C 285.224 105.983,285.254 106.263,285.289 105.871 C 285.324 105.479,285.324 104.879,285.288 104.537 C 285.252 104.196,285.223 104.517,285.224 105.250 M285.111 108.778 C 285.050 108.839,285.017 111.670,285.038 115.069 L 285.075 121.250 285.163 115.000 C 285.259 108.094,285.264 108.625,285.111 108.778 M285.055 122.417 C 285.055 123.058,285.086 123.300,285.122 122.955 C 285.158 122.609,285.157 122.084,285.120 121.788 C 285.083 121.492,285.054 121.775,285.055 122.417 M285.066 148.167 C 285.066 149.496,285.092 150.040,285.124 149.375 C 285.155 148.710,285.155 147.623,285.124 146.958 C 285.092 146.294,285.066 146.837,285.066 148.167 M236.833 162.217 C 236.833 162.247,237.068 162.491,237.354 162.760 C 237.719 163.103,237.811 163.145,237.663 162.900 C 237.480 162.597,236.833 162.066,236.833 162.217 M284.900 189.833 C 284.900 191.254,284.926 191.835,284.957 191.125 C 284.988 190.415,284.988 189.252,284.957 188.542 C 284.926 187.831,284.900 188.412,284.900 189.833 M252.831 197.799 L 252.911 198.750 252.966 197.935 C 252.996 197.487,252.959 197.059,252.885 196.985 C 252.811 196.910,252.786 197.277,252.831 197.799 M252.863 202.111 C 252.847 202.493,252.785 202.943,252.725 203.111 C 252.643 203.344,252.666 203.372,252.819 203.232 C 252.942 203.118,252.996 202.732,252.957 202.232 C 252.894 201.427,252.893 201.426,252.863 202.111 M284.733 231.583 C 284.734 232.958,284.759 233.499,284.791 232.784 C 284.822 232.069,284.822 230.944,284.790 230.284 C 284.759 229.624,284.733 230.208,284.733 231.583 M162.425 237.212 C 162.470 237.328,162.674 237.526,162.878 237.650 C 163.233 237.867,163.231 237.857,162.846 237.439 C 162.395 236.949,162.306 236.901,162.425 237.212 M237.240 237.542 L 236.750 238.083 237.292 237.594 C 237.797 237.138,237.910 237.000,237.781 237.000 C 237.752 237.000,237.509 237.244,237.240 237.542 M196.833 252.867 C 196.833 252.940,197.227 252.991,197.708 252.981 C 198.617 252.961,198.530 252.895,197.458 252.793 C 197.115 252.760,196.833 252.794,196.833 252.867 M202.333 252.833 L 201.417 252.946 202.282 252.973 C 202.758 252.988,203.193 252.925,203.250 252.833 C 203.307 252.742,203.330 252.679,203.302 252.694 C 203.273 252.709,202.838 252.772,202.333 252.833 M284.571 276.833 C 284.571 278.896,284.595 279.740,284.624 278.708 C 284.654 277.677,284.654 275.990,284.624 274.958 C 284.595 273.927,284.571 274.771,284.571 276.833 M284.567 295.167 C 284.567 296.587,284.593 297.169,284.624 296.458 C 284.655 295.748,284.655 294.585,284.624 293.875 C 284.593 293.165,284.567 293.746,284.567 295.167 M284.558 313.833 C 284.558 314.612,284.587 314.931,284.622 314.542 C 284.657 314.152,284.657 313.515,284.622 313.125 C 284.587 312.735,284.558 313.054,284.558 313.833 M284.409 317.542 C 284.365 317.657,284.349 320.451,284.373 323.751 L 284.417 329.750 284.500 323.542 C 284.546 320.127,284.562 317.333,284.536 317.333 C 284.511 317.333,284.453 317.427,284.409 317.542 M284.388 330.917 C 284.389 331.558,284.419 331.800,284.455 331.455 C 284.491 331.109,284.490 330.584,284.454 330.288 C 284.417 329.992,284.387 330.275,284.388 330.917 " stroke="none" fill="#e4043c" fill-rule="evenodd"></path></g></svg>