<svg xmlns="http://www.w3.org/2000/svg" width="447.726" height="348.525" viewBox="0 0 447.726 348.525"><g transform="translate(1878.142 1259.732)"><path d="M-1677.112-1130.938s11.609,3.849,10.714,10.555-7.846,11.192-7.846,11.192a203.273,203.273,0,0,0-13.571,15.642,175.118,175.118,0,0,0-11.033,16.439,113.3,113.3,0,0,0-7.2,13.362,159.577,159.577,0,0,0-5.884,15.765l4.989-6.044,3.837-7.2a22.712,22.712,0,0,1,2.942-6.375,106.884,106.884,0,0,1,6.62-8.986,45.336,45.336,0,0,1,4.744-5.149,80.255,80.255,0,0,1,6.46-5.235l8.655-10.665,16.059-21.085,14.184,10.543,3.432.907,1.14-1.925,17.984-31.505,1.716-1.312,2.942,1.312,72.732,90.189c18.183,22.547,33.743,38.827,44.99,51.77a120.894,120.894,0,0,0,23.868,20.877l11.683,10.383c2.921,2.6,12.265,16.209,16.354,21.613s14.049,21.245,14.049,21.245l6.129,9.366v2.047s-40.044-30.957-53.608-41.276" transform="translate(-4 2)" fill="#ff4f59"/><path d="M-1481.392-954.892l1.833.892-4.608-1.667h-10.442l-8.867,1.667-11.083,3.442a26.856,26.856,0,0,0-8.642,7.775c-3.215,4.875-4.217,11.725-4.217,11.725l-2.558,8.142-3.667,5.717-10.775-21.383-17.617-34.667a80.858,80.858,0,0,1-4.358-10.167c-2.131-6.015-4.167-13.892-4.167-13.892l-5.884-19.642-1.667.95-2.5,28.967s-.908,11.3-2.95,17.7-5.217,7.883-5.217,7.883l-29.5,17.058s-14.919-7.64-24.892-13.8a104.524,104.524,0,0,1-15-10.842A59.871,59.871,0,0,1-1667-979.308a42.842,42.842,0,0,1-4.892-11.217s-2.023-6.154-3.975-10.892a79.542,79.542,0,0,0-3.833-8.058l-2.825-3.225-5.342,15.058-7.992,23.558-9.058,26.892-3.917-3.558-16.275-16.225-16.225-16.5-17.367,22.667s-4.76,6.167-9.883,12-10.608,11.333-10.608,11.333-4.515,5.435-8.925,8.283a20.008,20.008,0,0,1-8.717,3.108l-21.108-28.333-8.5-8.5-9.917,3-41.283,12.667-.5-.95,16.417-17.05,19.892-21.725,19.333-21.358,27.75-30.25,28.417-31.725,20.917-28.942,16.442-30.533a39.418,39.418,0,0,1,3.058-6.575,63.589,63.589,0,0,1,4.833-6.842l5.821-1.183.454-.092s4.938.969,9.667,2.442,9.25,3.45,9.25,3.45l19.558,8.025" fill="#ff4f59"/><g transform="translate(-5.902 16)"><path d="M-1666.13-1174.443a21.99,21.99,0,0,0-2.529-7.008,36.9,36.9,0,0,0-5.492-6.782,25.711,25.711,0,0,0-7.583-6.142,28.828,28.828,0,0,0-9.826-2.383,67.024,67.024,0,0,0-11.624,1.582,29.986,29.986,0,0,0-8.45,3.618,22.7,22.7,0,0,0-5.265,4.182,26.1,26.1,0,0,0-3.759,5.926,14.462,14.462,0,0,0,1.224,4.409,6.878,6.878,0,0,0,2.535,2.6h6.207a87.708,87.708,0,0,1,8.233-6.434,32.94,32.94,0,0,1,6.933-3.532,38.24,38.24,0,0,1,7.941-1.159,44.736,44.736,0,0,1,8.385.726l6.857,3.965Z" fill="#ff4f59"/><path d="M-1664.182-1206.041l-.791-16.218s-.672-4.561-2.026-10.075-3.391-11.982-3.391-11.982a22.845,22.845,0,0,0-3.391-7.226,57.9,57.9,0,0,0-7.085-7.865l-6.641-4.3s-3.7-1.3-6.5-.726a9.058,9.058,0,0,0-4.7,3.033l-1.506,4.193v5.124a17.046,17.046,0,0,0,3.315,5.135,24.44,24.44,0,0,0,5.557,3.965s2.6,1.671,5.027,3.358,4.691,3.391,4.691,3.391l6.283,6.977,4.951,8.374Z" fill="#ff4f59"/><path d="M-1651.182-1244.359s.349-1.243,1.235-3.824.845-3.756,2.307-6.5,2.722-5.468,4.691-7.074a13.191,13.191,0,0,1,4.193-2.242,16.7,16.7,0,0,0,2.741-3.358,20.673,20.673,0,0,0,1.809-4.257,4.158,4.158,0,0,0-1.159-2.741,7.863,7.863,0,0,0-3.391-1.376,19.585,19.585,0,0,0-4.983,1.376,6.926,6.926,0,0,0-3.109,2.741,13.9,13.9,0,0,0-2.307,3.532c-.886,2.023-2.026,4.561-2.026,4.561l-.791,4.832Z" fill="#ff4f59"/><path d="M-1651.68-1175.242l4.55-10.573a66.969,66.969,0,0,1,4.691-8.743c3.1-4.948,7.724-11.05,7.724-11.05s4.385-4.737,8.493-8.483a99.135,99.135,0,0,1,7.941-6.5s3.949-2.473,8.634-5.2,10.108-5.709,10.108-5.709a40.99,40.99,0,0,0,5.2-5.2,35.117,35.117,0,0,0,3.759-5.926v-4.431a14.758,14.758,0,0,0-5.427-3.543,22.7,22.7,0,0,0-7.356-.867,61.755,61.755,0,0,0-7.8,2.167,55.159,55.159,0,0,0-7.118,3.25,31.6,31.6,0,0,0-5.666,3.976c-3.3,2.8-7.518,7.215-7.518,7.215s-2.286,2.876-4.615,6.218-4.7,7.15-4.7,7.15-2.313,4.149-3.9,7.832a56.373,56.373,0,0,0-2.448,6.9s-1.032,4.528-1.809,8.807-1.3,8.309-1.3,8.309Z" fill="#ff4f59"/><path d="M-1638.031-1176.065a54.283,54.283,0,0,1,7.215-6.933c4.187-3.3,7.15-4.585,9.533-6.283s3.361-1.774,8.309-3.326,11.483-2.882,11.483-2.882a59.335,59.335,0,0,1,10.725-.509,17.082,17.082,0,0,1,7.074,2.015,16.288,16.288,0,0,1,3.326,2.892,48.858,48.858,0,0,1,3.683,4.907,7.165,7.165,0,0,1,.574,3.185,13.707,13.707,0,0,1-1.007,3.824,3.46,3.46,0,0,1-1.885,2.459,25.773,25.773,0,0,1-5.406,2.091h-5.785s-2.083-.577-4.907-1.517-6.392-2.242-6.392-2.242h-5.384l-3.607-.791h-8.959l-8.591.791-6.359,1.018Z" fill="#ff4f59"/></g></g></svg>